<svg xmlns="http://www.w3.org/2000/svg" xmlns:xlink="http://www.w3.org/1999/xlink" fill="none" version="1.1" width="30"
  height="27" viewBox="15 15 30 27">
  <defs>
    <filter id="master_svg0_1_5004" filterUnits="objectBoundingBox" color-interpolation-filters="sRGB" x="-20" y="-20"
      width="76" height="76">
      <feFlood flood-opacity="0" result="BackgroundImageFix" />
      <feColorMatrix in="SourceAlpha" type="matrix" values="0 0 0 0 0 0 0 0 0 0 0 0 0 0 0 0 0 0 127 0" />
      <feOffset dy="0" dx="0" />
      <feGaussianBlur stdDeviation="5" />
      <feColorMatrix type="matrix" values="0 0 0 0 0 0 0 0 0 0 0 0 0 0 0 0 0 0 0.10000000149011612 0" />
      <feBlend mode="normal" in2="BackgroundImageFix" result="effect1_dropShadow" />
      <feBlend mode="normal" in="SourceGraphic" in2="effect1_dropShadow" result="shape" />
    </filter>
    <linearGradient x1="0.5" y1="0.08961928635835648" x2="0.5" y2="0.9078529477119446" id="master_svg1_1_1711">
      <stop offset="0%" stop-color="#FFFFFF" stop-opacity="1" />
      <stop offset="100%" stop-color="#B6B6B6" stop-opacity="1" />
    </linearGradient>
    <linearGradient x1="0" y1="0.5" x2="1" y2="0.5" id="master_svg2_1_1880">
      <stop offset="0%" stop-color="#1C1C1C" stop-opacity="1" />
      <stop offset="100%" stop-color="#757575" stop-opacity="1" />
    </linearGradient>
    <radialGradient cx="0" cy="0" r="1" gradientUnits="userSpaceOnUse" id="master_svg3_1_1876"
      gradientTransform="translate(37 33) rotate(90) scale(8 8)">
      <stop offset="0%" stop-color="#535353" stop-opacity="1" />
      <stop offset="100%" stop-color="#909090" stop-opacity="1" />
    </radialGradient>
  </defs>
  <g filter="url(#master_svg0_1_5004)">
    <g>
      <path d="" fill="#D8D8D8" fill-opacity="0" />
    </g>
    <g>
      <path
        d="M15,37C15,37.5523,15.447715,38,16,38L33,38C33.5523,38,34,37.5523,34,37L34,20.41421C34,20.149,33.8946,19.89464,33.7071,19.70711L29.2929,15.292893C29.1054,15.105357,28.851,15,28.5858,15L16,15C15.447715,15,15,15.447715,15,16L15,37Z"
        fill="url(#master_svg1_1_1711)" fill-opacity="1" />
    </g>
    <g>
      <path
        d="M18,29.5L18,28.5C18,28.223860000000002,18.223858,28,18.5,28L30.5,28C30.7761,28,31,28.223860000000002,31,28.5L31,29.5C31,29.776139999999998,30.7761,30,30.5,30L18.5,30C18.223858,30,18,29.776139999999998,18,29.5ZM18,33.5L18,32.5C18,32.2239,18.223858,32,18.5,32L30.5,32C30.7761,32,31,32.2239,31,32.5L31,33.5C31,33.7761,30.7761,34,30.5,34L18.5,34C18.223858,34,18,33.7761,18,33.5ZM18,24.5L18,21.5C18,21.223858,18.223858,21,18.5,21L24.5,21C24.776139999999998,21,25,21.223858,25,21.5L25,24.5C25,24.776139999999998,24.776139999999998,25,24.5,25L18.5,25C18.223858,25,18,24.776139999999998,18,24.5Z"
        fill="url(#master_svg2_1_1880)" fill-opacity="1" />
    </g>
    <g>
      <g>
        <path
          d="M45,33C45,31.93913,44.797,30.91864,44.391,29.93853C43.9851,28.95842,43.407,28.09329,42.6569,27.34315C41.9067,26.593,41.0416,26.01494,40.0615,25.608964C39.0814,25.202988,38.06087,25.000000158946,37,25.000000476837L37,33L45,33Z"
          fill="#FFC800" fill-opacity="1" />
      </g>
      <g>
        <path
          d="M45,33C45,34.617850000000004,44.5506,36.0994,43.6518,37.4446C42.7529,38.7898,41.556200000000004,39.7719,40.0615,40.391C38.56677,41.0102,37.02604,41.1619,35.43928,40.8463C33.85252,40.530699999999996,32.48714,39.8008,31.34315,38.6569C30.19915,37.5129,29.469344,36.1475,29.153718,34.56072C28.838091,32.97396,28.9898397,31.433230000000002,29.608963,29.93853C30.22809,28.44384,31.21025,27.24707,32.55544,26.34824C33.90063,25.449414,35.38215,24.999999364217,37,25L37,33L45,33Z"
          fill="url(#master_svg3_1_1876)" fill-opacity="1" />
      </g>
    </g>
  </g>
</svg>