<svg xmlns="http://www.w3.org/2000/svg" xmlns:xlink="http://www.w3.org/1999/xlink" fill="none" version="1.1" width="24" height="24" viewBox="0 0 24 24"><g><g><rect x="0" y="0" width="24" height="24.000009536743164" rx="2" fill="#000000" fill-opacity="0.4000000059604645"/><rect x="0.5" y="0.5" width="23" height="23.000009536743164" rx="1.5" fill-opacity="0" stroke-opacity="1" stroke="#505050" fill="none" stroke-width="1"/></g><g><g><rect x="5" y="18" width="1" height="1" rx="0" fill="#FF5C00" fill-opacity="1"/></g><g><rect x="7" y="18" width="1" height="1" rx="0" fill="#FF5C00" fill-opacity="1"/></g><g><rect x="9" y="18" width="1" height="1" rx="0" fill="#FF5C00" fill-opacity="1"/></g><g><rect x="11" y="18" width="1" height="1" rx="0" fill="#FF5C00" fill-opacity="1"/></g><g><rect x="13" y="18" width="1" height="1" rx="0" fill="#FF5C00" fill-opacity="1"/></g><g><rect x="15" y="18" width="1" height="1" rx="0" fill="#FF5C00" fill-opacity="1"/></g><g><rect x="6" y="16" width="1" height="1" rx="0" fill="#FF5C00" fill-opacity="1"/></g><g><rect x="8" y="16" width="1" height="1" rx="0" fill="#FF5C00" fill-opacity="1"/></g><g><rect x="10" y="16" width="1" height="1" rx="0" fill="#FF5C00" fill-opacity="1"/></g><g><rect x="12" y="16" width="1" height="1" rx="0" fill="#FF5C00" fill-opacity="1"/></g><g><rect x="14" y="16" width="1" height="1" rx="0" fill="#FF5C00" fill-opacity="1"/></g><g><rect x="16" y="16" width="1" height="1" rx="0" fill="#FF5C00" fill-opacity="1"/></g><g><rect x="18" y="16" width="1" height="1" rx="0" fill="#FF5C00" fill-opacity="1"/></g><g><rect x="17" y="18" width="1" height="1" rx="0" fill="#FF5C00" fill-opacity="1"/></g></g><g><g><rect x="5" y="14" width="1" height="1" rx="0" fill="#FF5C00" fill-opacity="1"/></g><g><rect x="7" y="14" width="1" height="1" rx="0" fill="#FF5C00" fill-opacity="1"/></g><g><rect x="9" y="14" width="1" height="1" rx="0" fill="#FF5C00" fill-opacity="1"/></g><g><rect x="11" y="14" width="1" height="1" rx="0" fill="#FF5C00" fill-opacity="1"/></g><g><rect x="13" y="14" width="1" height="1" rx="0" fill="#FF5C00" fill-opacity="1"/></g><g><rect x="15" y="14" width="1" height="1" rx="0" fill="#FF5C00" fill-opacity="1"/></g><g><rect x="6" y="12" width="1" height="1" rx="0" fill="#FF5C00" fill-opacity="1"/></g><g><rect x="8" y="12" width="1" height="1" rx="0" fill="#FF5C00" fill-opacity="1"/></g><g><rect x="10" y="12" width="1" height="1" rx="0" fill="#FF5C00" fill-opacity="1"/></g><g><rect x="12" y="12" width="1" height="1" rx="0" fill="#FF5C00" fill-opacity="1"/></g><g><rect x="14" y="12" width="1" height="1" rx="0" fill="#FF5C00" fill-opacity="1"/></g><g><rect x="16" y="12" width="1" height="1" rx="0" fill="#FF5C00" fill-opacity="1"/></g><g><rect x="18" y="12" width="1" height="1" rx="0" fill="#FF5C00" fill-opacity="1"/></g><g><rect x="17" y="14" width="1" height="1" rx="0" fill="#FF5C00" fill-opacity="1"/></g></g><g><g><rect x="5" y="10" width="1" height="1" rx="0" fill="#FF1001" fill-opacity="1"/></g><g><rect x="7" y="10" width="1" height="1" rx="0" fill="#FF1001" fill-opacity="1"/></g><g><rect x="9" y="10" width="1" height="1" rx="0" fill="#FF1001" fill-opacity="1"/></g><g><rect x="11" y="10" width="1" height="1" rx="0" fill="#FF1001" fill-opacity="1"/></g><g><rect x="13" y="10" width="1" height="1" rx="0" fill="#FF1001" fill-opacity="1"/></g><g><rect x="15" y="10" width="1" height="1" rx="0" fill="#FF1001" fill-opacity="1"/></g><g><rect x="6" y="8" width="1" height="1" rx="0" fill="#FF1001" fill-opacity="1"/></g><g><rect x="8" y="8" width="1" height="1" rx="0" fill="#FF1001" fill-opacity="1"/></g><g><rect x="10" y="8" width="1" height="1" rx="0" fill="#FF1001" fill-opacity="1"/></g><g><rect x="12" y="8" width="1" height="1" rx="0" fill="#FF1001" fill-opacity="1"/></g><g><rect x="14" y="8" width="1" height="1" rx="0" fill="#FF1001" fill-opacity="1"/></g><g><rect x="16" y="8" width="1" height="1" rx="0" fill="#FF1001" fill-opacity="1"/></g><g><rect x="18" y="8" width="1" height="1" rx="0" fill="#FF1001" fill-opacity="1"/></g><g><rect x="17" y="10" width="1" height="1" rx="0" fill="#FF1001" fill-opacity="1"/></g></g><g><g><rect x="5" y="6" width="1" height="1" rx="0" fill="#FF1001" fill-opacity="1"/></g><g><rect x="7" y="6" width="1" height="1" rx="0" fill="#FF1001" fill-opacity="1"/></g><g><rect x="9" y="6" width="1" height="1" rx="0" fill="#FF1001" fill-opacity="1"/></g><g><rect x="11" y="6" width="1" height="1" rx="0" fill="#FF1001" fill-opacity="1"/></g><g><rect x="13" y="6" width="1" height="1" rx="0" fill="#FF1001" fill-opacity="1"/></g><g><rect x="15" y="6" width="1" height="1" rx="0" fill="#FF1001" fill-opacity="1"/></g><g><rect x="17" y="6" width="1" height="1" rx="0" fill="#FF1001" fill-opacity="1"/></g></g></g></svg>