<svg xmlns="http://www.w3.org/2000/svg" xmlns:xlink="http://www.w3.org/1999/xlink" fill="none" version="1.1" width="12" height="7" viewBox="0 0 12 7"><defs><clipPath id="master_svg0_1085_24115"><rect x="0" y="0" width="12" height="7" rx="0"/></clipPath></defs><g clip-path="url(#master_svg0_1085_24115)"><g transform="matrix(1,1.7011565489610803e-9,-1.7011565489610803e-9,1,1.7375413824997912e-9,0)"><path d="M11.8291,4.155488292312622L6.46183,6.988278292312622C6.39705,7.022258292312622,6.31744,6.978028292312622,6.31744,6.908068292312622L6.31738,5.609648292312622C6.31738,5.542998292312622,6.35577,5.481488292312622,6.41748,5.4491182923126225L8.33007,4.999998292312622L0.194572,4.999998292312622C0.087218,4.999998292312622,0,4.917758292312622,0,4.816408292312622L0,3.768218292312622C0,3.666858292312622,0.0869813,3.584738292312622,0.194336,3.584738292312622L8.32959,3.584738292312622L6.41742,3.038048292312622C6.35571,3.0056882923126222,6.31744,2.944278292312622,6.31744,2.8776282923126217L6.31738,1.113307192312622C6.31738,1.043341092312622,6.39713,0.9991283923126221,6.46191,1.033107092312622L11.8291,3.834568292312622C11.9624,3.9044882923126223,11.9624,4.085568292312622,11.8291,4.155488292312622Z" fill-rule="evenodd" fill="#000000" fill-opacity="0.800000011920929"/></g><g transform="matrix(1,1.7011565489610803e-9,-1.7011565489610803e-9,1,1.7011565489610803e-9,0)"><path d="M10.9,3.66039L6.46183,5.98828C6.39705,6.02226,6.31744,5.97803,6.31744,5.90807L6.31744,5.1223C6.31744,5.05565,6.35571,4.99424,6.41742,4.961869999999999L8.33007,4L0.194572,4C0.087218,4,0,3.91776,0,3.81641L0,3.18347C0,3.08212,0.0872179,3,0.194572,3L8.3296,3L6.41742,2.03805C6.35571,2.00568,6.31744,1.944275,6.31744,1.877626L6.31744,1.0918535C6.31744,1.0218873,6.39705,0.9776615,6.46183,1.0116402L10.9,3.33953C11.0333,3.40946,11.0333,3.59046,10.9,3.66039Z" fill-rule="evenodd" fill="#D8D8D8" fill-opacity="1"/></g></g></svg>