<svg xmlns="http://www.w3.org/2000/svg" xmlns:xlink="http://www.w3.org/1999/xlink" fill="none" version="1.1" width="11.31788350078563" height="5.448949833096265" viewBox="0 0 11.31788350078563 5.448949833096265"><g transform="matrix(1,1.7011565489610803e-9,-1.7011565489610803e-9,1,0,-1.576889905652005e-17)"><path d="M11.215000009269517,2.89926L6.6485600092695165,5.43618C6.581910009269516,5.47321,6.500000009269517,5.42501,6.500000009269517,5.34876L6.500000009269517,4.49244C6.500000009269517,4.4198,6.539380009269517,4.35288,6.602870009269517,4.31761L8.570700009269517,3.22437L0.20000000926951672,3.22437C0.08954310926951671,3.22437,9.269516709764503e-9,3.13482,9.269516709764503e-9,3.02437L9.269516709764503e-9,2.42437C9.269516709764503e-9,2.31391,0.08954310926951671,2.22437,0.20000000926951672,2.22437L8.570460009269517,2.22437L6.602870009269517,1.13126C6.539380009269517,1.09599,6.500000009269517,1.02906,6.500000009269517,0.956428L6.500000009269517,0.100101C6.500000009269517,0.0238526,6.581910009269516,-0.0243443,6.6485600092695165,0.0126853L11.215000009269517,2.5496C11.352200009269517,2.6258,11.352200009269517,2.82306,11.215000009269517,2.89926Z" fill-rule="evenodd" fill="#D8D8D8" fill-opacity="1"/></g></svg>