<svg xmlns="http://www.w3.org/2000/svg" xmlns:xlink="http://www.w3.org/1999/xlink" fill="none" version="1.1" width="30" height="24" viewBox="0 0 30 24"><defs><linearGradient x1="0.5" y1="0.08961928635835648" x2="0.5" y2="0.9078529477119446" id="master_svg0_1_1711"><stop offset="0%" stop-color="#FFFFFF" stop-opacity="1"/><stop offset="100%" stop-color="#B6B6B6" stop-opacity="1"/></linearGradient><linearGradient x1="0.5" y1="0.15896160900592804" x2="0.5" y2="0.8406989574432373" id="master_svg1_1_1750"><stop offset="0%" stop-color="#1C1C1C" stop-opacity="1"/><stop offset="100%" stop-color="#757575" stop-opacity="1"/></linearGradient></defs><g><g><path d="M0,23C0,23.5523,0.447715,24,1,24L29,24C29.5523,24,30,23.5523,30,23L30,5C30,4.44772,29.5523,4,29,4L24.5,4C24.1852,4,23.8889,3.85181,23.7,3.6L21.3,0.4C21.1111,0.148194,20.8148,0,20.5,0L9.5,0C9.18524,0,8.88885,0.148194,8.7,0.4L6.3,3.6C6.11115,3.85181,5.81476,4,5.5,4L1,4C0.447715,4,0,4.44772,0,5L0,23Z" fill="url(#master_svg0_1_1711)" fill-opacity="1"/></g><g><ellipse cx="15" cy="13" rx="9" ry="9" fill="url(#master_svg1_1_1750)" fill-opacity="1"/></g><g><path d="M14.280938,6.036936580541992Q14.639516,5.999906539541993,15,5.999906539541993Q15.17184,5.999906539541993,15.34347,6.008338350541992Q15.51511,6.016770180541992,15.68612,6.033613480541992Q15.85713,6.050456780541992,16.02711,6.075670980541992Q16.19709,6.100884680541992,16.36563,6.134409680541992Q16.53417,6.167933680541992,16.70086,6.209687680541992Q16.86755,6.251441680541992,17.03199,6.301324680541992Q17.19643,6.351206680541992,17.35823,6.409097680541993Q17.52002,6.466989680541992,17.67878,6.5327496805419925Q17.83754,6.598510680541992,17.99289,6.671981680541992Q18.148229999999998,6.745452680541992,18.29978,6.826457680541992Q18.45133,6.907462680541992,18.59872,6.9958066805419925Q18.74611,7.084150680541992,18.88899,7.179620680541992Q19.031869999999998,7.275090680541992,19.1699,7.377450680541992Q19.30792,7.479820680541993,19.44075,7.588830680541992Q19.57359,7.697850680541992,19.70091,7.813250680541993Q19.82824,7.928650680541992,19.94975,8.050160680541993Q20.07126,8.171670680541993,20.18666,8.298990680541992Q20.30206,8.426320680541991,20.41107,8.559150680541993Q20.52009,8.691990680541991,20.62245,8.830010680541992Q20.72482,8.968030680541993,20.82029,9.110910680541991Q20.91576,9.253790680541993,21.0041,9.401190680541992Q21.09244,9.548580680541992,21.17345,9.700130680541992Q21.25445,9.851680680541993,21.32792,10.007020680541991Q21.4014,10.162360680541992,21.46716,10.321120680541991Q21.53292,10.479880680541992,21.59081,10.641680680541992Q21.648699999999998,10.803470680541992,21.69858,10.967910680541992Q21.74846,11.132350680541993,21.790219999999998,11.299040680541992Q21.83197,11.465730680541991,21.8655,11.634270680541992Q21.89902,11.802810680541992,21.92423,11.972790680541992Q21.94945,12.142770680541993,21.96629,12.313790680541992Q21.98314,12.484800680541992,21.99157,12.656430680541991Q22,12.828070680541991,22,12.999910680541992Q22,14.001610680541992,21.71906,14.963120680541993Q21.36048,15.000150680541992,21,15.000150680541992Q20.82816,15.000150680541992,20.65653,14.991720680541992Q20.48489,14.983290680541993,20.31388,14.966440680541993Q20.142870000000002,14.949600680541993,19.97289,14.924380680541992Q19.80291,14.899170680541992,19.63437,14.865650680541993Q19.46583,14.832120680541992,19.29914,14.790370680541992Q19.13245,14.748610680541992,18.96801,14.698730680541992Q18.80357,14.648850680541992,18.64177,14.590960680541992Q18.47998,14.533070680541993,18.32122,14.467310680541992Q18.16246,14.401540680541991,18.00711,14.328070680541993Q17.851770000000002,14.254600680541992,17.70022,14.173600680541993Q17.54867,14.092590680541992,17.40128,14.004250680541992Q17.25389,13.915910680541991,17.11101,13.820440680541992Q16.96813,13.724970680541993,16.8301,13.622600680541993Q16.69208,13.520240680541992,16.55925,13.411220680541991Q16.42641,13.302210680541993,16.29909,13.186810680541992Q16.17176,13.071410680541991,16.05025,12.949900680541992Q15.92874,12.828390680541993,15.81334,12.701060680541993Q15.69794,12.573740680541992,15.58893,12.440900680541993Q15.47991,12.308070680541991,15.37755,12.170040680541991Q15.27518,12.032020680541992,15.17971,11.889140680541992Q15.08424,11.746260680541992,14.9959,11.598870680541992Q14.907556,11.45148068054199,14.826551,11.299930680541992Q14.745546000000001,11.148380680541992,14.672075,10.993040680541991Q14.598604,10.837690680541993,14.532843,10.678930680541992Q14.467083,10.520170680541991,14.409191,10.358380680541991Q14.3513,10.196580680541992,14.301418,10.032140680541993Q14.251535,9.867700680541992,14.209781,9.701010680541993Q14.168027,9.534320680541992,14.134503,9.365780680541992Q14.100979,9.197240680541992,14.0757644,9.027260680541993Q14.0505502,8.857280680541992,14.0337069,8.686270680541991Q14.0168636,8.515260680541992,14.0084318,8.343620680541992Q14,8.171990680541992,14,8.000150680541992Q14,6.998442680541992,14.280938,6.036936580541992Z" fill-rule="evenodd" fill="#898989" fill-opacity="0.6399999856948853"/></g><g><ellipse cx="15" cy="13" rx="6.5" ry="6.5" fill-opacity="0" stroke-opacity="1" stroke="#FFC800" fill="none" stroke-width="1"/></g></g></svg>