<svg xmlns="http://www.w3.org/2000/svg" xmlns:xlink="http://www.w3.org/1999/xlink" fill="none" version="1.1" width="20" height="20" viewBox="0 0 20 20"><defs><clipPath id="master_svg0_19_15515"><rect x="0" y="0" width="20" height="20" rx="0"/></clipPath></defs><g clip-path="url(#master_svg0_19_15515)"><g><path d="M2,4L18,4L18,5L2,5L2,4Z" fill="#E2E2E2" fill-opacity="1"/></g><g><path d="M6,2L14,2L14,3L6,3L6,2Z" fill="#E2E2E2" fill-opacity="1"/></g><g><path d="M8,7L9,7L9,15L8,15L8,7Z" fill="#E2E2E2" fill-opacity="1"/></g><g><path d="M11,7L12,7L12,15L11,15L11,7Z" fill="#E2E2E2" fill-opacity="1"/></g><g><path d="M4,4L16,4L16,17C16,17.552300000000002,15.5523,18,15,18L5,18C4.447715,18,4,17.552300000000002,4,17L4,4ZM5,5L15,5L15,17L5,17L5,5Z" fill-rule="evenodd" fill="#E2E2E2" fill-opacity="1"/></g></g></svg>