<svg xmlns="http://www.w3.org/2000/svg" xmlns:xlink="http://www.w3.org/1999/xlink" fill="none" version="1.1" width="87.63525390625" height="30" viewBox="0 0 87.63525390625 30"><g><g><rect x="41.428955078125" y="0.18535110354423523" width="3.5532474517822266" height="22.70618438720703" rx="0" fill="#000000" fill-opacity="1"/></g><g><path d="M3.55325,0.6580234206590653L3.55325,22.900857420659065L0,22.900857420659065L0,0.17841297865906525L3.07809,0.17841297865906525C3.34513,0.17157022065906524,3.56269,0.39116242065906526,3.55325,0.6580234206590653Z" fill="#000000" fill-opacity="1"/></g><g><path d="M47.35116617405,7.576510089904785L47.35116617405,22.884653089904788L50.90441421875,22.884653089904788L50.90441421875,7.103850313304785L47.82400721875,7.103850313304785C47.56069321875,7.098531309904785,47.34584690875,7.313294089904785,47.35116617405,7.576510089904785Z" fill="#000000" fill-opacity="1"/></g><g><path d="M13.418016484375,11.207060954589844L13.418016484375,22.421140954589845C13.418016484375,22.67704095458984,13.625566484375,22.884540954589845,13.881586484375,22.884540954589845L16.961996484375,22.884540954589845L16.961996484375,11.044870954589843C16.961996484375,8.283060954589844,15.381226484375,7.106040954589844,13.408746484375001,7.106040954589844L6.394964484375,7.106040954589844C6.138943484375,7.106040954589844,5.931396484375,7.313508954589844,5.931396484375,7.5694329545898436L5.931396484375,22.884540954589845L9.477696484375,22.884540954589845L9.477696484375,10.257100954589845L12.490886484375,10.257100954589845C13.007186484375,10.268460954589845,13.419406484375,10.690830954589844,13.418016484375,11.207060954589844Z" fill="#000000" fill-opacity="1"/></g><g><path d="M23.848530703125,19.731204246115684C23.325870703125,19.731204246115684,22.901810703125,19.308404246115686,22.900540703125,18.785904246115685L22.900540703125,10.252604246115684L25.640230703125,10.252604246115684C25.857750703125,10.259204246115685,26.050580703125,10.113644246115685,26.103790703125,9.902704246115684L26.854780703125,7.103824246115685L22.914450703125,7.103824246115685L22.914450703125,0.6580442461156846C22.914530703125,0.39752624611568455,22.699820703125,0.1881387661156845,22.439290703125,0.1946527331156845L19.344970703125,0.1946527331156845L19.344970703125,18.962004246115683C19.344970703125,21.723804246115684,20.925740703125,22.900804246115683,22.898220703125,22.900804246115683L25.635590703125,22.900804246115683C25.853100703125,22.907404246115686,26.045940703124998,22.761904246115684,26.099160703125,22.551004246115685L26.850140703125,19.742804246115686L23.848530703125,19.731204246115684Z" fill="#000000" fill-opacity="1"/></g><g><path d="M84.619655546875,19.73128624289036C84.09699554687501,19.73128624289036,83.672945546875,19.308386242890357,83.671665546875,18.78598624289036L83.671665546875,10.252586242890358L86.411355546875,10.252586242890358C86.628865546875,10.259186242890358,86.821705546875,10.113686242890358,86.874915546875,9.902756242890359L87.625895546875,7.103876242890358L83.685565546875,7.103876242890358L83.685565546875,0.17848624289035797L80.591253546875,0.17848624289035797C80.335228546875,0.17848624289035797,80.127685546875,0.38595424289035796,80.127685546875,0.641877242890358L80.127685546875,18.945886242890356C80.127685546875,21.707686242890357,81.708455546875,22.884686242890357,83.680925546875,22.884686242890357L86.420615546875,22.884686242890357C86.638135546875,22.89128624289036,86.830975546875,22.745786242890357,86.884185546875,22.53478624289036L87.635165546875,19.72668624289036L84.619655546875,19.73128624289036Z" fill="#000000" fill-opacity="1"/></g><g><path d="M35.506764921875,7.103739867068848L30.595254921875,7.103739867068848C30.377734921875,7.0971375080688475,30.184904921875,7.242670208068848,30.131694921875,7.453601208068847L29.378394921875,10.261754208068847L34.551804921875004,10.261754208068847C35.074474921875,10.261754208068847,35.498534921875,10.684614208068847,35.499804921875,11.207074208068848L35.499804921875,12.629684208068849L31.559474921875,12.629684208068849C29.589314921875,12.629684208068849,28.008544921875,13.811334208068848,28.008544921875,16.568514208068848L28.008544921875,18.98972420806885C28.008544921875,21.496724208068848,29.932354921875,23.06762420806885,31.698544921875,23.06762420806885C33.837914921875,23.06762420806885,35.066364921875,22.11532420806885,35.509074921875,21.67742420806885L35.509074921875,22.421124208068846C35.509074921875,22.677124208068847,35.716624921875,22.884524208068846,35.972644921875,22.884524208068846L39.053044921875,22.884524208068846L39.053044921875,11.044884208068847C39.060044921875004,8.287704208068847,37.476924921874996,7.103739867068848,35.506764921875,7.103739867068848ZM35.506764921875,18.313224208068846C34.811414921875,18.83452420806885,33.497194921875,19.73112420806885,32.688264921875,19.73112420806885C31.710144921875,19.73112420806885,31.557164921875,19.237624208068848,31.557164921875,18.28302420806885L31.557164921875,16.728384208068846C31.559704921875,16.206834208068848,31.983394921875,15.785384208068848,32.505154921875004,15.785384208068848L35.518354921875,15.785384208068848L35.506764921875,18.313224208068846Z" fill="#000000" fill-opacity="1"/></g><g><path d="M64.326993359375,7.57633296875C64.327093359375,7.31581696875,64.112393359375,7.10642924875,63.851793359375,7.11294145575L56.826443359375,7.11294145575C54.853953359375,7.11294145575,53.273193359375,8.29690296875,53.273193359375,11.05177296875L53.273193359375,18.99889296875C53.273193359375,21.50589296875,55.196993359375,23.07679296875,56.963193359375,23.07679296875C59.102563359375,23.07679296875,60.331023359375,22.124492968749998,60.773733359375,21.68659296875L60.773733359375,25.71119296875C60.773733359375,26.23449296875,60.349293359375,26.65879296875,59.825733359375,26.65879296875Q59.301893359375,26.65879296875,54.603643359375,26.47339296875L55.410253359375,29.48549296875C55.459703359375,29.68239296875,55.631613359375,29.82419296875,55.834403359375,29.83539296875C56.678103359375,29.88399296875,58.926403359375,29.99989296875,60.769083359375,29.99989296875C62.741573359374996,29.99989296875,64.322293359375,28.81589296875,64.322293359375,26.06099296875L64.326993359375,7.57633296875ZM57.955233359375,19.731092968749998C56.977103359375,19.731092968749998,56.826443359375,19.23759296875,56.826443359375,18.28299296875L56.826443359375,11.204692968749999C56.827733359375,10.68350296875,57.250753359375,10.26169296875,57.772123359375,10.26168296875L60.773733359375,10.26168296875L60.773733359375,18.31309296875C60.078373359375,18.834392968750002,58.764153359375,19.731092968749998,57.955233359375,19.731092968749998Z" fill="#000000" fill-opacity="1"/></g><g><path d="M74.196093984375,7.103876242890358L70.255763984375,7.103876242890358L70.255763984375,0.17848624289035797L67.168401984375,0.17848624289035797C66.912376984375,0.17848624289035797,66.704833984375,0.38595424289035796,66.704833984375,0.641878242890358L66.704833984375,22.884686242890357L70.258083984375,22.884686242890357L70.258083984375,10.257286242890357L73.257363984375,10.257286242890357C73.780023984375,10.257286242890357,74.204083984375,10.680086242890358,74.205363984375,11.202586242890359L74.205363984375,22.421286242890357C74.205363984375,22.677186242890357,74.412903984375,22.884686242890357,74.668933984375,22.884686242890357L77.749333984375,22.884686242890357L77.749333984375,11.044986242890358C77.749333984375,8.287836242890357,76.168583984375,7.103876242890358,74.196093984375,7.103876242890358Z" fill="#000000" fill-opacity="1"/></g><g><path d="M47.0380859375,2.0875571118164062C47.0380859375,2.740947111816406,47.2327839375,3.3271371118164064,47.5595999375,3.653827111816406C48.4874159375,4.352007111816406,49.7654959375,4.352007111816406,50.6933159375,3.653827111816406C51.0201359375,3.3271371118164064,51.2148359375,2.740947111816406,51.2148359375,2.0875571118164062C51.2148359375,1.4341771118164062,51.0201359375,0.8479881118164062,50.6933159375,0.5236141118164063C49.7654959375,-0.17456888818359376,48.4874159375,-0.17456888818359376,47.5595999375,0.5236141118164063C47.2327839375,0.8479881118164062,47.0380859375,1.4364971118164063,47.0380859375,2.0875571118164062Z" fill="#FFC800" fill-opacity="1"/></g></g></svg>