<svg xmlns="http://www.w3.org/2000/svg" xmlns:xlink="http://www.w3.org/1999/xlink" fill="none" version="1.1" width="93.4295654296875" height="32" viewBox="0 0 93.4295654296875 32"><g><g><g><rect x="44.17619323730469" y="0.2001953125" width="3.788912534713745" height="24.221359252929688" rx="0" fill="#FFFFFF" fill-opacity="1"/></g><g><path d="M3.78891,0.7043953125L3.78891,24.4190953125L0,24.4190953125L0,0.2001953125L3.28471,0.2001953125C3.564,0.2001953125,3.78891,0.42757931250000003,3.78891,0.7043953125Z" fill="#FFFFFF" fill-opacity="1"/></g><g><path d="M50.49114990234375,8.085114974212647L50.49114990234375,24.419714974212646L54.28005990234375,24.419714974212646L54.28005990234375,7.5809149742126465L50.99535190234375,7.5809149742126465C50.71606390234375,7.5809149742126465,50.49115367365375,7.808298974212646,50.49114990234375,8.085114974212647Z" fill="#FFFFFF" fill-opacity="1"/></g><g><path d="M14.312947618713379,11.957579537506103L14.312947618713379,23.9125595375061C14.312947618713379,24.191859537506105,14.540337618713378,24.416759537506103,14.81714761871338,24.416759537506103L18.101857618713378,24.416759537506103L18.101857618713378,11.787039537506104C18.101857618713378,8.840929537506103,16.41625761871338,7.5779595375061035,14.312947618713379,7.5779595375061035L6.819157618713379,7.5779595375061035C6.539870618713379,7.5779595375061035,6.314957618713379,7.805343537506103,6.314957618713379,8.082158537506103L6.314957618713379,24.416759537506103L10.103867618713378,24.416759537506103L10.103867618713378,10.944229537506104L13.304547618713379,10.944229537506104C13.863127618713378,10.944229537506104,14.31541761871338,11.396529537506103,14.31541761871338,11.955109537506104L14.312947618713379,11.957579537506103Z" fill="#FFFFFF" fill-opacity="1"/></g><g><path d="M25.426903342285158,21.0502953125C24.868323342285155,21.0502953125,24.416023342285158,20.5979953125,24.416023342285158,20.0394953125L24.416023342285158,10.9391953125L27.337423342285156,10.9391953125C27.567273342285155,10.9391953125,27.765003342285155,10.7858953125,27.824323342285155,10.5659953125L28.625103342285158,7.5802953125L24.416023342285158,7.5802953125L24.416023342285158,0.7043953125C24.416023342285158,0.42510831250000003,24.188643342285157,0.2001953125,23.911823342285157,0.2001953125L20.627113342285156,0.2001953125L20.627113342285156,20.2099953125C20.627113342285156,23.1560953125,22.312723342285157,24.4190953125,24.416023342285158,24.4190953125L27.337423342285156,24.4190953125C27.567273342285155,24.4190953125,27.767473342285157,24.2658953125,27.824323342285155,24.0433953125L28.625103342285158,21.0502953125L25.426903342285158,21.0502953125Z" fill="#FFFFFF" fill-opacity="1"/></g><g><path d="M90.23134670166016,21.0502953125C89.67276670166015,21.0502953125,89.22047670166016,20.5979953125,89.22047670166016,20.0394953125L89.22047670166016,10.9391953125L92.14186670166015,10.9391953125C92.37172670166015,10.9391953125,92.56945670166016,10.7858953125,92.62876670166015,10.5659953125L93.42955670166016,7.5802953125L89.22047670166016,7.5802953125L89.22047670166016,0.2001953125L85.93575870166016,0.2001953125C85.65647070166015,0.2001953125,85.43155670166016,0.42757931250000003,85.43155670166016,0.7043953125L85.43155670166016,20.2099953125C85.43155670166016,23.1560953125,87.11716670166015,24.4190953125,89.22046670166016,24.4190953125L92.14185670166016,24.4190953125C92.37171670166016,24.4190953125,92.57190670166015,24.2657953125,92.62875670166015,24.0433953125L93.42954670166016,21.0502953125L90.23134670166016,21.0502953125Z" fill="#FFFFFF" fill-opacity="1"/></g><g><path d="M37.86202846740723,7.5809149742126465L32.624778467407225,7.5809149742126465C32.39739846740723,7.5809149742126465,32.197198467407226,7.734151974212646,32.137878467407226,7.954120974212646L31.334618467407225,10.947184974212647L36.851158467407224,10.947184974212647C37.40972846740723,10.947184974212647,37.86202846740723,11.399484974212646,37.86202846740723,11.958064974212647L37.86202846740723,13.473134974212646L33.65294846740723,13.473134974212646C31.549648467407227,13.473134974212646,29.864038467407227,14.736104974212648,29.864038467407227,17.68221497421265L29.864038467407227,20.265014974212647C29.864038467407227,22.939214974212646,31.917908467407226,24.614914974212645,33.80124846740723,24.614914974212645C36.080028467407224,24.614914974212645,37.392438467407224,23.601614974212648,37.86450846740723,23.129514974212647L37.86450846740723,23.915514974212645C37.86450846740723,24.194814974212647,38.09188846740723,24.419714974212646,38.36869846740723,24.419714974212646L41.65093846740723,24.419714974212646L41.65093846740723,11.789994974212647C41.65093846740723,8.843884974212646,39.96533846740723,7.580913559972647,37.86202846740723,7.5809149742126465ZM37.86202846740723,19.538314974212646C37.12055846740723,20.094414974212647,35.719178467407225,21.053414974212647,34.85660846740723,21.053414974212647C33.81606846740723,21.053414974212647,33.65294846740723,20.527014974212648,33.65294846740723,19.508714974212644L33.65294846740723,17.850314974212644C33.65294846740723,17.294174974212645,34.10524846740723,16.844344974212646,34.663818467407225,16.844344974212646L37.86449846740723,16.844344974212646L37.86449846740723,19.538314974212646L37.86202846740723,19.538314974212646Z" fill="#FFFFFF" fill-opacity="1"/></g><g><path d="M68.59308286132813,8.085114974212647C68.59308286132813,7.805827974212646,68.36568286132812,7.5809149742126465,68.08888286132813,7.5809149742126465L60.595092861328126,7.5809149742126465C58.49179286132812,7.5809149742126465,56.806182861328125,8.843884974212646,56.806182861328125,11.789994974212647L56.806182861328125,20.267514974212645C56.806182861328125,22.941714974212644,58.86005286132813,24.617414974212647,60.743392861328125,24.617414974212647C63.02217286132812,24.617414974212647,64.33458286132813,23.604114974212646,64.80665286132813,23.132014974212645L64.80665286132813,27.425114974212647C64.80665286132813,27.983714974212646,64.35435286132812,28.436014974212647,63.79578286132813,28.436014974212647Q63.23720286132813,28.436014974212647,58.22733286132812,28.238314974212646L59.08744286132813,31.451314974212647C59.14428286132812,31.661414974212647,59.327182861328126,31.812114974212648,59.54468286132813,31.824514974212647C60.44433286132813,31.876414974212647,62.841752861328125,32.00001497421265,64.80665286132813,32.00001497421265C66.90998286132813,32.00001497421265,68.59558286132813,30.737014974212645,68.59558286132813,27.790914974212647C68.59558286132813,27.788414974212646,68.59558286132813,11.177044974212647,68.59558286132813,8.087587974212646L68.59308286132813,8.085114974212647ZM61.798752861328126,21.053414974212647C60.75822286132812,21.053414974212647,60.59510286132812,20.527014974212648,60.59510286132812,19.508714974212644L60.59510286132812,11.955584974212647C60.59510286132812,11.399484974212646,61.04739286132813,10.949664974212647,61.60597286132813,10.949664974212647L64.80665286132813,10.949664974212647L64.80665286132813,19.538314974212646C64.06518286132813,20.094414974212647,62.66380286132812,21.053414974212647,61.80122286132813,21.053414974212647L61.798752861328126,21.053414974212647Z" fill="#FFFFFF" fill-opacity="1"/></g><g><path d="M79.11730039550781,7.5802953125L74.90822039550781,7.5802953125L74.90822039550781,0.2001953125L71.62598239550782,0.2001953125C71.34669439550781,0.2001953125,71.12178039550781,0.42757931250000003,71.12178039550781,0.7043953125L71.12178039550781,24.4190953125L74.91069039550781,24.4190953125L74.91069039550781,10.9465953125L78.1113703955078,10.9465953125C78.66995039550781,10.9465953125,79.12224039550782,11.3988953125,79.12224039550782,11.9573953125L79.12224039550782,23.9123953125C79.12224039550782,24.1916953125,79.34963039550782,24.4165953125,79.62644039550781,24.4165953125L82.91118039550781,24.4165953125L82.91118039550781,11.7868953125C82.91118039550781,8.8407953125,81.22558039550782,7.5778253125,79.12225039550782,7.5778253125L79.11730039550781,7.5802953125Z" fill="#FFFFFF" fill-opacity="1"/></g><g><path d="M50.156982421875,2.22935C50.156982421875,2.92634,50.367067421875,3.55164,50.713085421875,3.90013C51.059102421875,4.24862,51.686882421875,4.45871,52.383862421875,4.45871C53.080842421875,4.45871,53.706152421875004,4.24862,54.054642421875,3.90013C54.403132421875,3.55164,54.610742421875,2.92634,54.610742421875,2.22935C54.610742421875,1.53237,54.400662421875,0.907065,54.054642421875,0.558574C53.708622421875,0.210083,53.080842421875,0,52.383862421875,0C51.686882421875,0,51.061573421875,0.210083,50.713085421875,0.558574C50.364597421875,0.907065,50.156982421875,1.53237,50.156982421875,2.22935Z" fill="#FFC800" fill-opacity="1"/></g></g></g></svg>