<svg xmlns="http://www.w3.org/2000/svg" xmlns:xlink="http://www.w3.org/1999/xlink" fill="none" version="1.1" width="56" height="56" viewBox="0 0 56 56"><g><g></g><g><g><g transform="matrix(0,1,1,0,14,-14)"><path d="M22.02295,0.10000000000000009L17,3L22.02295,5.9L22.02295,3.5L31.9771,3.5L31.9771,5.9L37,3L31.9771,0.10000000000000009L31.9771,2.5L22.02295,2.5L22.02295,0.10000000000000009Z" fill-rule="evenodd" fill="#E8E8E8" fill-opacity="1"/></g><g transform="matrix(1,-2.2348338291067193e-8,2.2348338291067193e-8,1,-2.905283977838735e-7,1.5643836803747035e-7)"><path d="M12.02295,10.1L7,13L12.02295,15.9L12.02295,13.5L21.9771,13.5L21.9771,15.9L27,13L21.9771,10.1L21.9771,12.5L12.02295,12.5L12.02295,10.1Z" fill-rule="evenodd" fill="#E8E8E8" fill-opacity="1"/></g></g><g><g><path d="M38,12.99999423791Q38.3737,13.0149561,38.7459,13.0522389Q39.1181,13.0895218,39.4874,13.148992Q39.856700000000004,13.208463,40.2218,13.289908Q40.5868,13.371353,40.9464,13.474481Q41.3059,13.57761,41.658699999999996,13.702053Q42.011399999999995,13.826495,42.3561,13.971807Q42.7007,14.11712,43.036100000000005,14.28278Q43.3715,14.44844,43.6963,14.63386Q44.0212,14.81927,44.3344,15.02378Q44.6476,15.22829,44.948,15.45116Q45.248400000000004,15.67403,45.5349,15.91447Q45.8214,16.1549,46.0931,16.41204Q46.3647,16.66917,46.6205,16.94209Q46.8763,17.21501,47.115300000000005,17.50273Q47.354299999999995,17.79046,47.5757,18.09196Q47.7971,18.39346,48,18.70766L48,19.48088C48,24.7706,44.0884,29.1467,39,29.8745C38.6713,29.9216,38.3378,29.9533,38,29.9692L38,26.9304C39.164,26.6928,40,25.6689,40,24.4809L40,18.48088C40,17.2929,39.164,16.26899,38,16.031390000000002L38,12.99999423791ZM27,18.70766Q27.20295,18.39346,27.42433,18.09196Q27.64571,17.79046,27.88471,17.50273Q28.12372,17.21501,28.37951,16.94209Q28.63529,16.66917,28.90694,16.41204Q29.17858,16.1549,29.46512,15.91447Q29.751649999999998,15.67403,30.05205,15.45116Q30.35245,15.22829,30.66564,15.02378Q30.978830000000002,14.81927,31.30368,14.63386Q31.62854,14.44844,31.9639,14.28278Q32.299260000000004,14.11712,32.64393,13.971807Q32.98859,13.826495,33.34133,13.702053Q33.694069999999996,13.57761,34.05362,13.474481Q34.41317,13.371353,34.77824,13.289908Q35.143299999999996,13.208463,35.5126,13.148992Q35.8819,13.0895218,36.2541,13.0522389Q36.6263,13.0149561,37,12.99999423791L37,16.031390000000002C35.836,16.26899,35,17.2929,35,18.48088L35,24.4809C35,25.6689,35.836,26.6928,37,26.9304L37,29.9692C36.6622,29.9533,36.3287,29.9216,36,29.8745C30.91156,29.1467,27,24.7706,27,19.48088L27,18.70766ZM26.04304,20.49119Q26.19175,22.22046,26.8543,23.8378Q27.67919,25.851399999999998,29.18992,27.430300000000003Q30.69739,29.0057,32.66842,29.9195Q34.70294,30.8626,36.9532,30.9681L37,30.9703L37,31.0172L37.5,30.9937L38,31.0172L38,30.9703L38.0468,30.9681Q40.2971,30.8626,42.3316,29.9195Q44.3026,29.0057,45.8101,27.430300000000003Q47.3208,25.851399999999998,48.145700000000005,23.8378Q48.8083,22.22046,48.957,20.49119Q49.472899999999996,21.673740000000002,49.7365,22.93676Q50,24.1998,50,25.490000000000002L50,39.489999999999995Q50,39.796800000000005,49.984899999999996,40.103300000000004Q49.969899999999996,40.409800000000004,49.939800000000005,40.715199999999996Q49.9097,41.0206,49.8647,41.3241Q49.8197,41.627700000000004,49.7598,41.9286Q49.6999,42.229600000000005,49.6254,42.5272Q49.550799999999995,42.8249,49.4618,43.1185Q49.372699999999995,43.4122,49.2693,43.7011Q49.1659,43.989999999999995,49.048500000000004,44.2735Q48.9311,44.557,48.7999,44.8344Q48.6687,45.1118,48.524,45.3824Q48.379400000000004,45.6531,48.221599999999995,45.9163Q48.0638,46.1795,47.8934,46.4346Q47.722899999999996,46.6898,47.540099999999995,46.9362Q47.357299999999995,47.1827,47.1626,47.4199Q46.968,47.6571,46.7619,47.8845Q46.555800000000005,48.1118,46.3388,48.3288Q46.1219,48.5458,45.8945,48.7519Q45.667100000000005,48.958,45.4299,49.1526Q45.1927,49.3473,44.946200000000005,49.5301Q44.699799999999996,49.7129,44.4446,49.8834Q44.189499999999995,50.0538,43.9263,50.2116Q43.6631,50.3694,43.3925,50.514Q43.1218,50.6587,42.8444,50.7899Q42.567,50.9211,42.283500000000004,51.0385Q42,51.1559,41.7111,51.2593Q41.422200000000004,51.3627,41.1286,51.4517Q40.8349,51.5408,40.5373,51.6154Q40.239599999999996,51.6899,39.9386,51.7498Q39.6377,51.8097,39.3341,51.8547Q39.0306,51.8997,38.7252,51.9298Q38.4198,51.9599,38.1133,51.9749Q37.8069,51.99,37.5,51.99Q37.1931,51.99,36.8867,51.9749Q36.5802,51.9599,36.2748,51.9298Q35.9694,51.8997,35.6659,51.8547Q35.3623,51.8097,35.0614,51.7498Q34.76041,51.6899,34.46275,51.6154Q34.16509,51.5408,33.87144,51.4517Q33.577799999999996,51.3627,33.28888,51.2593Q32.99996,51.1559,32.71646,51.0385Q32.43296,50.9211,32.15556,50.7899Q31.87816,50.6587,31.60754,50.514Q31.33692,50.3694,31.07372,50.2116Q30.81051,50.0538,30.55537,49.8834Q30.30023,49.7129,30.05376,49.5301Q29.807290000000002,49.3473,29.57008,49.1526Q29.33288,48.958,29.10551,48.7519Q28.87815,48.5458,28.66116,48.3288Q28.44418,48.1118,28.23811,47.8845Q28.03204,47.6571,27.83737,47.4199Q27.6427,47.1827,27.45991,46.9362Q27.27711,46.6898,27.10663,46.4346Q26.93615,46.1795,26.77839,45.9163Q26.62064,45.6531,26.47598,45.3824Q26.33133,45.1118,26.20013,44.8344Q26.06894,44.557,25.951506,44.2735Q25.834076,43.989999999999995,25.730699,43.7011Q25.627322,43.4122,25.538246,43.1185Q25.44917,42.8249,25.374609,42.5272Q25.300049,42.229600000000005,25.240184,41.9286Q25.180319,41.627700000000004,25.135294,41.3241Q25.0902682,41.0206,25.0601909,40.715199999999996Q25.0301136,40.409800000000004,25.0150568,40.103300000000004Q25,39.796800000000005,25,39.489999999999995L25,25.490000000000002Q25,24.1998,25.263538,22.93676Q25.527076,21.673740000000002,26.04304,20.49119ZM37.8,25.9506L37.5,26.0118L37.2,25.9506Q36.6762,25.8437,36.3381,25.4296Q36,25.0155,36,24.4809L36,18.48088Q36,17.94629,36.3381,17.5322Q36.6762,17.1181,37.2,17.01119L37.5,16.94995L37.8,17.01119Q38.3238,17.1181,38.6619,17.5322Q39,17.94629,39,18.48088L39,24.4809Q39,25.0155,38.6619,25.4296Q38.3238,25.8437,37.8,25.9506Z" fill-rule="evenodd" fill="#5E5E5E" fill-opacity="1"/></g><g><path d="M37,26.9402L37,29.979C31.43318,29.7181,27,25.1221,27,19.49072L27,18.00544C29.45309,14.969899999999999,33.09984,13.144535,37,12.9999850931L37,16.04123C35.83602,16.27883,35,17.30274,35,18.49072L35,24.4907C35,25.6787,35.83602,26.7026,37,26.9402Z" fill-rule="evenodd" fill="#FFC800" fill-opacity="1"/></g></g></g></g></svg>