<svg xmlns="http://www.w3.org/2000/svg" xmlns:xlink="http://www.w3.org/1999/xlink" fill="none" version="1.1" width="56" height="56" viewBox="0 0 56 56"><g><g></g><g><g transform="matrix(0,1,1,0,17,-17)"><path d="M25.02295,0.10000000000000009L20,3L25.02295,5.9L25.02295,3.5L34.9771,3.5L34.9771,5.9L40,3L34.9771,0.10000000000000009L34.9771,2.5L25.02295,2.5L25.02295,0.10000000000000009Z" fill-rule="evenodd" fill="#E8E8E8" fill-opacity="1"/></g><g><g><path d="M38,13.00990549661496Q38.3737,13.02486735870496,38.7459,13.062150158704961Q39.1181,13.09943305870496,39.4874,13.15890325870496Q39.856700000000004,13.21837425870496,40.2218,13.29981925870496Q40.5868,13.38126425870496,40.9464,13.484392258704961Q41.3059,13.58752125870496,41.658699999999996,13.71196425870496Q42.011399999999995,13.83640625870496,42.3561,13.98171825870496Q42.7007,14.12703125870496,43.036100000000005,14.292691258704961Q43.3715,14.45835125870496,43.6963,14.64377125870496Q44.0212,14.82918125870496,44.3344,15.03369125870496Q44.6476,15.23820125870496,44.948,15.46107125870496Q45.248400000000004,15.68394125870496,45.5349,15.92438125870496Q45.8214,16.16481125870496,46.0931,16.42195125870496Q46.3647,16.67908125870496,46.6205,16.95200125870496Q46.8763,17.22492125870496,47.115300000000005,17.51264125870496Q47.354299999999995,17.80037125870496,47.5757,18.10187125870496Q47.7971,18.40337125870496,48,18.71757125870496L48,19.49079125870496C48,24.780511258704962,44.0884,29.15661125870496,39,29.88441125870496C38.6713,29.931511258704962,38.3378,29.96321125870496,38,29.97911125870496L38,26.94031125870496C39.164,26.70271125870496,40,25.67881125870496,40,24.49081125870496L40,18.49079125870496C40,17.30281125870496,39.164,16.27890125870496,38,16.041301258704962L38,13.00990549661496ZM27,18.71757125870496Q27.20295,18.40337125870496,27.42433,18.10187125870496Q27.64571,17.80037125870496,27.88471,17.51264125870496Q28.12372,17.22492125870496,28.37951,16.95200125870496Q28.63529,16.67908125870496,28.90694,16.42195125870496Q29.17858,16.16481125870496,29.46512,15.92438125870496Q29.751649999999998,15.68394125870496,30.05205,15.46107125870496Q30.35245,15.23820125870496,30.66564,15.03369125870496Q30.978830000000002,14.82918125870496,31.30368,14.64377125870496Q31.62854,14.45835125870496,31.9639,14.292691258704961Q32.299260000000004,14.12703125870496,32.64393,13.98171825870496Q32.98859,13.83640625870496,33.34133,13.71196425870496Q33.694069999999996,13.58752125870496,34.05362,13.484392258704961Q34.41317,13.38126425870496,34.77824,13.29981925870496Q35.143299999999996,13.21837425870496,35.5126,13.15890325870496Q35.8819,13.09943305870496,36.2541,13.062150158704961Q36.6263,13.02486735870496,37,13.00990549661496L37,16.041301258704962C35.836,16.27890125870496,35,17.30281125870496,35,18.49079125870496L35,24.49081125870496C35,25.67881125870496,35.836,26.70271125870496,37,26.94031125870496L37,29.97911125870496C36.6622,29.96321125870496,36.3287,29.931511258704962,36,29.88441125870496C30.91156,29.15661125870496,27,24.780511258704962,27,19.49079125870496L27,18.71757125870496ZM26.04304,20.50110125870496Q26.19175,22.23037125870496,26.8543,23.847711258704962Q27.67919,25.86131125870496,29.18992,27.440211258704963Q30.69739,29.01561125870496,32.66842,29.92941125870496Q34.70294,30.87251125870496,36.9532,30.97801125870496L37,30.980211258704962L37,31.02711125870496L37.5,31.00361125870496L38,31.02711125870496L38,30.980211258704962L38.0468,30.97801125870496Q40.2971,30.87251125870496,42.3316,29.92941125870496Q44.3026,29.01561125870496,45.8101,27.440211258704963Q47.3208,25.86131125870496,48.145700000000005,23.847711258704962Q48.8083,22.23037125870496,48.957,20.50110125870496Q49.472899999999996,21.683651258704963,49.7365,22.94667125870496Q50,24.20971125870496,50,25.499911258704962L50,39.499911258704955Q50,39.806711258704965,49.984899999999996,40.113211258704965Q49.969899999999996,40.419711258704965,49.939800000000005,40.725111258704956Q49.9097,41.03051125870496,49.8647,41.33401125870496Q49.8197,41.637611258704965,49.7598,41.93851125870496Q49.6999,42.239511258704965,49.6254,42.53711125870496Q49.550799999999995,42.83481125870496,49.4618,43.12841125870496Q49.372699999999995,43.42211125870496,49.2693,43.71101125870496Q49.1659,43.999911258704955,49.048500000000004,44.28341125870496Q48.9311,44.56691125870496,48.7999,44.84431125870496Q48.6687,45.12171125870496,48.524,45.39231125870496Q48.379400000000004,45.66301125870496,48.221599999999995,45.92621125870496Q48.0638,46.18941125870496,47.8934,46.44451125870496Q47.722899999999996,46.69971125870496,47.540099999999995,46.94611125870496Q47.357299999999995,47.19261125870496,47.1626,47.42981125870496Q46.968,47.66701125870496,46.7619,47.89441125870496Q46.555800000000005,48.12171125870496,46.3388,48.33871125870496Q46.1219,48.55571125870496,45.8945,48.76181125870496Q45.667100000000005,48.96791125870496,45.4299,49.16251125870496Q45.1927,49.35721125870496,44.946200000000005,49.54001125870496Q44.699799999999996,49.72281125870496,44.4446,49.89331125870496Q44.189499999999995,50.06371125870496,43.9263,50.22151125870496Q43.6631,50.37931125870496,43.3925,50.52391125870496Q43.1218,50.66861125870496,42.8444,50.79981125870496Q42.567,50.93101125870496,42.283500000000004,51.04841125870496Q42,51.16581125870496,41.7111,51.26921125870496Q41.422200000000004,51.37261125870496,41.1286,51.46161125870496Q40.8349,51.55071125870496,40.5373,51.62531125870496Q40.239599999999996,51.69981125870496,39.9386,51.75971125870496Q39.6377,51.81961125870496,39.3341,51.86461125870496Q39.0306,51.90961125870496,38.7252,51.93971125870496Q38.4198,51.96981125870496,38.1133,51.98481125870496Q37.8069,51.99991125870496,37.5,51.99991125870496Q37.1931,51.99991125870496,36.8867,51.98481125870496Q36.5802,51.96981125870496,36.2748,51.93971125870496Q35.9694,51.90961125870496,35.6659,51.86461125870496Q35.3623,51.81961125870496,35.0614,51.75971125870496Q34.76041,51.69981125870496,34.46275,51.62531125870496Q34.16509,51.55071125870496,33.87144,51.46161125870496Q33.577799999999996,51.37261125870496,33.28888,51.26921125870496Q32.99996,51.16581125870496,32.71646,51.04841125870496Q32.43296,50.93101125870496,32.15556,50.79981125870496Q31.87816,50.66861125870496,31.60754,50.52391125870496Q31.33692,50.37931125870496,31.07372,50.22151125870496Q30.81051,50.06371125870496,30.55537,49.89331125870496Q30.30023,49.72281125870496,30.05376,49.54001125870496Q29.807290000000002,49.35721125870496,29.57008,49.16251125870496Q29.33288,48.96791125870496,29.10551,48.76181125870496Q28.87815,48.55571125870496,28.66116,48.33871125870496Q28.44418,48.12171125870496,28.23811,47.89441125870496Q28.03204,47.66701125870496,27.83737,47.42981125870496Q27.6427,47.19261125870496,27.45991,46.94611125870496Q27.27711,46.69971125870496,27.10663,46.44451125870496Q26.93615,46.18941125870496,26.77839,45.92621125870496Q26.62064,45.66301125870496,26.47598,45.39231125870496Q26.33133,45.12171125870496,26.20013,44.84431125870496Q26.06894,44.56691125870496,25.951506,44.28341125870496Q25.834076,43.999911258704955,25.730699,43.71101125870496Q25.627322,43.42211125870496,25.538246,43.12841125870496Q25.44917,42.83481125870496,25.374609,42.53711125870496Q25.300049,42.239511258704965,25.240184,41.93851125870496Q25.180319,41.637611258704965,25.135294,41.33401125870496Q25.0902682,41.03051125870496,25.0601909,40.725111258704956Q25.0301136,40.419711258704965,25.0150568,40.113211258704965Q25,39.806711258704965,25,39.499911258704955L25,25.499911258704962Q25,24.20971125870496,25.263538,22.94667125870496Q25.527076,21.683651258704963,26.04304,20.50110125870496ZM37.8,25.960511258704962L37.5,26.02171125870496L37.2,25.960511258704962Q36.6762,25.85361125870496,36.3381,25.43951125870496Q36,25.02541125870496,36,24.49081125870496L36,18.49079125870496Q36,17.95620125870496,36.3381,17.54211125870496Q36.6762,17.12801125870496,37.2,17.02110125870496L37.5,16.95986125870496L37.8,17.02110125870496Q38.3238,17.12801125870496,38.6619,17.54211125870496Q39,17.95620125870496,39,18.49079125870496L39,24.49081125870496Q39,25.02541125870496,38.6619,25.43951125870496Q38.3238,25.85361125870496,37.8,25.960511258704962Z" fill-rule="evenodd" fill="#5E5E5E" fill-opacity="1"/></g><g transform="matrix(-1,0,0,1,96,0)"><path d="M58,26.9402L58,29.979C52.43318,29.7181,48,25.1221,48,19.49072L48,18.00544C50.45309,14.969899999999999,54.09984,13.144535,58,12.9999850931L58,16.04123C56.83602,16.27883,56,17.30274,56,18.49072L56,24.4907C56,25.6787,56.83602,26.7026,58,26.9402Z" fill-rule="evenodd" fill="#FFC800" fill-opacity="1"/></g></g></g></g></svg>