<svg xmlns="http://www.w3.org/2000/svg" xmlns:xlink="http://www.w3.org/1999/xlink" fill="none" version="1.1" width="22.030517578125" height="22.627197265625" viewBox="0 0 22.030517578125 22.627197265625"><defs><filter id="master_svg0_1085_01818/764_01976" filterUnits="objectBoundingBox" color-interpolation-filters="sRGB" x="-3" y="-3" width="24.03050422668457" height="24.627317428588867"><feFlood flood-opacity="0" result="BackgroundImageFix"/><feColorMatrix in="SourceAlpha" type="matrix" values="0 0 0 0 0 0 0 0 0 0 0 0 0 0 0 0 0 0 127 0"/><feOffset dy="1" dx="1"/><feGaussianBlur stdDeviation="1"/><feColorMatrix type="matrix" values="0 0 0 0 0 0 0 0 0 0 0 0 0 0 0 0 0 0 0.800000011920929 0"/><feBlend mode="normal" in2="BackgroundImageFix" result="effect1_dropShadow"/><feBlend mode="normal" in="SourceGraphic" in2="effect1_dropShadow" result="shape"/></filter></defs><g filter="url(#master_svg0_1085_01818/764_01976)"><path d="M12.3833,2L13.3244,2L13.3244,2.941131L12.3833,2.941131L12.3833,2ZM15.6722,7.85803C15.6342,7.80511,15.6216,7.73812,15.6376,7.67498L16.3689,4.789960000000001L16.377200000000002,4.75705L16.5888,3.92234C16.6083,3.8455500000000002,16.5851,3.7641999999999998,16.528100000000002,3.7091700000000003C16.4712,3.65414,16.3891,3.63384,16.313000000000002,3.65597L15.4862,3.89656L15.4536,3.90605L12.5959,4.73762C12.5333,4.75582,12.4659,4.74549,12.4117,4.7093799999999995L9.86726,3.01497L9.822420000000001,2.985116L9.103760000000001,2.5065429999999997C9.035730000000001,2.461243,8.94825,2.457208,8.876339999999999,2.496053C8.80444,2.5348990000000002,8.75985,2.610276,8.760449999999999,2.692004L8.766729999999999,3.55542L8.76712,3.60929L8.78866,6.57185C8.78915,6.63978,8.75837,6.70415,8.70518,6.74641L6.42502,8.55783L6.39286,8.58338L5.71793,9.11956C5.65513,9.169450000000001,5.6243099999999995,9.24946,5.63741,9.328579999999999C5.6505,9.40771,5.70546,9.47352,5.78099,9.50052L6.59269,9.79062L6.63136,9.80444L9.518930000000001,10.83647C9.57872,10.85784,9.62643,10.90391,9.64987,10.96292L10.78204,13.8127L10.7972,13.8509L11.11545,14.652C11.14506,14.7265,11.21275,14.7792,11.29229,14.7895C11.37182,14.7998,11.45071,14.7662,11.49837,14.7017L12.0107,14.0085L12.0351,13.9755L13.7658,11.63345C13.8062,11.57882,13.8694,11.5458,13.9373,11.54392L16.8988,11.46206L16.9527,11.46057L17.8158,11.43671C17.8975,11.43445,17.9712,11.38727,18.0075,11.31404C18.0439,11.24083,18.0368,11.15354,17.9891,11.08713L17.485799999999998,10.3856L17.4544,10.34183L15.6722,7.85803ZM6.26562,5.293950000000001L7.20675,5.293950000000001L7.20675,6.23508L6.26562,6.23508L6.26562,5.293950000000001ZM17.088900000000002,7.17627L18.03,7.17627L18.03,8.1174L17.088900000000002,8.1174L17.088900000000002,7.17627ZM2.468615,16.361C1.883635,16.8396,1.839791,17.7187,2.374243,18.2531C2.908694,18.7876,3.78776,18.7437,4.26638,18.1587L9.06373,12.2953C9.232890000000001,12.0885,9.21786,11.78721,9.028970000000001,11.59832C8.84008,11.40942,8.538789999999999,11.3944,8.33204,11.56356L2.468615,16.361ZM14.7358,12.8232L15.677,12.8232L15.677,13.7644L14.7358,13.7644L14.7358,12.8232Z" fill-rule="evenodd" fill="#679EFF" fill-opacity="1"/></g></svg>