<svg xmlns="http://www.w3.org/2000/svg" xmlns:xlink="http://www.w3.org/1999/xlink" fill="none" version="1.1" width="16" height="16" viewBox="0 0 16 16"><defs><clipPath id="master_svg0_4_2572"><rect x="0" y="0" width="16" height="16" rx="0"/></clipPath></defs><g clip-path="url(#master_svg0_4_2572)"><g><path d="M7.9996778125,14.6663078125C4.3176778124999995,14.6663078125,1.3330078125,11.6817078125,1.3330078125,7.9996778125C1.3330078125,4.3176778124999995,4.3176778124999995,1.3330078125,7.9996778125,1.3330078125C11.6817078125,1.3330078125,14.6663078125,4.3176778124999995,14.6663078125,7.9996778125C14.6663078125,11.6817078125,11.6817078125,14.6663078125,7.9996778125,14.6663078125ZM6.4730078125,13.1110078125C5.8152878125,11.7159078125,5.4342578125,10.2064878125,5.3510078125,8.6663378125L2.7076778125,8.6663378125C2.9727178125,10.7624478125,4.4489778125,12.5050078125,6.4730078125,13.1110078125ZM6.6863378125,8.6663378125C6.7870078125,10.2923378125,7.2516778125,11.8197078125,7.9996778125,13.1677078125C8.7678878125,11.7840078125,9.2166378125,10.2459978125,9.3130078125,8.6663378125L6.6863378125,8.6663378125ZM13.2917078125,8.6663378125L10.6483378125,8.6663378125C10.5650978125,10.2064878125,10.1840678125,11.7159078125,9.5263378125,13.1110078125C11.5504078125,12.5050078125,13.0266078125,10.7624478125,13.2917078125,8.6663378125ZM2.7076778125,7.3330078125L5.3510078125,7.3330078125C5.4342578125,5.7928678125,5.8152878125,4.2834678125,6.4730078125,2.8883378125C4.4489778125,3.4942978125,2.9727178125,5.2369078125,2.7076778125,7.3330078125ZM6.6870078125,7.3330078125L9.312337812500001,7.3330078125C9.2161778125,5.7534078125,8.767657812500001,4.215357812500001,7.9996778125,2.8316778124999997C7.2314578125,4.2153078125,6.7827078125,5.7533578125,6.6863378125,7.3330078125L6.6870078125,7.3330078125ZM9.5263378125,2.8883378125C10.1840678125,4.2834678125,10.5650978125,5.7928678125,10.6483378125,7.3330078125L13.2917078125,7.3330078125C13.0266078125,5.2369078125,11.5504078125,3.4942978125,9.5263378125,2.8883378125Z" fill="#D8D8D8" fill-opacity="1"/></g></g></svg>