<svg xmlns="http://www.w3.org/2000/svg" xmlns:xlink="http://www.w3.org/1999/xlink" fill="none" version="1.1" width="18.21429443359375" height="16.588134765625" viewBox="0 0 18.21429443359375 16.588134765625"><g><path d="M0,1.86974L0,0.5Q0,0.450754,0.00960736,0.402455Q0.0192147,0.354155,0.0380602,0.308658Q0.0569057,0.263161,0.0842652,0.222215Q0.111625,0.181269,0.146447,0.146447Q0.181269,0.111625,0.222215,0.0842652Q0.263161,0.0569057,0.308658,0.0380602Q0.354155,0.0192147,0.402455,0.00960736Q0.450754,0,0.5,0L17.7143,0Q17.7635,0,17.8118,0.00960736Q17.8601,0.0192147,17.9056,0.0380602Q17.9511,0.0569057,17.9921,0.0842652Q18.033,0.111625,18.0678,0.146447Q18.1027,0.181269,18.13,0.222215Q18.1574,0.263161,18.1762,0.308658Q18.1951,0.354155,18.2047,0.402455Q18.2143,0.450754,18.2143,0.5L18.2143,1.86974Q18.2143,1.91899,18.2047,1.96728Q18.1951,2.01558,18.1762,2.06108Q18.1574,2.10658,18.13,2.14753Q18.1027,2.18847,18.0678,2.22329Q18.033,2.25812,17.9921,2.28547Q17.9511,2.31283,17.9056,2.33168Q17.8601,2.35053,17.8118,2.36013Q17.7635,2.36974,17.7143,2.36974L0.5,2.36974Q0.450754,2.36974,0.402455,2.36013Q0.354155,2.35053,0.308658,2.33168Q0.263161,2.31283,0.222215,2.28547Q0.181269,2.25812,0.146447,2.22329Q0.111625,2.18847,0.0842652,2.14753Q0.0569057,2.10658,0.0380602,2.06108Q0.0192147,2.01558,0.00960736,1.96728Q0,1.91899,0,1.86974ZM0,8.97887L0,7.60913Q0,7.55989,0.00960736,7.51159Q0.0192147,7.46329,0.0380602,7.41779Q0.0569057,7.37229,0.0842652,7.33134Q0.111625,7.2904,0.146447,7.25558Q0.181269,7.22075,0.222215,7.1934Q0.263161,7.16604,0.308658,7.14719Q0.354155,7.12835,0.402455,7.11874Q0.450754,7.10913,0.5,7.10913L17.7143,7.10913Q17.7635,7.10913,17.8118,7.11874Q17.8601,7.12835,17.9056,7.14719Q17.9511,7.16604,17.9921,7.1934Q18.033,7.22075,18.0678,7.25558Q18.1027,7.2904,18.13,7.33134Q18.1574,7.37229,18.1762,7.41779Q18.1951,7.46329,18.2047,7.51159Q18.2143,7.55989,18.2143,7.60913L18.2143,8.97887Q18.2143,9.02812,18.2047,9.07642Q18.1951,9.12471,18.1762,9.17021Q18.1574,9.21571,18.13,9.25666Q18.1027,9.2976,18.0678,9.33242Q18.033,9.36724,17.9921,9.39461Q17.9511,9.42196,17.9056,9.44081Q17.8601,9.45965,17.8118,9.46926Q17.7635,9.47887,17.7143,9.47887L0.5,9.47887Q0.450754,9.47887,0.402455,9.46926Q0.354155,9.45965,0.308658,9.44081Q0.263161,9.42196,0.222215,9.3946Q0.181269,9.36724,0.146447,9.33242Q0.111625,9.2976,0.0842652,9.25666Q0.0569057,9.21571,0.0380602,9.17021Q0.0192147,9.12471,0.00960736,9.07642Q0,9.02812,0,8.97887ZM0,16.0882L0,14.7185Q0,14.6693,0.00960736,14.621Q0.0192147,14.5727,0.0380602,14.5272Q0.0569057,14.4817,0.0842652,14.4407Q0.111625,14.3998,0.146447,14.365Q0.181269,14.3301,0.222215,14.3028Q0.263161,14.2754,0.308658,14.2566Q0.354155,14.2377,0.402455,14.2281Q0.450754,14.2185,0.5,14.2185L17.7143,14.2185Q17.7635,14.2185,17.8118,14.2281Q17.8601,14.2377,17.9056,14.2566Q17.9511,14.2754,17.9921,14.3028Q18.033,14.3301,18.0678,14.365Q18.1027,14.3998,18.13,14.4407Q18.1574,14.4817,18.1762,14.5272Q18.1951,14.5727,18.2047,14.621Q18.2143,14.6693,18.2143,14.7185L18.2143,16.0882Q18.2143,16.1375,18.2047,16.1858Q18.1951,16.2341,18.1762,16.2796Q18.1574,16.3251,18.13,16.366Q18.1027,16.407,18.0678,16.4418Q18.033,16.4766,17.9921,16.504Q17.9511,16.5313,17.9056,16.5502Q17.8601,16.569,17.8118,16.5786Q17.7635,16.5882,17.7143,16.5882L0.5,16.5882Q0.450754,16.5882,0.402455,16.5786Q0.354155,16.569,0.308658,16.5502Q0.263161,16.5313,0.222215,16.504Q0.181269,16.4766,0.146447,16.4418Q0.111625,16.407,0.0842652,16.366Q0.0569057,16.3251,0.0380602,16.2796Q0.0192147,16.2341,0.00960736,16.1858Q0,16.1375,0,16.0882Z" fill="#E2E2E2" fill-opacity="1"/></g></svg>