<svg xmlns="http://www.w3.org/2000/svg" xmlns:xlink="http://www.w3.org/1999/xlink" fill="none" version="1.1" width="17.9998779296875" height="17.999755859375" viewBox="0 0 17.9998779296875 17.999755859375"><g><path d="M7.17451,14.349Q7.49886,14.349,7.8219,14.3197Q8.14493,14.2905,8.46401,14.2322Q8.78309,14.1739,9.0956,14.087Q9.40811,14.0002,9.71152,13.8855Q10.0149,13.7708,10.3067,13.6292Q10.5985,13.4876,10.8764,13.3202Q11.1542,13.1528,11.4158,12.9611Q11.6775,12.7693,11.9207,12.5548L17.3657,17.9998L17.9998,17.3656L12.5548,11.9206Q12.7694,11.6774,12.9611,11.4158Q13.1529,11.1542,13.3202,10.8763Q13.4876,10.5985,13.6292,10.3067Q13.7708,10.0149,13.8855,9.71146Q14.0002,9.40807,14.087,9.09556Q14.1739,8.78305,14.2322,8.46398Q14.2905,8.14491,14.3197,7.82189Q14.349,7.49886,14.349,7.17451Q14.349,6.99838,14.3404,6.82247Q14.3317,6.64656,14.3145,6.47128Q14.2972,6.29601,14.2714,6.12179Q14.2455,5.94757,14.2112,5.77483Q14.1768,5.60209,14.134,5.43124Q14.0912,5.2604,14.0401,5.09186Q13.989,4.92332,13.9296,4.75749Q13.8703,4.59166,13.8029,4.42894Q13.7355,4.26622,13.6602,4.10701Q13.5849,3.94779,13.5019,3.79247Q13.4188,3.63714,13.3283,3.48607Q13.2377,3.33501,13.1399,3.18856Q13.042,3.04212,12.9371,2.90066Q12.8322,2.75919,12.7205,2.62305Q12.6087,2.4869,12.4905,2.3564Q12.3722,2.2259,12.2476,2.10136Q12.1231,1.97683,11.9926,1.85855Q11.8621,1.74027,11.726,1.62854Q11.5898,1.51681,11.4484,1.41189Q11.3069,1.30697,11.1604,1.20912Q11.014,1.11127,10.8629,1.02073Q10.7119,0.930181,10.5565,0.847157Q10.4012,0.764132,10.242,0.688829Q10.0828,0.613527,9.92007,0.546127Q9.75735,0.478727,9.59152,0.419392Q9.4257,0.360058,9.25716,0.308932Q9.08861,0.257806,8.91777,0.215011Q8.74692,0.172216,8.57418,0.137856Q8.40144,0.103496,8.22722,0.0776532Q8.05301,0.0518104,7.87773,0.0345472Q7.70245,0.017284,7.52654,0.00864201Q7.35063,0,7.17451,0Q6.99838,0,6.82247,0.00864201Q6.64656,0.017284,6.47128,0.0345472Q6.29601,0.0518104,6.12179,0.0776532Q5.94757,0.103496,5.77483,0.137856Q5.60209,0.172216,5.43124,0.215011Q5.2604,0.257806,5.09186,0.308932Q4.92332,0.360058,4.75749,0.419392Q4.59166,0.478727,4.42894,0.546127Q4.26622,0.613527,4.10701,0.688829Q3.94779,0.764132,3.79247,0.847157Q3.63714,0.930181,3.48607,1.02073Q3.33501,1.11127,3.18856,1.20912Q3.04212,1.30697,2.90066,1.41189Q2.75919,1.51681,2.62305,1.62854Q2.4869,1.74027,2.3564,1.85855Q2.2259,1.97683,2.10136,2.10136Q1.97683,2.2259,1.85855,2.3564Q1.74027,2.4869,1.62854,2.62305Q1.51681,2.75919,1.41189,2.90066Q1.30697,3.04212,1.20912,3.18856Q1.11127,3.33501,1.02073,3.48607Q0.930181,3.63714,0.847157,3.79247Q0.764132,3.94779,0.688829,4.10701Q0.613527,4.26622,0.546127,4.42894Q0.478727,4.59166,0.419392,4.75749Q0.360058,4.92332,0.308932,5.09186Q0.257806,5.2604,0.215011,5.43124Q0.172216,5.60209,0.137856,5.77483Q0.103496,5.94757,0.0776532,6.12179Q0.0518104,6.29601,0.0345472,6.47128Q0.017284,6.64656,0.00864201,6.82247Q0,6.99838,0,7.17451Q0,7.35063,0.00864201,7.52654Q0.017284,7.70245,0.0345472,7.87773Q0.0518104,8.05301,0.0776532,8.22722Q0.103496,8.40144,0.137856,8.57418Q0.172216,8.74692,0.215011,8.91777Q0.257806,9.08861,0.308932,9.25715Q0.360058,9.4257,0.419392,9.59152Q0.478727,9.75735,0.546127,9.92007Q0.613527,10.0828,0.688829,10.242Q0.764132,10.4012,0.847157,10.5565Q0.930181,10.7119,1.02073,10.8629Q1.11127,11.014,1.20912,11.1604Q1.30697,11.3069,1.41189,11.4484Q1.51681,11.5898,1.62854,11.726Q1.74027,11.8621,1.85855,11.9926Q1.97683,12.1231,2.10136,12.2476Q2.2259,12.3722,2.3564,12.4905Q2.4869,12.6087,2.62305,12.7205Q2.75919,12.8322,2.90066,12.9371Q3.04212,13.042,3.18856,13.1399Q3.33501,13.2377,3.48607,13.3283Q3.63714,13.4188,3.79247,13.5019Q3.94779,13.5849,4.10701,13.6602Q4.26622,13.7355,4.42894,13.8029Q4.59166,13.8703,4.75749,13.9296Q4.92332,13.989,5.09186,14.0401Q5.2604,14.0912,5.43124,14.134Q5.60209,14.1768,5.77483,14.2112Q5.94757,14.2455,6.12179,14.2714Q6.29601,14.2972,6.47128,14.3145Q6.64656,14.3317,6.82247,14.3404Q6.99838,14.349,7.17451,14.349ZM7.17442,13.4524Q7.32853,13.4524,7.48245,13.4448Q7.63638,13.4372,7.78974,13.4221Q7.94311,13.407,8.09555,13.3844Q8.24799,13.3618,8.39914,13.3317Q8.55028,13.3017,8.69977,13.2642Q8.84926,13.2268,8.99674,13.182Q9.14421,13.1373,9.28931,13.0854Q9.43441,13.0335,9.57679,12.9745Q9.71917,12.9155,9.85848,12.8496Q9.99779,12.7837,10.1337,12.7111Q10.2696,12.6384,10.4018,12.5592Q10.534,12.48,10.6621,12.3944Q10.7903,12.3088,10.914,12.217Q11.0378,12.1252,11.1569,12.0274Q11.2761,11.9296,11.3903,11.8261Q11.5044,11.7226,11.6134,11.6137Q11.7224,11.5047,11.8259,11.3905Q11.9294,11.2763,12.0271,11.1572Q12.1249,11.0381,12.2167,10.9143Q12.3085,10.7905,12.3941,10.6624Q12.4797,10.5342,12.559,10.402Q12.6382,10.2699,12.7109,10.1339Q12.7835,9.99804,12.8494,9.85872Q12.9153,9.71941,12.9743,9.57703Q13.0332,9.43465,13.0851,9.28955Q13.1371,9.14445,13.1818,8.99698Q13.2265,8.84951,13.264,8.70002Q13.3014,8.55053,13.3315,8.39938Q13.3616,8.24823,13.3842,8.09579Q13.4068,7.94335,13.4219,7.78999Q13.437,7.63662,13.4446,7.4827Q13.4521,7.32877,13.4521,7.17467Q13.4521,7.02056,13.4446,6.86663Q13.437,6.71271,13.4219,6.55934Q13.4068,6.40598,13.3842,6.25354Q13.3616,6.1011,13.3315,5.94995Q13.3014,5.7988,13.264,5.64931Q13.2265,5.49982,13.1818,5.35235Q13.1371,5.20487,13.0851,5.05977Q13.0332,4.91467,12.9743,4.7723Q12.9153,4.62992,12.8494,4.49061Q12.7835,4.35129,12.7109,4.21538Q12.6382,4.07947,12.559,3.94729Q12.4797,3.8151,12.3941,3.68697Q12.3085,3.55883,12.2167,3.43505Q12.1249,3.31127,12.0271,3.19214Q11.9294,3.07301,11.8259,2.95882Q11.7224,2.84464,11.6134,2.73567Q11.5044,2.62669,11.3903,2.5232Q11.2761,2.41971,11.1569,2.32194Q11.0378,2.22418,10.914,2.13238Q10.7903,2.04057,10.6621,1.95495Q10.534,1.86934,10.4018,1.79011Q10.2696,1.71088,10.1337,1.63823Q9.99779,1.56559,9.85848,1.4997Q9.71917,1.43381,9.57679,1.37483Q9.43441,1.31586,9.28931,1.26394Q9.14421,1.21202,8.99674,1.16729Q8.84927,1.12255,8.69977,1.08511Q8.55028,1.04766,8.39914,1.0176Q8.24799,0.987532,8.09555,0.964919Q7.94311,0.942307,7.78974,0.927202Q7.63638,0.912096,7.48245,0.904534Q7.32853,0.896973,7.17442,0.896973Q7.02031,0.896973,6.86639,0.904534Q6.71247,0.912096,6.5591,0.927202Q6.40573,0.942307,6.25329,0.964919Q6.10085,0.987532,5.9497,1.0176Q5.79856,1.04766,5.64907,1.08511Q5.49958,1.12255,5.3521,1.16729Q5.20463,1.21202,5.05953,1.26394Q4.91443,1.31586,4.77205,1.37483Q4.62967,1.43381,4.49036,1.4997Q4.35105,1.56559,4.21514,1.63823Q4.07923,1.71088,3.94704,1.79011Q3.81486,1.86934,3.68672,1.95495Q3.55859,2.04057,3.4348,2.13238Q3.31102,2.22418,3.1919,2.32194Q3.07277,2.41971,2.95858,2.5232Q2.84439,2.62669,2.73542,2.73567Q2.62645,2.84464,2.52296,2.95882Q2.41946,3.07301,2.3217,3.19214Q2.22393,3.31127,2.13213,3.43505Q2.04033,3.55883,1.95471,3.68697Q1.86909,3.8151,1.78986,3.94729Q1.71064,4.07947,1.63799,4.21538Q1.56534,4.35129,1.49945,4.49061Q1.43356,4.62992,1.37459,4.7723Q1.31561,4.91467,1.2637,5.05977Q1.21178,5.20487,1.16704,5.35235Q1.12231,5.49982,1.08486,5.64931Q1.04742,5.7988,1.01735,5.94995Q0.987287,6.1011,0.964675,6.25354Q0.942063,6.40598,0.926957,6.55934Q0.911852,6.71271,0.90429,6.86663Q0.896729,7.02056,0.896729,7.17467Q0.896729,7.32877,0.90429,7.4827Q0.911852,7.63662,0.926957,7.78999Q0.942063,7.94335,0.964675,8.09579Q0.987287,8.24823,1.01735,8.39938Q1.04742,8.55053,1.08486,8.70002Q1.12231,8.84951,1.16704,8.99698Q1.21178,9.14446,1.2637,9.28955Q1.31561,9.43465,1.37459,9.57703Q1.43356,9.71941,1.49945,9.85872Q1.56534,9.99804,1.63799,10.1339Q1.71064,10.2699,1.78986,10.402Q1.86909,10.5342,1.95471,10.6624Q2.04033,10.7905,2.13213,10.9143Q2.22393,11.0381,2.3217,11.1572Q2.41946,11.2763,2.52296,11.3905Q2.62645,11.5047,2.73542,11.6137Q2.84439,11.7226,2.95858,11.8261Q3.07277,11.9296,3.1919,12.0274Q3.31102,12.1252,3.4348,12.217Q3.55858,12.3088,3.68672,12.3944Q3.81486,12.48,3.94704,12.5592Q4.07923,12.6384,4.21514,12.7111Q4.35105,12.7837,4.49036,12.8496Q4.62967,12.9155,4.77205,12.9745Q4.91443,13.0335,5.05953,13.0854Q5.20463,13.1373,5.3521,13.182Q5.49958,13.2268,5.64907,13.2642Q5.79856,13.3017,5.9497,13.3317Q6.10085,13.3618,6.25329,13.3844Q6.40573,13.407,6.5591,13.4221Q6.71247,13.4372,6.86639,13.4448Q7.02031,13.4524,7.17442,13.4524ZM7.6499,2.69995L7.6499,5.08228L9.9,5.08228L9.9,6.03522L7.6499,6.03522L7.6499,8.4176L6.7499,8.4176L6.7499,6.03522L4.5,6.03522L4.5,5.08228L6.7499,5.08228L6.7499,2.69995L7.6499,2.69995ZM4.5,9.84717L9.9,9.84717L9.9,10.8001L4.5,10.8001L4.5,9.84717Z" fill-rule="evenodd" fill="#E2E2E2" fill-opacity="1"/></g></svg>