<svg xmlns="http://www.w3.org/2000/svg" xmlns:xlink="http://www.w3.org/1999/xlink" fill="none" version="1.1" width="17" height="18.507047653198242" viewBox="0 0 17 18.507047653198242"><g transform="matrix(-1,0,0,1,32,0)"><path d="M23.28799,0Q25.1417,0,25.40475,1.712245Q26.011699999999998,1.349914,26.9728,1.5339040000000002L27.044800000000002,1.547504Q29.0794,1.935841,28.794600000000003,4.07843L28.3191,7.65127Q28.863599999999998,7.13676,29.6329,7.0828Q30.551099999999998,7.01839,31.235300000000002,7.64549Q32.769,9.04116,31.5794,10.76601L29.061700000000002,14.4209Q28.111,15.9303,26.988799999999998,17.0137Q25.55258,18.3996,22.95643,18.5005Q20.58342,18.5928,19.3016,17.6662Q17.9668,16.7012,17.36469,15.0842Q17.3096,14.9363,17.28104,14.8617Q17.26737,14.8259,17.25646,14.7893L17.25635,14.7889L15.097356,7.51995Q14.49464,5.48974,16.396799,4.73918L16.474962,4.70842Q17.13724,4.44755,17.78403,4.63286L17.71016,4.07831Q17.42548,1.937203,19.46168,1.5471789999999999L19.5302,1.534225Q20.4925,1.350562,21.10004,1.713233Q21.36338,0.00015699999999996272,23.21674,0L23.28799,0ZM25.45104,3.49687C25.45909,3.45505,25.468980000000002,3.41414,25.48059,3.37422C25.653460000000003,2.78015,26.2092,2.40587,26.787100000000002,2.5164999999999997L26.857300000000002,2.52977C27.474,2.64748,27.8926,3.27474,27.8033,3.94651L27.1261,9.03493L26.882199999999997,10.86798L28.0786,9.45796L28.889400000000002,8.50245C29.3213,7.98543,30.069000000000003,7.93299,30.5622,8.385110000000001C31.060299999999998,8.83833,31.145200000000003,9.63426,30.7559,10.19873L28.226399999999998,13.8708C27.762,14.6101,26.8996,15.7099,26.2944,16.2941C24.63287,17.8975,21.086759999999998,17.7227,19.88745,16.8557C18.68814,15.9888,18.54394,15.3636,18.21496,14.5042L16.0560034,7.23536C15.865096,6.5923,16.177366,5.9008,16.763043,5.6697L16.841452,5.63884C17.226210000000002,5.48728,17.63824,5.56985,17.94235,5.82146C18.10196,5.95352,18.23185,6.13214,18.31246,6.34792L19.41393,9.2955L18.88909,5.35528L18.701439999999998,3.94651C18.61212,3.27474,19.03109,2.64783,19.64745,2.52977L19.71768,2.51649C20.29569,2.40618,20.85154,2.78069,21.02427,3.37472C21.03583,3.41448,21.04567,3.45522,21.05369,3.49687L21.89539,7.86621L22.02776,3.26776L22.058,2.21722C22.06647,1.926504,22.16558,1.661373,22.32539,1.4533070000000001C22.538330000000002,1.176045,22.85906,1.00011163,23.21674,1L23.28799,1C23.62136,1,23.92267,1.152742,24.1345,1.397919C24.32059,1.613308,24.437640000000002,1.900036,24.446730000000002,2.21722L24.47708,3.2672L24.61002,7.86621L25.45104,3.49687Z" fill-rule="evenodd" fill="#E2E2E2" fill-opacity="1"/></g></svg>