<svg xmlns="http://www.w3.org/2000/svg" xmlns:xlink="http://www.w3.org/1999/xlink" fill="none" version="1.1" width="20" height="15" viewBox="0 0 20 15"><g><path d="M19.7281,1.685504Q19.8591,1.54637,19.9295,1.368735Q20,1.191101,20,1Q20,0.9015086,19.9808,0.80491Q19.9616,0.708311,19.9239,0.617317Q19.8862,0.526322,19.8315,0.44443Q19.7767,0.362537,19.7071,0.29289299999999996Q19.6375,0.22324900000000003,19.5556,0.16852999999999996Q19.4737,0.11381200000000002,19.3827,0.076121Q19.2917,0.038429999999999964,19.1951,0.019214999999999982Q19.0985,0,19,0Q18.7933,0,18.6035,0.08198499999999997Q18.4137,0.16396900000000003,18.2719,0.314496L6.76,12.5412L1.7282220000000001,7.19701L1.728068,7.19685Q1.5863420000000001,7.04632,1.396545,6.96434Q1.206747,6.88235,1,6.88235Q0.9015086,6.88235,0.80491,6.90157Q0.708311,6.92078,0.617317,6.95847Q0.526322,6.99616,0.44443,7.05088Q0.362537,7.1056,0.29289299999999996,7.17525Q0.22324900000000003,7.24489,0.16852999999999996,7.32678Q0.11381200000000002,7.40867,0.076121,7.49967Q0.038429999999999964,7.59066,0.019214999999999982,7.68726Q0,7.78386,0,7.88235Q0,8.073450000000001,0.07046600000000003,8.25109Q0.14093100000000003,8.42872,0.27193199999999995,8.56786L0.272085,8.56802L6.03193,14.6855Q6.05257,14.7074,6.0745,14.7281Q6.21932,14.8644,6.4053,14.935Q6.59128,15.0055,6.7901,14.9995Q6.98892,14.9936,7.17032,14.9119Q7.35171,14.8303,7.48807,14.6855L19.7281,1.685504L19.7281,1.685504Z" fill-rule="evenodd" fill="#E2E2E2" fill-opacity="1"/></g></svg>