<svg xmlns="http://www.w3.org/2000/svg" xmlns:xlink="http://www.w3.org/1999/xlink" fill="none" version="1.1" width="17.206069946289062" height="17.20662498474121" viewBox="0 0 17.206069946289062 17.20662498474121"><g><path d="M0.518594,0.00178983C0.575867,-0.00298285,0.635049,0.00178983,0.695185,0.016108L12.353,2.83011C12.5662,2.88162,12.7301,3.05221,12.773,3.26729L13.7725,8.26529L13.8335,8.20611C14.0534,7.98642,14.4097,7.98642,14.6296,8.20611L17.0418,10.6182C17.2608,10.838,17.2608,11.1936,17.0418,11.4134L11.4128,17.0423C11.193,17.2614,10.8375,17.2614,10.6177,17.0423L8.20555,14.6302C7.98586,14.4103,7.98586,14.054,8.20555,13.8341L8.26473,13.773L3.26673,12.7746C3.08455,12.7381,2.93205,12.6142,2.85914,12.4433L2.8305,12.3546L0.014594,0.695744C0.00113714,0.637585,-0.00305074,0.577665,0.00218496,0.518199L0.00218496,0.503881C0.00414402,0.480071,0.00797401,0.456453,0.0136395,0.433244L0.0212759,0.406517C0.0263123,0.387009,0.0326911,0.367873,0.0403667,0.349244L0.0537305,0.320608C0.0649763,0.296415,0.0780601,0.273119,0.0928667,0.250926L0.0985941,0.24329L0.112912,0.224199C0.167394,0.152448,0.238035,0.0945622,0.319094,0.0552443C0.346584,0.0416056,0.375362,0.0307339,0.405003,0.0227897L0.432685,0.0151534C0.45555,0.00919207,0.478849,0.00504284,0.502367,0.00274432L0.514776,0.00274432L0.518594,0.00178983ZM14.2316,9.39929L9.39873,14.2322L11.0157,15.8482L15.8476,11.0163L14.2316,9.39929ZM2.37423,1.5787L6.71359,5.91902C8.01841,5.16605,9.67471,5.93868,9.9362,7.42229C10.1977,8.90591,8.90536,10.1983,7.42174,9.93676C5.93812,9.67527,5.16549,8.01897,5.91846,6.71415L1.57814,2.37479L3.84041,11.7408L9.22214,12.8166L12.816,9.2227L11.7402,3.84002L2.37423,1.5787ZM7.79891,6.75424C7.22165,6.75424,6.75368,7.22221,6.75368,7.79947C6.75368,8.37673,7.22165,8.8447,7.79891,8.8447C8.37578,8.84413,8.84312,8.37634,8.84312,7.79947C8.84312,7.22261,8.37578,6.75481,7.79891,6.75424Z" fill="#E2E2E2" fill-opacity="1"/></g></svg>