<svg xmlns="http://www.w3.org/2000/svg" xmlns:xlink="http://www.w3.org/1999/xlink" fill="none" version="1.1" width="17" height="15" viewBox="0 0 17 15"><g><path d="M1,0L7.11108,0L7.11108,1L1,1L1,14L15,14L15,9L16,9L16,14Q16,14.0985,15.9808,14.1951Q15.9616,14.2917,15.9239,14.3827Q15.8862,14.4737,15.8315,14.5556Q15.7767,14.6375,15.7071,14.7071Q15.6375,14.7767,15.5556,14.8315Q15.4737,14.8862,15.3827,14.9239Q15.2917,14.9616,15.1951,14.9808Q15.0985,15,15,15L1,15Q0.901509,15,0.80491,14.9808Q0.708311,14.9616,0.617316,14.9239Q0.526322,14.8862,0.44443,14.8315Q0.362537,14.7767,0.292893,14.7071Q0.223249,14.6375,0.16853,14.5556Q0.113811,14.4737,0.0761205,14.3827Q0.0384294,14.2917,0.0192147,14.1951Q0,14.0985,0,14L0,1Q0,0.901509,0.0192147,0.80491Q0.0384294,0.708311,0.0761205,0.617316Q0.113811,0.526322,0.16853,0.44443Q0.223249,0.362537,0.292893,0.292893Q0.362537,0.223249,0.44443,0.16853Q0.526322,0.113811,0.617316,0.0761205Q0.708311,0.0384294,0.80491,0.0192147Q0.901509,0,1,0ZM8,7L8,1Q8,0.901509,8.01921,0.80491Q8.03843,0.708311,8.07612,0.617316Q8.11381,0.526322,8.16853,0.44443Q8.22325,0.362537,8.29289,0.292893Q8.36254,0.223249,8.44443,0.16853Q8.52632,0.113811,8.61732,0.0761205Q8.70831,0.0384294,8.80491,0.0192147Q8.90151,0,9,0L16,0Q16.0985,0,16.1951,0.0192147Q16.2917,0.0384294,16.3827,0.0761205Q16.4737,0.113811,16.5556,0.16853Q16.6375,0.223249,16.7071,0.292893Q16.7767,0.362537,16.8315,0.44443Q16.8862,0.526322,16.9239,0.617316Q16.9616,0.708311,16.9808,0.80491Q17,0.901509,17,1L17,7Q17,7.09849,16.9808,7.19509Q16.9616,7.29169,16.9239,7.38268Q16.8862,7.47368,16.8315,7.55557Q16.7767,7.63746,16.7071,7.70711Q16.6375,7.77675,16.5556,7.83147Q16.4737,7.88619,16.3827,7.92388Q16.2917,7.96157,16.1951,7.98078Q16.0985,8,16,8L9,8Q8.90151,8,8.80491,7.98078Q8.70831,7.96157,8.61732,7.92388Q8.52632,7.88619,8.44443,7.83147Q8.36254,7.77675,8.29289,7.70711Q8.22325,7.63746,8.16853,7.55557Q8.11381,7.47368,8.07612,7.38268Q8.03843,7.29169,8.01921,7.19509Q8,7.09849,8,7ZM9,7L16,7L16,1L9,1L9,7Z" fill-rule="evenodd" fill="#E2E2E2" fill-opacity="1"/></g></svg>