<svg xmlns="http://www.w3.org/2000/svg" xmlns:xlink="http://www.w3.org/1999/xlink" fill="none" version="1.1" width="32" height="32" viewBox="0 0 32 32"><g><g><path d="M15,5L11,5L11,6L15,6L15,26L11,26L11,27L20,27L20,26L16,26L16,6L20,6L20,5L15,5Z" fill-rule="evenodd" fill="#FFFFFF" fill-opacity="1"/><path d="M20,4L11,4Q10.9015086,4,10.80491,4.019215Q10.708311,4.03843,10.617317,4.076121Q10.526322,4.113812,10.44443,4.16853Q10.362537,4.223249,10.292893,4.292893Q10.223249,4.362537,10.16853,4.44443Q10.113812,4.526322,10.076121,4.617317Q10.03843,4.708311,10.019214999999999,4.80491Q10,4.9015086,10,5L10,6Q10,6.09849,10.019214999999999,6.19509Q10.03843,6.29169,10.076121,6.38268Q10.113812,6.47368,10.16853,6.5555699999999995Q10.223249,6.63746,10.292893,6.70711Q10.362537,6.77675,10.44443,6.8314699999999995Q10.526322,6.88619,10.617317,6.9238800000000005Q10.708311,6.96157,10.80491,6.98079Q10.9015086,7,11,7L14,7L14,25L11,25Q10.9015086,25,10.80491,25.0192Q10.708311,25.0384,10.617317,25.0761Q10.526322,25.1138,10.44443,25.1685Q10.362537,25.2232,10.292893,25.2929Q10.223249,25.3625,10.16853,25.4444Q10.113812,25.5263,10.076121,25.6173Q10.03843,25.7083,10.019214999999999,25.8049Q10,25.9015,10,26L10,27Q10,27.0985,10.019214999999999,27.1951Q10.03843,27.2917,10.076121,27.3827Q10.113812,27.4737,10.16853,27.5556Q10.223249,27.6375,10.292893,27.7071Q10.362537,27.7768,10.44443,27.8315Q10.526322,27.8862,10.617317,27.9239Q10.708311,27.9616,10.80491,27.9808Q10.9015086,28,11,28L20,28Q20.098489999999998,28,20.19509,27.9808Q20.29169,27.9616,20.38268,27.9239Q20.47368,27.8862,20.55557,27.8315Q20.63746,27.7768,20.70711,27.7071Q20.77675,27.6375,20.83147,27.5556Q20.88619,27.4737,20.92388,27.3827Q20.961570000000002,27.2917,20.98078,27.1951Q21,27.0985,21,27L21,26Q21,25.9015,20.98078,25.8049Q20.961570000000002,25.7083,20.92388,25.6173Q20.88619,25.5263,20.83147,25.4444Q20.77675,25.3625,20.70711,25.2929Q20.63746,25.2232,20.55557,25.1685Q20.47368,25.1138,20.38268,25.0761Q20.29169,25.0384,20.19509,25.0192Q20.098489999999998,25,20,25L17,25L17,7L20,7Q20.098489999999998,7,20.19509,6.98079Q20.29169,6.96157,20.38268,6.9238800000000005Q20.47368,6.88619,20.55557,6.8314699999999995Q20.63746,6.77675,20.70711,6.70711Q20.77675,6.63746,20.83147,6.5555699999999995Q20.88619,6.47368,20.92388,6.38268Q20.961570000000002,6.29169,20.98078,6.19509Q21,6.09849,21,6L21,5Q21,4.9015086,20.98078,4.80491Q20.961570000000002,4.708311,20.92388,4.617317Q20.88619,4.526322,20.83147,4.44443Q20.77675,4.362537,20.70711,4.292893Q20.63746,4.223249,20.55557,4.16853Q20.47368,4.113812,20.38268,4.076121Q20.29169,4.03843,20.19509,4.019215Q20.098489999999998,4,20,4ZM16,25L16,6L20,6L20,5L11,5L11,6L15,6L15,26L11,26L11,27L20,27L20,26L16,26L16,25Z" fill-rule="evenodd" fill="#000000" fill-opacity="1"/></g></g></svg>