<svg xmlns="http://www.w3.org/2000/svg" xmlns:xlink="http://www.w3.org/1999/xlink" fill="none" version="1.1" width="18.384765625" height="18.384765625" viewBox="0 0 18.384765625 18.384765625"><g transform="matrix(0.7071067690849304,0.7071067690849304,-0.7071067690849304,0.7071067690849304,3.9350377190567087,-9.500020874693291)"><g><path d="M13.43505859375,0L20.43505859375,0L20.43505859375,19L13.43505859375,19L13.43505859375,0ZM14.43505859375,1L14.43505859375,18L19.43505859375,18L19.43505859375,1L14.43505859375,1Z" fill-rule="evenodd" fill="#E2E2E2" fill-opacity="1"/></g><g><path d="M17.43505859375,10L14.43505859375,10L14.43505859375,9L17.43505859375,9L17.43505859375,10Z" fill-rule="evenodd" fill="#E2E2E2" fill-opacity="1"/></g><g><path d="M17.43503761291504,16L14.435037612915039,16L14.435037612915039,15L17.43503761291504,15L17.43503761291504,16Z" fill-rule="evenodd" fill="#E2E2E2" fill-opacity="1"/></g><g><path d="M17.43503761291504,4L14.435037612915039,4L14.435037612915039,3L17.43503761291504,3L17.43503761291504,4Z" fill-rule="evenodd" fill="#E2E2E2" fill-opacity="1"/></g><g><path d="M16.4349365234375,7L14.4349365234375,7L14.4349365234375,6L16.4349365234375,6L16.4349365234375,7Z" fill-rule="evenodd" fill="#E2E2E2" fill-opacity="1"/></g><g><path d="M16.4349365234375,13L14.4349365234375,13L14.4349365234375,12L16.4349365234375,12L16.4349365234375,13Z" fill-rule="evenodd" fill="#E2E2E2" fill-opacity="1"/></g></g></svg>