<svg xmlns="http://www.w3.org/2000/svg" xmlns:xlink="http://www.w3.org/1999/xlink" fill="none" version="1.1" width="32" height="32" viewBox="0 0 32 32"><g><g transform="matrix(0.8660253882408142,-0.5,0.5,0.8660253882408142,-3.660228404274676,3.287107134994585)"><g><path d="M4.302734375,20.4736328125L7.533694375,27.4736328125L7.533694375,30.4736328125L13.071774375,30.4736328125L13.071774375,27.4736328125L16.302734375,20.4736328125L10.302734375,8.4736328125L4.302734375,20.4736328125Z" fill="#FFFFFF" fill-opacity="1"/><path d="M6.533694375,27.6932328125L3.394784375,20.8927328125Q3.347653375,20.7906328125,3.324380375,20.680532812499997Q3.301104375,20.570532812499998,3.302855375,20.4581328125Q3.304602375,20.3456328125,3.331283375,20.2364328125Q3.357964375,20.1271328125,3.408245375,20.0265328125L3.408307375,20.026432812499998L9.408304375,8.0264188125L9.408534375,8.0259578125Q9.481124375,7.8809678125,9.595814375,7.7663438125Q9.710494375,7.6517188125,9.855524375,7.5792058125Q9.943594375,7.5351698124999995,10.038564375,7.5091578125Q10.133524375,7.4831458125,10.231744375,7.4761558125Q10.329964375,7.4691628125000005,10.427664374999999,7.4814668125Q10.525354375,7.4937678125,10.618774375000001,7.5248868125Q10.712194375,7.5560058125000005,10.797754375,7.6047478125Q10.883304375,7.6534898125,10.957714375,7.7179828125Q11.032114374999999,7.7824758124999995,11.092514375,7.8602428125Q11.152914375,7.9380098125,11.196984375,8.0260628125L11.197164375,8.0264188125L17.197134374999997,20.026432812499998Q17.247434374999997,20.127032812499998,17.274134375,20.236332812500002Q17.300834375,20.3455328125,17.302634375,20.4580328125Q17.304334375,20.570532812499998,17.281134375,20.680532812499997Q17.257834375,20.7906328125,17.210634374999998,20.8927328125L14.071774375,27.6933328125L14.071774375,30.4736328125Q14.071774375,30.5721328125,14.052564375,30.6687328125Q14.033344375,30.7653328125,13.995654375,30.8563328125Q13.957964375,30.9473328125,13.903244375,31.0292328125Q13.848524375,31.1111328125,13.778884375,31.1807328125Q13.709234375,31.2504328125,13.627344375,31.3051328125Q13.545454375,31.3598328125,13.454464375,31.3975328125Q13.363464375,31.4352328125,13.266864375,31.4544328125Q13.170264375,31.4736328125,13.071774375,31.4736328125L7.533694375,31.4736328125Q7.435204375,31.4736328125,7.338604375,31.4544328125Q7.2420043750000005,31.4352328125,7.151004374999999,31.3975328125Q7.060014375,31.3598328125,6.978124375,31.3051328125Q6.896224375,31.2504328125,6.8265843749999995,31.1807328125Q6.756944375,31.1111328125,6.702224375,31.0292328125Q6.6475043750000005,30.9473328125,6.609814375,30.8563328125Q6.572124375,30.7653328125,6.552904375,30.6687328125Q6.533694375,30.5721328125,6.533694375,30.4736328125L6.533694375,27.6932328125ZM16.302734375,20.4736328125L13.071774375,27.4736328125L13.071774375,30.4736328125L7.533694375,30.4736328125L7.533694375,27.4736328125L4.302734375,20.4736328125L9.743714375,9.591662812500001L10.302734375,8.4736328125L10.861754375,9.591662812500001L16.302734375,20.4736328125Z" fill-rule="evenodd" fill="#000000" fill-opacity="1"/></g><g><path d="M9.8037109375,18.4737548828125L9.8037109375,8.4737548828125L10.8037109375,8.4737548828125L10.8037109375,18.4737548828125L9.8037109375,18.4737548828125Z" fill-rule="evenodd" fill="#000000" fill-opacity="1"/></g><g><ellipse cx="10.302734375" cy="19.4737548828125" rx="2" ry="2" fill="#000000" fill-opacity="1"/></g></g></g></svg>