<svg xmlns="http://www.w3.org/2000/svg" xmlns:xlink="http://www.w3.org/1999/xlink" fill="none" version="1.1" width="10" height="10" viewBox="0 0 10 10"><g><g style="opacity:0.800000011920929;"><path d="M5.66304,1.20071L6.7246,0.119244C6.88092,-0.0397903,7.13407,-0.0397393,7.29032,0.119345L9.69108,2.56708C9.84728,2.72633,9.84728,2.98453,9.69108,3.14377L8.63058,4.22502C8.47434,4.38418,8.22116,4.38421,8.06489,4.22508L5.663,1.77722C5.50817,1.61978,5.50656,1.36515,5.65807,1.20553L5.6627,1.20071C5.66277,1.20066,5.66283,1.2006,5.66304,1.20071ZM4.56187,2.32254C4.71651,2.16488,4.96625,2.16331,5.12275,2.31785L5.12746,2.32258L7.5295,4.7716C7.68413,4.92925,7.68567,5.18389,7.53412,5.34348L7.5295,5.34828L3.08416,9.88056C3.01071,9.95544,2.91157,9.99827,2.80772,10L0.399956,10C0.181268,10,0.00358713,9.82106,0,9.59897L0,7.14381C-1.22057e-7,7.03792,0.0403984,6.93619,0.11265,6.86013L0.1171,6.8555L4.56187,2.32254L4.56187,2.32254ZM10,9.1717C10,9.62212,9.64186,9.98726,9.20009,9.98726L5.12554,9.98726C5.12554,9.53684,5.48367,9.1717,5.92545,9.1717L10,9.1717ZM10,7.23475C10,7.68517,9.64186,8.05031,9.20009,8.05031L6.87534,8.05031C6.87534,7.59989,7.23348,7.23475,7.67526,7.23475L10,7.23475Z" fill="#E2E2E2" fill-opacity="1"/></g></g></svg>