<svg xmlns="http://www.w3.org/2000/svg" xmlns:xlink="http://www.w3.org/1999/xlink" fill="none" version="1.1" width="17" height="10.99993896484375" viewBox="0 0 17 10.99993896484375"><defs><filter id="master_svg0_229_032784" filterUnits="objectBoundingBox" color-interpolation-filters="sRGB" x="0" y="0" width="16" height="9.999947547912598"><feFlood flood-opacity="0" result="BackgroundImageFix"/><feColorMatrix in="SourceAlpha" type="matrix" values="0 0 0 0 0 0 0 0 0 0 0 0 0 0 0 0 0 0 127 0"/><feOffset dy="1" dx="1"/><feGaussianBlur stdDeviation="0"/><feColorMatrix type="matrix" values="0 0 0 0 0 0 0 0 0 0 0 0 0 0 0 0 0 0 0.6000000238418579 0"/><feBlend mode="normal" in2="BackgroundImageFix" result="effect1_dropShadow"/><feBlend mode="normal" in="SourceGraphic" in2="effect1_dropShadow" result="shape"/></filter></defs><g filter="url(#master_svg0_229_032784)"><g><path d="M0.5,6.28571L11.4615,6.28571L15.5,0.5L4.53846,0.5L0.5,6.28571Z" fill="#FFFFFF" fill-opacity="0.6000000238418579"/><path d="M4.1284600000000005,0.213818L0.09000000000000002,5.99953Q0,6.12847,0,6.28571Q0,6.33496,0.009606999999999977,6.38326Q0.019214999999999982,6.43156,0.03805999999999998,6.47705Q0.05690600000000001,6.52255,0.08426499999999998,6.5635Q0.11162499999999997,6.60444,0.146447,6.63927Q0.181269,6.67409,0.222215,6.70145Q0.263161,6.72881,0.308658,6.74765Q0.354155,6.7665,0.4024549,6.77611Q0.4507543,6.78571,0.5,6.78571L11.4615,6.78571Q11.5841,6.78571,11.6927,6.72905Q11.8014,6.67238,11.8715,6.5719L15.91,0.7861819999999999Q16,0.657243,16,0.5Q16,0.4507543,15.9904,0.4024549Q15.9808,0.354155,15.9619,0.308658Q15.9431,0.263161,15.9157,0.222215Q15.8884,0.181269,15.8536,0.146447Q15.8187,0.11162499999999997,15.7778,0.08426499999999998Q15.7368,0.05690600000000001,15.6913,0.03805999999999998Q15.6458,0.019214999999999982,15.5975,0.009606999999999977Q15.5492,0,15.5,0L4.53846,0Q4.41592,0,4.307259999999999,0.05666500000000002Q4.1986,0.11333100000000002,4.1284600000000005,0.213818ZM1.4587590000000001,5.78571L11.2008,5.78571L14.5412,1L4.79921,1L1.4587590000000001,5.78571Z" fill-rule="evenodd" fill="#FFFFFF" fill-opacity="1"/></g><g><path d="" fill="#FFFFFF" fill-opacity="0.14000000059604645"/><path d="M1.474493,8.9999433984375L3.21385,6.5772633984375L2.40153,5.9940633984375005L0.09383799999999998,9.2083433984375Q0.06511800000000001,9.2483433984375,0.04475299999999999,9.293183398437499Q0.024388999999999994,9.3380233984375,0.013164000000000009,9.3859733984375Q0.0019379999999999953,9.4339233984375,0.0002829999999999777,9.4831433984375Q-0.0013729999999999576,9.5323533984375,0.0066050000000000275,9.5809533984375Q0.014583999999999986,9.6295433984375,0.031889,9.6756533984375Q0.04919499999999999,9.7217533984375,0.075162,9.7636033984375Q0.10113,9.8054433984375,0.13476100000000002,9.8414133984375Q0.16839300000000001,9.877393398437501,0.208397,9.906113398437501Q0.3391,9.9999433984375,0.5,9.9999433984375L11.4615,9.9999433984375Q11.5841,9.9999433984375,11.6927,9.9432833984375Q11.8014,9.8866133984375,11.8715,9.7861333984375L15.91,4.0004153984375Q15.9669,3.9188613984375,15.9883,3.8217313984375Q16.009700000000002,3.7246006984375,15.9923,3.6266811984375Q15.9749,3.5287613984375,15.9213,3.4449603984375Q15.8677,3.3611583984375,15.7862,3.3042333984375Q15.6572,3.2142333984375,15.5,3.2142333984375L13.1923,3.2142333984375L13.1923,4.2142333984375L14.5412,4.2142333984375L11.2008,8.9999433984375L1.474493,8.9999433984375Z" fill-rule="evenodd" fill="#FFFFFF" fill-opacity="1"/></g></g></svg>