<svg xmlns="http://www.w3.org/2000/svg" xmlns:xlink="http://www.w3.org/1999/xlink" fill="none" version="1.1" width="30"
  height="27" viewBox="15 15 30 27">
  <defs>
    <filter id="master_svg0_570_9660" filterUnits="objectBoundingBox" color-interpolation-filters="sRGB" x="-20" y="-20"
      width="76" height="76">
      <feFlood flood-opacity="0" result="BackgroundImageFix" />
      <feColorMatrix in="SourceAlpha" type="matrix" values="0 0 0 0 0 0 0 0 0 0 0 0 0 0 0 0 0 0 127 0" />
      <feOffset dy="0" dx="0" />
      <feGaussianBlur stdDeviation="5" />
      <feColorMatrix type="matrix" values="0 0 0 0 0 0 0 0 0 0 0 0 0 0 0 0 0 0 0.10000000149011612 0" />
      <feBlend mode="normal" in2="BackgroundImageFix" result="effect1_dropShadow" />
      <feBlend mode="normal" in="SourceGraphic" in2="effect1_dropShadow" result="shape" />
    </filter>
    <linearGradient x1="0.5" y1="0" x2="0.5" y2="1" id="master_svg1_19_2455">
      <stop offset="10.891241580247879%" stop-color="#7B7B7B" stop-opacity="1" />
      <stop offset="89.13702964782715%" stop-color="#535353" stop-opacity="1" />
    </linearGradient>
    <linearGradient x1="0.5" y1="0" x2="0.5" y2="1" id="master_svg2_19_2455">
      <stop offset="10.891241580247879%" stop-color="#7B7B7B" stop-opacity="1" />
      <stop offset="89.13702964782715%" stop-color="#535353" stop-opacity="1" />
    </linearGradient>
    <linearGradient x1="0.5" y1="1" x2="0.5" y2="0" id="master_svg3_1_1715">
      <stop offset="0%" stop-color="#3D3D3D" stop-opacity="1" />
      <stop offset="98.57142567634583%" stop-color="#1C1C1C" stop-opacity="1" />
    </linearGradient>
    <linearGradient x1="0.5" y1="1" x2="0.5" y2="0" id="master_svg4_1_1715">
      <stop offset="0%" stop-color="#3D3D3D" stop-opacity="1" />
      <stop offset="98.57142567634583%" stop-color="#1C1C1C" stop-opacity="1" />
    </linearGradient>
    <linearGradient x1="0.5" y1="0.08961928635835648" x2="0.5" y2="0.9078529477119446" id="master_svg5_1_1711">
      <stop offset="0%" stop-color="#FFFFFF" stop-opacity="1" />
      <stop offset="100%" stop-color="#B6B6B6" stop-opacity="1" />
    </linearGradient>
    <linearGradient x1="0.5" y1="1" x2="0.5" y2="0" id="master_svg6_1_1715">
      <stop offset="0%" stop-color="#3D3D3D" stop-opacity="1" />
      <stop offset="98.57142567634583%" stop-color="#1C1C1C" stop-opacity="1" />
    </linearGradient>
    <linearGradient x1="0.5" y1="1" x2="0.5" y2="0" id="master_svg7_1_1715">
      <stop offset="0%" stop-color="#3D3D3D" stop-opacity="1" />
      <stop offset="98.57142567634583%" stop-color="#1C1C1C" stop-opacity="1" />
    </linearGradient>
  </defs>
  <g filter="url(#master_svg0_570_9660)">
    <g>
      <path d="" fill="#D8D8D8" fill-opacity="0" />
    </g>
    <g>
      <g>
        <ellipse cx="36.5" cy="20.5" rx="4.5" ry="4.5" fill="url(#master_svg1_19_2455)" fill-opacity="1" />
      </g>
      <g>
        <path
          d="M28,39C28,39.5523,28.447715,40,29,40L44,40C44.5523,40,45,39.5523,45,39L45,32C45,29.79086,43.2091,28,41,28L29,28C28.447715,28,28,28.447715,28,29L28,39Z"
          fill="url(#master_svg2_19_2455)" fill-opacity="1" />
      </g>
      <g>
        <rect x="29" y="33" width="1" height="7" rx="0" fill="url(#master_svg3_1_1715)" fill-opacity="1" />
      </g>
      <g>
        <rect x="41" y="33" width="1" height="7" rx="0" fill="url(#master_svg4_1_1715)" fill-opacity="1" />
      </g>
    </g>
    <g>
      <g>
        <ellipse cx="24.5" cy="19.5" rx="4.5" ry="4.5" fill="#FFC800" fill-opacity="1" />
      </g>
      <g>
        <path
          d="M15,39C15,39.5523,15.447715,40,16,40L33,40C33.5523,40,34,39.5523,34,39L34,31C34,28.79086,32.2091,27,30,27L19,27C16.79086,27,15,28.79086,15,31L15,39Z"
          fill="url(#master_svg5_1_1711)" fill-opacity="1" />
      </g>
      <g>
        <rect x="18" y="32" width="1" height="8" rx="0" fill="url(#master_svg6_1_1715)" fill-opacity="1" />
      </g>
      <g>
        <rect x="30" y="32" width="1" height="8" rx="0" fill="url(#master_svg7_1_1715)" fill-opacity="1" />
      </g>
    </g>
  </g>
</svg>