<svg xmlns="http://www.w3.org/2000/svg" xmlns:xlink="http://www.w3.org/1999/xlink" fill="none" version="1.1" width="16" height="16" viewBox="0 0 16 16"><defs><clipPath id="master_svg0_4_1991"><rect x="0" y="0" width="16" height="16" rx="0"/></clipPath></defs><g clip-path="url(#master_svg0_4_1991)"><g><path d="M14,10.94667L14,13.304C14.0002,13.6542,13.7293,13.9448,13.38,13.9693C13.0887,13.9893,12.8507,14,12.6667,14C6.77533,14,2,9.22467,2,3.33333C2,3.14933,2.0100001,2.911332,2.0306667,2.619999C2.055181,2.270662,2.3458040000000002,1.999841372,2.6959999999999997,2.000000158946L5.05333,2.000000158946C5.2246500000000005,1.99982659,5.3682,2.129543,5.38533,2.3C5.40067,2.453334,5.41467,2.575333,5.428,2.668C5.56049,3.59262,5.832,4.49189,6.23333,5.33533C6.29667,5.4686699999999995,6.25533,5.628,6.13533,5.71333L4.69667,6.74133C5.5763,8.79097,7.2097,10.42437,9.25933,11.304L10.286,9.868C10.3726,9.746929999999999,10.53339,9.70512,10.668,9.76867C11.51135,10.16924,12.4104,10.44008,13.3347,10.572C13.4273,10.58533,13.5493,10.6,13.7013,10.61467C13.8715,10.63212,14.0009,10.77558,14,10.94667L14,10.94667Z" fill="#E2E2E2" fill-opacity="0.6000000238418579"/></g></g></svg>