<svg xmlns="http://www.w3.org/2000/svg" xmlns:xlink="http://www.w3.org/1999/xlink" fill="none" version="1.1" width="169" height="48" viewBox="0 0 169 48"><g><g><path d="M15.792,4.864Q19.968,4.864,23.088,6.304Q26.208,7.744,27.912,10.36Q29.616,12.976,29.616,16.48Q29.616,19.936,27.912,22.552Q26.208,25.168,23.088,26.584Q19.968,28,15.792,28L10.656,28L10.656,40L3.696,40L3.696,4.864L15.792,4.864ZM15.024,22.096Q18.288,22.096,20.256,20.68Q22.224,19.264,22.224,16.48Q22.224,13.696,20.256,12.232Q18.288,10.768,15.024,10.768L10.656,10.768L10.656,22.096L15.024,22.096ZM36.96,11.968Q35.376,11.968,34.2,10.744Q33.024,9.52,33.024,7.888Q33.024,6.208,34.176,5.008Q35.328,3.808,36.96,3.808Q38.592,3.808,39.792,5.032Q40.992,6.256,40.992,7.888Q40.992,9.52,39.792,10.744Q38.592,11.968,36.96,11.968ZM40.368,40L33.696,40L33.696,15.136L40.368,15.136L40.368,40ZM57.744,34.768Q60.624,34.768,62.352,31.936L67.44,34.912Q66.24,37.696,63.648,39.136Q61.056,40.576,57.744,40.576Q54.432,40.576,51.552,39.064Q48.672,37.552,46.896,34.6Q45.12,31.648,45.12,27.568Q45.12,23.44,46.896,20.488Q48.672,17.536,51.552,16.024Q54.432,14.512,57.744,14.512Q61.056,14.512,63.648,15.952Q66.24,17.392,67.44,20.176L62.352,23.152Q60.672,20.368,57.744,20.368Q55.152,20.368,53.592,22.312Q52.032,24.256,52.032,27.568Q52.032,30.832,53.616,32.8Q55.2,34.768,57.744,34.768ZM81.216,14.512Q86.256,14.512,89.088,17.368Q91.92,20.224,91.92,25.504L91.92,40L86.304,40Q86.256,39.616,86.184,38.728Q86.112,37.84,85.968,37.168Q84.864,38.896,83.112,39.736Q81.36,40.576,78.864,40.576Q76.272,40.576,74.136,39.664Q72,38.752,70.752,37Q69.504,35.248,69.504,32.848Q69.504,30.352,70.911,28.504Q72.3187,26.656,74.7038,25.648Q77.0895,24.64,79.9522,24.64Q82.5285,24.64,85.248,25.504Q85.248,19.984,80.6655,19.984Q77.0003,19.984,75.312,23.248L70.56,20.512Q71.904,17.728,74.688,16.12Q77.472,14.512,81.216,14.512ZM85.344,29.92Q82.944,29.344,81.168,29.344Q78.816,29.344,77.52,30.184Q76.224,31.024,76.224,32.56Q76.224,33.952,77.256,34.72Q78.288,35.488,79.92,35.488Q82.08,35.488,83.712,34.264Q85.344,33.04,85.344,30.88L85.344,29.92ZM116.208,32.608Q116.208,36.304,113.352,38.44Q110.496,40.576,105.936,40.576Q102,40.576,99.144,38.896Q96.288,37.216,95.28,34.24L100.128,31.408Q100.848,33.184,102.384,34.168Q103.92,35.152,105.984,35.152Q107.52,35.152,108.432,34.576Q109.344,34,109.344,32.944Q109.344,31.744,108.144,31.096Q106.944,30.448,104.4,29.728Q101.856,28.96,100.248,28.24Q98.64,27.52,97.464,26.152Q96.288,24.784,96.288,22.576Q96.288,20.08,97.656,18.256Q99.024,16.432,101.328,15.472Q103.632,14.512,106.368,14.512Q110.112,14.512,112.704,16.12Q115.296,17.728,115.968,20.368L111.12,23.104Q109.68,19.984,106.272,19.984Q104.832,19.984,103.968,20.536Q103.104,21.088,103.104,22.096Q103.104,23.248,104.256,23.848Q105.408,24.448,107.856,25.12Q110.448,25.84,112.128,26.56Q113.808,27.28,115.008,28.744Q116.208,30.208,116.208,32.608ZM139.152,32.608Q139.152,36.304,136.296,38.44Q133.44,40.576,128.88,40.576Q124.944,40.576,122.088,38.896Q119.232,37.216,118.224,34.24L123.072,31.408Q123.792,33.184,125.328,34.168Q126.864,35.152,128.928,35.152Q130.464,35.152,131.376,34.576Q132.288,34,132.288,32.944Q132.288,31.744,131.088,31.096Q129.888,30.448,127.344,29.728Q124.8,28.96,123.192,28.24Q121.584,27.52,120.408,26.152Q119.232,24.784,119.232,22.576Q119.232,20.08,120.6,18.256Q121.968,16.432,124.272,15.472Q126.576,14.512,129.312,14.512Q133.056,14.512,135.648,16.12Q138.24,17.728,138.912,20.368L134.064,23.104Q132.624,19.984,129.216,19.984Q127.776,19.984,126.912,20.536Q126.048,21.088,126.048,22.096Q126.048,23.248,127.2,23.848Q128.352,24.448,130.8,25.12Q133.392,25.84,135.072,26.56Q136.752,27.28,137.952,28.744Q139.152,30.208,139.152,32.608ZM141.744,27.568Q141.744,23.68,143.496,20.704Q145.248,17.728,148.176,16.12Q151.104,14.512,154.512,14.512Q157.872,14.512,160.776,16.12Q163.68,17.728,165.432,20.704Q167.184,23.68,167.184,27.568Q167.184,31.456,165.432,34.432Q163.68,37.408,160.776,38.992Q157.872,40.576,154.512,40.576Q151.104,40.576,148.176,38.992Q145.248,37.408,143.496,34.432Q141.744,31.456,141.744,27.568ZM148.656,27.568Q148.656,30.88,150.312,32.824Q151.968,34.768,154.464,34.768Q156.96,34.768,158.592,32.824Q160.224,30.88,160.224,27.568Q160.224,24.256,158.592,22.288Q156.96,20.32,154.464,20.32Q151.968,20.32,150.312,22.288Q148.656,24.256,148.656,27.568Z" fill="#FFFFFF" fill-opacity="1"/></g><g><ellipse cx="37" cy="8" rx="5" ry="5" fill="#FFC800" fill-opacity="1"/></g></g></svg>