<svg xmlns="http://www.w3.org/2000/svg" xmlns:xlink="http://www.w3.org/1999/xlink" fill="none" version="1.1" width="30"
  height="30" viewBox="0 0 30 30">
  <defs>
    <clipPath id="master_svg0_570_9784">
      <rect x="0" y="0" width="30" height="30" rx="2" />
    </clipPath>
    <clipPath id="master_svg1_570_9784/570_7195">
      <rect x="6" y="4" width="18" height="22" rx="0" />
    </clipPath>
  </defs>
  <g clip-path="url(#master_svg0_570_9784)">
    <g clip-path="url(#master_svg1_570_9784/570_7195)">
      <g>
        <path
          d="M8.000034551124573,9.95251L7.249893551124573,9.95251C6.799410951124573,9.95251,6.578673551124573,10.50149,6.903766551124573,10.81334L11.154154551124574,14.89056C11.347594551124573,15.07613,11.652964551124573,15.07613,11.846404551124571,14.89056L16.096794551124574,10.81334C16.42188455112457,10.50149,16.201154551124574,9.95251,15.750664551124572,9.95251L14.000034551124573,9.95251L14.000034551124573,7.5Q14.000034551124573,7.450754,13.990424551124573,7.402455Q13.980814551124574,7.354155,13.961974551124573,7.308658Q13.943124551124573,7.263161,13.915764551124573,7.222215Q13.888404551124573,7.181269,13.853584551124573,7.146447Q13.818764551124573,7.111625,13.777814551124573,7.0842652Q13.736864551124572,7.0569057,13.691374551124571,7.0380602Q13.645874551124573,7.0192147,13.597574551124573,7.00960736Q13.549274551124572,7,13.500034551124573,7L9.500034551124573,7Q9.450784551124572,7,9.402484551124573,7.00960736Q9.354184551124572,7.0192147,9.308684551124573,7.0380602Q9.263194551124572,7.0569057,9.222244551124573,7.0842652Q9.181294551124573,7.111625,9.146474551124573,7.146447Q9.111654551124573,7.181269,9.084294551124573,7.222215Q9.056934551124574,7.263161,9.038094551124573,7.308658Q9.019244551124572,7.354155,9.009634551124574,7.402455Q9.000034551124573,7.450754,9.000034551124573,7.5L9.000034551124573,9.95251L8.000034551124573,9.95251ZM13.000034551124573,8L13.000034551124573,10.95251L14.507154551124572,10.95251L11.500284551124572,13.83688L8.493404551124573,10.95251L10.000034551124573,10.95251L10.000034551124573,8L13.000034551124573,8Z"
          fill-rule="evenodd" fill="#FFC800" fill-opacity="1" />
      </g>
      <g>
        <path
          d="M12.076,17.764L10.888,17.764L10.888,18.492L12.26,18.492L12.26,19L10.308,19L10.308,16.0719998L12.216000000000001,16.0719998L12.216000000000001,16.576L10.888,16.576L10.888,17.264L12.076,17.264L12.076,17.764ZM13.492,17.544L13.932,16.928L14.54,16.928L13.78,17.951999999999998L14.54,19L13.904,19L13.468,18.38L13.036,19L12.42,19L13.18,17.976L12.42,16.928L13.064,16.928L13.492,17.544ZM15.632,18.564Q15.872,18.564,16.016,18.328L16.44,18.576Q16.34,18.808,16.124,18.928Q15.908000000000001,19.048000000000002,15.632,19.048000000000002Q15.356,19.048000000000002,15.116,18.922Q14.876000000000001,18.796,14.728,18.55Q14.58,18.304,14.58,17.964Q14.58,17.62,14.728,17.374Q14.876000000000001,17.128,15.116,17.002Q15.356,16.876,15.632,16.876Q15.908000000000001,16.876,16.124,16.996Q16.34,17.116,16.44,17.348L16.016,17.596Q15.876000000000001,17.364,15.632,17.364Q15.416,17.364,15.286,17.526Q15.155999999999999,17.688,15.155999999999999,17.964Q15.155999999999999,18.236,15.288,18.4Q15.42,18.564,15.632,18.564ZM17.616,16.876Q17.892,16.876,18.106,16.998Q18.32,17.12,18.438000000000002,17.342Q18.555999999999997,17.564,18.555999999999997,17.852Q18.555999999999997,17.98,18.532,18.112000000000002L17.156,18.112000000000002Q17.192,18.344,17.323999999999998,18.462Q17.456,18.58,17.652,18.58Q17.792,18.58,17.902,18.518Q18.012,18.456,18.072,18.332L18.48,18.572Q18.396,18.8,18.158,18.924Q17.92,19.048000000000002,17.628,19.048000000000002Q17.348,19.048000000000002,17.108,18.924Q16.868000000000002,18.8,16.722,18.552Q16.576,18.304,16.576,17.956Q16.576,17.612000000000002,16.722,17.368Q16.868000000000002,17.124,17.104,17Q17.34,16.876,17.616,16.876ZM17.6,17.328Q17.436,17.328,17.32,17.432Q17.204,17.536,17.164,17.724L17.988,17.724Q17.972,17.532,17.866,17.43Q17.759999999999998,17.328,17.6,17.328ZM19.48,19L18.924,19L18.924,15.9559999L19.48,15.9559999L19.48,19Z"
          fill="#2E2E2F" fill-opacity="1" />
      </g>
      <g>
        <path
          d="M13,16L10,16L10,21L13,21L13,20L11,20L11,19L13,19L13,18L11,18L11,17L13,17L13,16ZM19,16L18,16L18,21L21,21L21,20L19,20L19,16ZM16.4496,16.111328L17.29764,16.641247L16.13879,18.49579L17.29841,20.35157L16.45036,20.88149L15.54921,19.439329999999998L14.64805,20.88149L13.8,20.35157L14.959620000000001,18.49579L13.80077,16.641248L14.64882,16.111328L15.54921,17.55225L16.4496,16.111328Z"
          fill-rule="evenodd" fill="#D8D8D8" fill-opacity="1" />
      </g>
      <g>
        <path
          d="M7,14.5L7,23C7,23.552300000000002,7.447715,24,8,24L22,24C22.552300000000002,24,23,23.552300000000002,23,23L23,10C23,9.447715,22.552300000000002,9,22,9L17.5,9C17.2239,9,17,9.223858,17,9.5C17,9.776142,17.2239,10,17.5,10L22,10L22,23L8,23L8,14.5C8,14.22386,7.776142,14,7.5,14C7.223858,14,7,14.22386,7,14.5"
          fill-rule="evenodd" fill="#E2E2E2" fill-opacity="1" />
      </g>
    </g>
  </g>
</svg>