<svg xmlns="http://www.w3.org/2000/svg" xmlns:xlink="http://www.w3.org/1999/xlink" fill="none" version="1.1" width="28" height="24.0489501953125" viewBox="0 0 28 24.0489501953125"><g transform="matrix(1,0,0,-1,0,48.097900390625)"><g><rect x="17" y="38.0489501953125" width="7" height="3" rx="0.5" fill="#FFC800" fill-opacity="1"/></g><g><path d="M24.5,24.0489501953125L3.5,24.0489501953125C3.22386,24.0489501953125,3,24.2648061953125,3,24.5313721953125L3,27.0489501953125L1,27.0489501953125C0.447715,27.0489501953125,0,27.4966701953125,0,28.0489501953125L0,44.0489501953125C0,44.6012501953125,0.447715,45.0489501953125,1,45.0489501953125L3,45.0489501953125L3,47.7757501953125C3,47.9534501953125,3.14987,48.0978501953125,3.33398,48.0978501953125L24.666,48.0978501953125C24.8501,48.0978501953125,24.999,47.9534501953125,24.999,47.7757501953125L24.999,45.0489501953125L27,45.0489501953125C27.5523,45.0489501953125,28,44.6012501953125,28,44.0489501953125L28,28.0489501953125C28,27.4966701953125,27.5523,27.0489501953125,27,27.0489501953125L25,27.0489501953125L25,24.5313721953125C25,24.2648411953125,24.7761,24.0489501953125,24.5,24.0489501953125ZM24,34.0489501953125L24,25.0489501953125L4,25.0489501953125L4,34.0489501953125L24,34.0489501953125ZM7.5,27.0489501953125C7.22386,27.0489501953125,7,27.272810195312502,7,27.5489501953125C7,27.825090195312498,7.22386,28.0489501953125,7.5,28.0489501953125L20.5,28.0489501953125C20.7761,28.0489501953125,21,27.825090195312498,21,27.5489501953125C21,27.272810195312502,20.7761,27.0489501953125,20.5,27.0489501953125L7.5,27.0489501953125ZM1,28.0489501953125L3,28.0489501953125L3,35.0489501953125L25,35.0489501953125L25,28.0489501953125L27,28.0489501953125L27,44.0489501953125L1,44.0489501953125L1,28.0489501953125ZM7.5,30.0489501953125C7.22386,30.0489501953125,7,30.272810195312502,7,30.5489501953125C7,30.825090195312498,7.22386,31.0489501953125,7.5,31.0489501953125L20.5,31.0489501953125C20.7761,31.0489501953125,21,30.825090195312498,21,30.5489501953125C21,30.272810195312502,20.7761,30.0489501953125,20.5,30.0489501953125L7.5,30.0489501953125ZM23.999,45.0489501953125L23.999,47.0978501953125L4,47.0978501953125L4,45.0489501953125L23.999,45.0489501953125Z" fill-rule="evenodd" fill="#E2E2E2" fill-opacity="1"/></g></g></svg>