<svg xmlns="http://www.w3.org/2000/svg" xmlns:xlink="http://www.w3.org/1999/xlink" fill="none" version="1.1" width="18" height="18" viewBox="0 0 18 18"><defs><clipPath id="master_svg0_6105_08034"><rect x="0" y="0" width="18" height="18" rx="0"/></clipPath><filter id="master_svg1_6105_08037" filterUnits="objectBoundingBox" color-interpolation-filters="sRGB" x="0" y="0" width="12.999969482421875" height="13"><feFlood flood-opacity="0" result="BackgroundImageFix"/><feColorMatrix in="SourceAlpha" type="matrix" values="0 0 0 0 0 0 0 0 0 0 0 0 0 0 0 0 0 0 127 0"/><feOffset dy="1" dx="1"/><feGaussianBlur stdDeviation="0"/><feColorMatrix type="matrix" values="0 0 0 0 0 0 0 0 0 0 0 0 0 0 0 0 0 0 0.800000011920929 0"/><feBlend mode="normal" in2="BackgroundImageFix" result="effect1_dropShadow"/><feBlend mode="normal" in="SourceGraphic" in2="effect1_dropShadow" result="shape"/></filter></defs><g clip-path="url(#master_svg0_6105_08034)"><g filter="url(#master_svg1_6105_08037)"><path d="M3.9807403087397217,3L4.980739826339722,3L4.980739826339722,5.68333Q5.185200826339722,5.3751,5.4259708263397215,5.09431Q5.6667508263397215,4.81353,5.940190826339721,4.56444Q6.213620826339722,4.31536,6.515580826339722,4.1017399999999995Q6.817550826339722,3.88813,7.143460826339721,3.713223Q7.469370826339722,3.538316,7.814300826339721,3.404764Q8.159230826339723,3.271211,8.517950826339721,3.181037Q8.876670826339723,3.0908625,9.24375082633972,3.0454312Q9.610830826339722,3,9.98071082633972,3Q10.128000826339722,3,10.275120826339721,3.00722726Q10.422230826339721,3.0144545,10.568810826339721,3.0288916Q10.715390826339721,3.0433288,10.861090826339723,3.0649409Q11.00679082633972,3.0865531,11.151250826339723,3.115288Q11.295710826339722,3.144023,11.438590826339722,3.179812Q11.581470826339721,3.215601,11.722420826339722,3.258358Q11.863370826339722,3.301114,12.002050826339723,3.350736Q12.140730826339722,3.400357,12.276810826339721,3.456723Q12.412890826339721,3.513089,12.546040826339722,3.576064Q12.679190826339722,3.63904,12.809090826339721,3.708472Q12.938990826339722,3.777905,13.065320826339722,3.853628Q13.19166082633972,3.929351,13.314130826339722,4.0111799999999995Q13.436600826339722,4.09301,13.554900826339722,4.18075Q13.673210826339721,4.2684999999999995,13.787070826339722,4.36194Q13.90093082633972,4.45538,14.010070826339721,4.55429Q14.119170826339722,4.65321,14.223370826339721,4.75736Q14.327470826339722,4.86151,14.426370826339722,4.97065Q14.525370826339723,5.0797799999999995,14.618770826339722,5.19364Q14.712170826339722,5.3075,14.799970826339722,5.425800000000001Q14.887670826339722,5.54411,14.969570826339721,5.66658Q15.051370826339722,5.78905,15.127070826339722,5.91538Q15.202770826339721,6.04172,15.27227082633972,6.17162Q15.341670826339723,6.30152,15.404670826339721,6.434670000000001Q15.467570826339722,6.56782,15.523970826339722,6.7039Q15.580370826339722,6.839980000000001,15.629970826339722,6.97866Q15.679570826339722,7.11734,15.722370826339722,7.25829Q15.765070826339722,7.39924,15.800870826339722,7.54212Q15.836670826339722,7.685,15.865370826339722,7.82946Q15.894170826339721,7.97392,15.915770826339722,8.119620000000001Q15.937370826339722,8.26532,15.951770826339722,8.4119Q15.966270826339722,8.55848,15.973470826339721,8.70559Q15.980670826339722,8.85271,15.980670826339722,9Q15.980670826339722,9.14729,15.973470826339721,9.29441Q15.966270826339722,9.44152,15.951770826339722,9.5881Q15.937370826339722,9.73469,15.915770826339722,9.880379999999999Q15.894170826339721,10.02608,15.865370826339722,10.170539999999999Q15.836670826339722,10.315000000000001,15.800870826339722,10.45788Q15.765070826339722,10.600760000000001,15.722370826339722,10.741710000000001Q15.679570826339722,10.88266,15.629970826339722,11.02134Q15.580370826339722,11.16002,15.523970826339722,11.2961Q15.467570826339722,11.43218,15.404670826339721,11.56533Q15.341670826339723,11.69848,15.27227082633972,11.82838Q15.202770826339721,11.95828,15.127070826339722,12.08462Q15.051370826339722,12.21095,14.969570826339721,12.33342Q14.887670826339722,12.45589,14.799970826339722,12.5742Q14.712170826339722,12.6925,14.618770826339722,12.80636Q14.525370826339723,12.92022,14.426370826339722,13.0294Q14.327470826339722,13.1385,14.223370826339721,13.2426Q14.119170826339722,13.3468,14.010070826339721,13.4457Q13.90093082633972,13.5446,13.787070826339722,13.6381Q13.673210826339721,13.7315,13.554900826339722,13.8192Q13.436600826339722,13.907,13.314130826339722,13.9888Q13.19166082633972,14.0706,13.065320826339722,14.1464Q12.938990826339722,14.2221,12.809090826339721,14.2915Q12.679190826339722,14.361,12.546040826339722,14.4239Q12.412890826339721,14.4869,12.276810826339721,14.5433Q12.140730826339722,14.5996,12.002050826339723,14.6493Q11.863370826339722,14.6989,11.722420826339722,14.7416Q11.581470826339721,14.7844,11.438590826339722,14.8202Q11.295710826339722,14.856,11.151250826339723,14.8847Q11.00679082633972,14.9134,10.861090826339723,14.9351Q10.715390826339721,14.9567,10.568810826339721,14.9711Q10.422230826339721,14.9855,10.275120826339721,14.9928Q10.128000826339722,15,9.98071082633972,15Q9.717410826339723,15,9.455130826339722,14.9769Q9.192840826339722,14.9539,8.93359082633972,14.9079Q8.674330826339721,14.862,8.420100826339722,14.7935Q8.16586082633972,14.725,7.918610826339721,14.6345Q7.671350826339722,14.544,7.432970826339721,14.4322Q7.194590826339722,14.3204,6.9669108263397215,14.1882Q6.739240826339722,14.0559,6.524030826339722,13.9042Q6.308820826339722,13.7525,6.107730826339722,13.5826Q5.906630826339722,13.4126,5.721190826339722,13.2257Q5.535760826339722,13.0388,5.3674108263397216,12.83634Q5.199060826339721,12.63389,5.049090826339722,12.41748Q4.899124826339722,12.20107,4.768689826339722,11.97235Q4.638254826339722,11.74363,4.528356826339722,11.50436Q4.418457826339722,11.2651,4.329940826339722,11.01713Q4.241423826339721,10.76916,4.174967826339722,10.514389999999999Q4.108512826339721,10.25961,4.064630026339722,10L5.081730826339721,10Q5.124550826339721,10.20978,5.185150826339722,10.415130000000001Q5.245750826339721,10.62048,5.3236808263397215,10.8199Q5.401610826339722,11.01932,5.496300826339722,11.21135Q5.590990826339722,11.40337,5.701750826339722,11.5866Q5.812510826339722,11.76983,5.938530826339722,11.94292Q6.064550826339722,12.11601,6.204910826339722,12.2777Q6.345260826339722,12.43938,6.498920826339722,12.58848Q6.652590826339722,12.73757,6.818430826339721,12.87298Q6.984280826339722,13.0084,7.161090826339722,13.1291Q7.337900826339721,13.2499,7.524390826339722,13.3551Q7.7108808263397215,13.4602,7.905680826339722,13.5491Q8.100480826339723,13.6379,8.302160826339723,13.7098Q8.503840826339722,13.7817,8.710920826339722,13.8361Q8.91801082633972,13.8905,9.12898082633972,13.9269Q9.339960826339722,13.9634,9.553280826339723,13.9817Q9.766600826339722,14,9.98071082633972,14Q10.10345082633972,14,10.226050826339723,13.994Q10.348640826339722,13.988,10.470800826339723,13.9759Q10.592950826339722,13.9639,10.714360826339721,13.9459Q10.835780826339722,13.9279,10.956160826339723,13.9039Q11.076550826339723,13.88,11.19561082633972,13.8502Q11.314670826339722,13.8203,11.432130826339723,13.7847Q11.54959082633972,13.7491,11.665160826339722,13.7077Q11.78073082633972,13.6664,11.894130826339723,13.6194Q12.007530826339721,13.5724,12.118480826339722,13.5199Q12.229440826339722,13.4675,12.337690826339722,13.4096Q12.445940826339722,13.3517,12.551220826339721,13.2886Q12.656500826339721,13.2255,12.758560826339721,13.1573Q12.860620826339721,13.0892,12.959210826339723,13.016Q13.05779082633972,12.94292,13.152680826339722,12.86505Q13.247560826339722,12.78718,13.338500826339722,12.70475Q13.429450826339721,12.62233,13.516240826339722,12.53553Q13.603030826339722,12.44874,13.685460826339721,12.35779Q13.767890826339721,12.26685,13.845760826339722,12.17197Q13.923630826339721,12.07708,13.996770826339722,11.9785Q14.069870826339722,11.87991,14.138070826339721,11.77785Q14.206270826339722,11.67579,14.269370826339722,11.57051Q14.332470826339721,11.46523,14.390270826339721,11.35698Q14.448170826339721,11.24873,14.500670826339721,11.13777Q14.553170826339722,11.02682,14.600070826339723,10.91342Q14.647070826339721,10.80002,14.688470826339723,10.68445Q14.729770826339722,10.56888,14.765370826339721,10.451419999999999Q14.801070826339721,10.333960000000001,14.830870826339721,10.2149Q14.860670826339721,10.095839999999999,14.884670826339722,9.97545Q14.908570826339721,9.855070000000001,14.926570826339722,9.73365Q14.944570826339723,9.61224,14.956670826339721,9.49009Q14.968670826339721,9.367930000000001,14.974670826339722,9.245339999999999Q14.980670826339722,9.12274,14.980670826339722,9Q14.980670826339722,8.87726,14.974670826339722,8.754660000000001Q14.968670826339721,8.632069999999999,14.956670826339721,8.50991Q14.944570826339723,8.38776,14.926570826339722,8.26635Q14.908570826339721,8.144929999999999,14.884670826339722,8.02455Q14.860670826339721,7.90416,14.830870826339721,7.7851Q14.801070826339721,7.66603,14.765370826339721,7.54858Q14.729770826339722,7.43112,14.688470826339723,7.31555Q14.647070826339721,7.19998,14.600070826339723,7.08658Q14.553170826339722,6.97318,14.500670826339721,6.862220000000001Q14.448170826339721,6.75127,14.390270826339721,6.64302Q14.332470826339721,6.53477,14.269370826339722,6.4294899999999995Q14.206270826339722,6.32421,14.138070826339721,6.22215Q14.069870826339722,6.120089999999999,13.996770826339722,6.0215Q13.923630826339721,5.9229199999999995,13.845760826339722,5.82803Q13.767890826339721,5.73315,13.685460826339721,5.6422Q13.603030826339722,5.55126,13.516240826339722,5.46447Q13.429450826339721,5.37767,13.338500826339722,5.29524Q13.247560826339722,5.21281,13.152680826339722,5.13495Q13.05779082633972,5.05708,12.959210826339723,4.98396Q12.860620826339721,4.91084,12.758560826339721,4.84265Q12.656500826339721,4.7744599999999995,12.551220826339721,4.71136Q12.445940826339722,4.64825,12.337690826339722,4.59039Q12.229440826339722,4.5325299999999995,12.118480826339722,4.48005Q12.007530826339721,4.42757,11.894130826339723,4.3806Q11.78073082633972,4.33363,11.665160826339722,4.29228Q11.54959082633972,4.25093,11.432130826339723,4.2153Q11.314670826339722,4.17967,11.19561082633972,4.14984Q11.076540826339722,4.12002,10.956160826339723,4.09607Q10.835780826339722,4.07213,10.714360826339721,4.05412Q10.592950826339722,4.03611,10.470790826339723,4.02408Q10.348640826339722,4.01205,10.226050826339723,4.0060199999999995Q10.10345082633972,4,9.98071082633972,4Q9.690600826339722,4,9.402450826339722,4.03355Q9.114290826339722,4.0671,8.831940826339721,4.13375Q8.549600826339722,4.20041,8.276860826339721,4.29927Q8.004120826339722,4.39813,7.7446408263397215,4.52786Q7.485160826339722,4.6576,7.242430826339722,4.81648Q6.999700826339722,4.97536,6.7769708263397215,5.161239999999999Q6.554240826339722,5.34713,6.354510826339721,5.55752Q6.154770826339721,5.76792,5.980710826339722,6L7.980740826339721,6L7.980740826339721,7L3.9807403087397217,7L3.9807403087397217,3Z" fill-rule="evenodd" fill="#FFFFFF" fill-opacity="1"/></g></g></svg>