<svg xmlns="http://www.w3.org/2000/svg" xmlns:xlink="http://www.w3.org/1999/xlink" fill="none" version="1.1" width="22" height="22" viewBox="0 0 22 22"><g><path d="M0.825083,14.8493C1.25007,14.8493,1.60551,15.1721,1.64631,15.595L1.65017,15.6742L1.65017,18.7002L1.65292,18.797C1.70196,19.6321,2.3683,20.2983,3.20352,20.3473L3.30033,20.3501L6.32343,20.3501C6.76365,20.35,7.1264,20.6955,7.1477,21.1351C7.169,21.5748,6.84136,21.9537,6.40319,21.9962L6.32343,22L3.30033,22C1.52572,22.0001,0.0687481,20.597,0.00220044,18.8239L0,18.7002L0,15.6742C0,15.2186,0.369402,14.8493,0.825083,14.8493ZM21.1749,14.8493C21.6306,14.8493,22,15.2186,22,15.6742L22,18.7002C22,20.5226,20.5224,22,18.6997,22L15.6766,22C15.2209,22,14.8515,21.6307,14.8515,21.175C14.8515,20.7194,15.2209,20.3501,15.6766,20.3501L18.6997,20.3501C19.5735,20.3501,20.2958,19.6691,20.3471,18.797L20.3498,18.7002L20.3498,15.6742C20.3498,15.2186,20.7192,14.8493,21.1749,14.8493ZM11.7987,4.05055L11.9048,4.10774L16.5215,6.77236C17.0799,7.09478,17.4398,7.67536,17.4802,8.31888L17.484,8.43988L17.484,13.7691C17.4839,14.4138,17.1609,15.0157,16.6238,15.3723L16.5215,15.4361L11.9048,18.1007C11.3465,18.423,10.6639,18.4445,10.0864,18.1579L9.97965,18.1007L5.36359,15.4361C4.80512,15.1137,4.44519,14.5331,4.40484,13.8896L4.40099,13.7686L4.40099,8.43933C4.40102,7.79472,4.72375,7.19291,5.26073,6.83616L5.36359,6.77236L9.97965,4.10775C10.5381,3.78524,11.221,3.76377,11.7987,4.05055ZM6.05061,9.23294L6.05061,13.7691C6.05069,13.8501,6.08651,13.927,6.14851,13.9792L6.18812,14.0067L10.1166,16.2748L10.1166,11.5808L6.05061,9.23294ZM15.8328,9.23294L11.7668,11.5802L11.7668,16.2748L15.6958,14.0073C15.766,13.9667,15.8147,13.8973,15.8289,13.8175L15.8333,13.7691L15.8328,9.23294ZM10.8482,5.51622L10.8042,5.53657L6.87569,7.80411L10.9417,10.1514L15.0077,7.80411L11.0792,5.53657C11.009,5.49607,10.9244,5.48862,10.8482,5.51622ZM6.32343,0C6.77911,0,7.14852,0.369347,7.14852,0.824959C7.14852,1.28057,6.77911,1.64992,6.32343,1.64992L3.30033,1.64992C2.42654,1.64987,1.70418,2.33088,1.65292,3.20304L1.65017,3.29984L1.65017,6.32578C1.65017,6.7814,1.28076,7.15074,0.825083,7.15074C0.369402,7.15074,0,6.7814,0,6.32578L0,3.29984C2.51795e-7,1.47739,1.47761,2.51757e-7,3.30033,2.51757e-7L6.32343,0ZM18.6997,0C20.4743,-0.0000649534,21.9313,1.40299,21.9978,3.17609L22,3.29983L22,6.32578C21.9998,6.76583,21.6542,7.12824,21.2146,7.14939C20.775,7.17054,20.3961,6.84297,20.3537,6.40498L20.3498,6.32578L20.3498,3.29984L20.3471,3.20304C20.298,2.36794,19.6317,1.7017,18.7965,1.65267L18.6997,1.64992L15.6766,1.64992C15.2365,1.6497,14.874,1.30414,14.8528,0.864604C14.8317,0.425072,15.1593,0.046313,15.5974,0.00384987L15.6766,0L18.6997,0Z" fill="#FFFFFF" fill-opacity="0.5199999809265137"/></g></svg>