<svg xmlns="http://www.w3.org/2000/svg" xmlns:xlink="http://www.w3.org/1999/xlink" fill="none" version="1.1" width="30" height="30" viewBox="0 0 30 30"><defs><clipPath id="master_svg0_570_9858"><rect x="0" y="0" width="30" height="30" rx="2"/></clipPath></defs><g clip-path="url(#master_svg0_570_9858)"><g><path d="M7,8.5Q7,8.450754,7.00960736,8.402455Q7.0192147,8.354155,7.0380602,8.308658Q7.0569057,8.263161,7.0842652,8.222215Q7.111625,8.181269,7.146447,8.146447Q7.181269,8.111625,7.222215,8.0842652Q7.263161,8.0569057,7.308658,8.0380602Q7.354155,8.0192147,7.402455,8.00960736Q7.450754,8,7.5,8L22.5,8Q22.5492,8,22.5975,8.00960736Q22.6458,8.0192147,22.6913,8.0380602Q22.736800000000002,8.0569057,22.7778,8.0842652Q22.8187,8.111625,22.8536,8.146447Q22.8884,8.181269,22.9157,8.222215Q22.9431,8.263161,22.9619,8.308658Q22.980800000000002,8.354155,22.9904,8.402455Q23,8.450754,23,8.5L23,12.5Q23,12.54925,22.9904,12.59755Q22.980800000000002,12.64584,22.9619,12.69134Q22.9431,12.73684,22.9157,12.77778Q22.8884,12.81873,22.8536,12.85355Q22.8187,12.88837,22.7778,12.91573Q22.736800000000002,12.94309,22.6913,12.96194Q22.6458,12.98078,22.5975,12.99039Q22.5492,13,22.5,13Q22.4508,13,22.4025,12.99039Q22.3542,12.98078,22.3087,12.96194Q22.263199999999998,12.94309,22.2222,12.91573Q22.1813,12.88837,22.1464,12.85355Q22.1116,12.81873,22.0843,12.77778Q22.0569,12.73684,22.0381,12.69134Q22.019199999999998,12.64584,22.0096,12.59755Q22,12.54925,22,12.5L22,9L8,9L8,21L12.5,21Q12.549240000000001,21,12.59754,21.0096Q12.64584,21.019199999999998,12.69134,21.0381Q12.73684,21.0569,12.77778,21.0843Q12.81873,21.1116,12.85355,21.1464Q12.88837,21.1813,12.91573,21.2222Q12.94309,21.263199999999998,12.96194,21.3087Q12.98078,21.3542,12.99039,21.4025Q13,21.4508,13,21.5Q13,21.5492,12.99039,21.5975Q12.98078,21.6458,12.96194,21.6913Q12.94309,21.736800000000002,12.91573,21.7778Q12.88837,21.8187,12.85355,21.8536Q12.81873,21.8884,12.77778,21.9157Q12.73684,21.9431,12.69134,21.9619Q12.64584,21.980800000000002,12.59754,21.9904Q12.549240000000001,22,12.5,22L7.5,22Q7.450754,22,7.402455,21.9904Q7.354155,21.980800000000002,7.308658,21.9619Q7.263161,21.9431,7.222215,21.9157Q7.181269,21.8884,7.146447,21.8536Q7.111625,21.8187,7.0842652,21.7778Q7.0569057,21.736800000000002,7.0380602,21.6913Q7.0192147,21.6458,7.00960736,21.5975Q7,21.5492,7,21.5L7,8.5Z" fill-rule="evenodd" fill="#E2E2E2" fill-opacity="1"/></g><g><path d="M17,23L17,20L22,20L22,23L23,23L23,17.41406L21.58606,16L16,16L16,23L17,23ZM15.5,15L22,15L24,17L24,23.5C24,23.776139999999998,23.776139999999998,24,23.5,24L15.5,24C15.223858,24,15,23.776139999999998,15,23.5L15,15.5C15,15.223858,15.223858,15,15.5,15ZM18,21L18,23L21,23L21,21L18,21Z" fill="#FFC800" fill-opacity="1"/></g><g><path d="M12.35624,14.47047Q11.80083,16.455370000000002,11.1784,17.49275Q10.57405,18.5,10,18.5Q9.950754,18.5,9.902455,18.509610000000002Q9.854155,18.51921,9.808658,18.53806Q9.763161,18.556910000000002,9.722215,18.58426Q9.681269,18.611620000000002,9.646447,18.64645Q9.611625,18.681269999999998,9.5842652,18.72221Q9.5569057,18.76316,9.5380602,18.80866Q9.5192147,18.85415,9.50960736,18.90245Q9.5,18.95075,9.5,19Q9.5,19.049239999999998,9.50960736,19.097540000000002Q9.5192147,19.14584,9.5380602,19.19134Q9.5569057,19.23684,9.5842652,19.27778Q9.611625,19.318730000000002,9.646447,19.35355Q9.681269,19.388370000000002,9.722215,19.41573Q9.763161,19.443089999999998,9.808658,19.46194Q9.854155,19.48078,9.902455,19.490389999999998Q9.950754,19.5,10,19.5Q11.92769,19.5,13.25006,14.97903Q13.37415,15,13.5,15Q13.57369,15,13.64703,14.99278Q13.72036,14.98555,13.792629999999999,14.97118Q13.86491,14.956800000000001,13.93543,14.935410000000001Q14.005939999999999,14.91402,14.07402,14.885819999999999Q14.142109999999999,14.85762,14.20709,14.82288Q14.272079999999999,14.78814,14.33335,14.7472Q14.39463,14.70626,14.45159,14.65952Q14.50855,14.612770000000001,14.56066,14.56066Q14.612770000000001,14.50855,14.65952,14.45159Q14.70626,14.39463,14.7472,14.33335Q14.78814,14.272079999999999,14.82288,14.20709Q14.85762,14.14211,14.885819999999999,14.07402Q14.91402,14.005939999999999,14.935410000000001,13.93543Q14.956800000000001,13.86491,14.97118,13.792629999999999Q14.98555,13.72036,14.99278,13.64703Q15,13.57369,15,13.5Q15,13.2124,14.89362,12.94519Q17.10548,11.65633,19.9088,11.499217Q19.958,11.496461,20.005699999999997,11.484166Q20.0534,11.471871,20.0977,11.450509Q20.1421,11.429147,20.1815,11.399539Q20.2208,11.369932,20.2536,11.333216Q20.2865,11.2965,20.311500000000002,11.254087Q20.3365,11.211674,20.352800000000002,11.165193Q20.3691,11.118713,20.3759,11.069952Q20.3828,11.02119,20.3801,10.972022Q20.377299999999998,10.922853,20.365000000000002,10.875167Q20.3527,10.827481,20.331400000000002,10.78311Q20.310000000000002,10.738738,20.2804,10.699387Q20.250799999999998,10.660036,20.214100000000002,10.627217Q20.1774,10.5943981,20.134900000000002,10.5693727Q20.0925,10.5443474,20.0461,10.5280772Q19.9996,10.5118071,19.9508,10.50491745Q19.9021,10.49802781,19.852899999999998,10.500783414Q16.695610000000002,10.67773,14.21779,12.18289Q13.88219,12,13.5,12Q13.20614,12,12.93401,12.11088Q11.61506,11.5,10,11.5Q9.950754,11.5,9.902455,11.50961Q9.854155,11.51921,9.808658,11.53806Q9.763161,11.55691,9.722215,11.58427Q9.681269,11.61162,9.646447,11.64645Q9.611625,11.68127,9.5842652,11.72221Q9.5569057,11.76316,9.5380602,11.80866Q9.5192147,11.85416,9.50960736,11.90245Q9.5,11.95075,9.5,12Q9.5,12.04925,9.50960736,12.09754Q9.5192147,12.14584,9.5380602,12.19134Q9.5569057,12.23684,9.5842652,12.27778Q9.611625,12.31873,9.646447,12.35355Q9.681269,12.38838,9.722215,12.41573Q9.763161,12.44309,9.808658,12.46194Q9.854155,12.48079,9.902455,12.49039Q9.950754,12.5,10,12.5Q11.16504,12.5,12.14159,12.86383Q12,13.16616,12,13.5Q12,13.76661,12.09187,14.01689Q12.18375,14.26717,12.35624,14.47047Z" fill-rule="evenodd" fill="#E2E2E2" fill-opacity="1"/></g></g></svg>