<svg xmlns="http://www.w3.org/2000/svg" xmlns:xlink="http://www.w3.org/1999/xlink" fill="none" version="1.1" width="24" height="24" viewBox="0 0 24 24"><g><g><rect x="0" y="0" width="24" height="24.000009536743164" rx="2" fill="#000000" fill-opacity="0.4000000059604645"/><rect x="0.5" y="0.5" width="23" height="23.000009536743164" rx="1.5" fill-opacity="0" stroke-opacity="1" stroke="#505050" fill="none" stroke-width="1"/></g><g><path d="M5,11L20,11L20,12L5,12L5,11Z" fill="#8F8F8F" fill-opacity="1"/></g><g><path d="M5,8L20,8L20,9L5,9L5,8Z" fill="#8F8F8F" fill-opacity="1"/></g><g><path d="M5,17L20,17L20,18L5,18L5,17Z" fill="#8F8F8F" fill-opacity="1"/></g><g><path d="M5,5L20,5L20,6L5,6L5,5Z" fill="#8F8F8F" fill-opacity="1"/></g><g><path d="M5,14L20,14L20,15L5,15L5,14Z" fill="#8F8F8F" fill-opacity="1"/></g></g></svg>