<svg xmlns="http://www.w3.org/2000/svg" xmlns:xlink="http://www.w3.org/1999/xlink" fill="none" version="1.1" width="30"
  height="30" viewBox="0 0 30 30">
  <defs>
    <clipPath id="master_svg0_570_9791">
      <rect x="0" y="0" width="30" height="30" rx="2" />
    </clipPath>
  </defs>
  <g clip-path="url(#master_svg0_570_9791)">
    <g>
      <path
        d="M22.13004,14.730723125Q22.13071,14.729705125,22.13138,14.728683125Q22.21288,14.604020125,22.21288,14.455078125Q22.21288,14.393083125,22.19774,14.332965125Q22.1826,14.272846125,22.15323,14.218247125Q22.12387,14.163647125,22.08206,14.117872125Q22.04025,14.072098125,21.98852,14.037920525Q21.98751,14.037247925,21.98649,14.036580325Q21.86182,13.955078125,21.71288,13.955078125Q21.66234,13.955078125,21.61282,13.965193425Q21.6057,13.966647025,21.59863,13.968306825Q21.50547,13.990171725,21.42697,14.044886925Q21.34847,14.099602125,21.29572,14.179435125Q19.63006,16.700238125,18.500799999999998,18.391998125Q17.37491,16.699898125,15.71753,14.180299125L15.71654,14.178798125Q15.66184,14.096294125,15.57984,14.040853625Q15.49783,13.985413525,15.40088,13.965401925Q15.39585,13.964361725,15.390789999999999,13.963425455Q15.34568,13.955078125,15.2998,13.955078125Q15.1501,13.955078125,15.025030000000001,14.037350325L15.02352,14.038341525Q14.94102,14.093039125,14.885580000000001,14.175046125Q14.83014,14.257053125,14.810128,14.353998125Q14.809088,14.359037125,14.808152,14.364096125Q14.799805,14.409204125,14.799805,14.455078125Q14.799805,14.604784125,14.882077,14.729857125L14.882185,14.730022125Q16.7085,17.506448125,17.899160000000002,19.291248125Q17.52871,19.843458124999998,17.23555,20.276228125Q17.12237,20.013118125,16.931350000000002,19.785868125Q16.43001,19.189458125,15.700050000000001,19.189458125Q14.970083,19.189458125,14.468744,19.785868125Q14,20.343508125,14,21.117078125Q14,21.884538125,14.461364,22.439468124999998Q14.465042,22.444058124999998,14.468826,22.448558124999998Q14.970177,23.044968125,15.70015,23.044968125Q16.43013,23.044968125,16.93148,22.448558124999998Q16.94438,22.433208125,16.96061,22.412698125Q16.98903,22.377358125,17.01561,22.341168125Q17.34735,21.900168125,18.499679999999998,20.188548125Q19.6538,21.906618125,19.99053,22.349558125Q20.02297,22.393258125,20.0581,22.435708124999998Q20.06364,22.442458125,20.06877,22.448558124999998Q20.57012,23.044968125,21.30009,23.044968125Q22.030070000000002,23.044968125,22.53142,22.448558124999998Q22.538159999999998,22.440538125,22.54456,22.432248125Q22.99995,21.879558125,22.99995,21.117078125Q22.99995,20.343508125,22.5312,19.785868125Q22.02986,19.189458125,21.2999,19.189458125Q20.56994,19.189458125,20.0686,19.785868125Q19.877119999999998,20.013668125,19.763849999999998,20.277488124999998Q19.47079,19.844298125,19.10124,19.292028125Q20.29477,17.508208125,22.13004,14.730723125ZM16.165869999999998,20.429328124999998Q16.40009,20.707968125,16.40009,21.117078125Q16.40009,21.526188125,16.165869999999998,21.804838125Q15.96423,22.044708125,15.700050000000001,22.044708125Q15.43586,22.044708125,15.23423,21.804838125Q15,21.526188125,15,21.117078125Q15,20.707968125,15.23423,20.429328124999998Q15.43586,20.189458125,15.700050000000001,20.189458125Q15.96423,20.189458125,16.165869999999998,20.429328124999998ZM21.76572,20.429328124999998Q21.99995,20.707968125,21.99995,21.117078125Q21.99995,21.526188125,21.76572,21.804838125Q21.56409,22.044708125,21.2999,22.044708125Q21.03571,22.044708125,20.83408,21.804838125Q20.59985,21.526188125,20.59985,21.117078125Q20.59985,20.707968125,20.83408,20.429328124999998Q21.03571,20.189458125,21.2999,20.189458125Q21.56409,20.189458125,21.76572,20.429328124999998Z"
        fill-rule="evenodd" fill="#FFC800" fill-opacity="1" />
    </g>
    <g>
      <path
        d="M7,8.5Q7,8.450754,7.00960736,8.402455Q7.0192147,8.354155,7.0380602,8.308658Q7.0569057,8.263161,7.0842652,8.222215Q7.111625,8.181269,7.146447,8.146447Q7.181269,8.111625,7.222215,8.0842652Q7.263161,8.0569057,7.308658,8.0380602Q7.354155,8.0192147,7.402455,8.00960736Q7.450754,8,7.5,8L22.5,8Q22.5492,8,22.5975,8.00960736Q22.6458,8.0192147,22.6913,8.0380602Q22.736800000000002,8.0569057,22.7778,8.0842652Q22.8187,8.111625,22.8536,8.146447Q22.8884,8.181269,22.9157,8.222215Q22.9431,8.263161,22.9619,8.308658Q22.980800000000002,8.354155,22.9904,8.402455Q23,8.450754,23,8.5L23,12.5Q23,12.54925,22.9904,12.59755Q22.980800000000002,12.64584,22.9619,12.69134Q22.9431,12.73684,22.9157,12.77778Q22.8884,12.81873,22.8536,12.85355Q22.8187,12.88837,22.7778,12.91573Q22.736800000000002,12.94309,22.6913,12.96194Q22.6458,12.98078,22.5975,12.99039Q22.5492,13,22.5,13Q22.4508,13,22.4025,12.99039Q22.3542,12.98078,22.3087,12.96194Q22.263199999999998,12.94309,22.2222,12.91573Q22.1813,12.88837,22.1464,12.85355Q22.1116,12.81873,22.0843,12.77778Q22.0569,12.73684,22.0381,12.69134Q22.019199999999998,12.64584,22.0096,12.59755Q22,12.54925,22,12.5L22,9L8,9L8,21L12.5,21Q12.549240000000001,21,12.59754,21.0096Q12.64584,21.019199999999998,12.69134,21.0381Q12.73684,21.0569,12.77778,21.0843Q12.81873,21.1116,12.85355,21.1464Q12.88837,21.1813,12.91573,21.2222Q12.94309,21.263199999999998,12.96194,21.3087Q12.98078,21.3542,12.99039,21.4025Q13,21.4508,13,21.5Q13,21.5492,12.99039,21.5975Q12.98078,21.6458,12.96194,21.6913Q12.94309,21.736800000000002,12.91573,21.7778Q12.88837,21.8187,12.85355,21.8536Q12.81873,21.8884,12.77778,21.9157Q12.73684,21.9431,12.69134,21.9619Q12.64584,21.980800000000002,12.59754,21.9904Q12.549240000000001,22,12.5,22L7.5,22Q7.450754,22,7.402455,21.9904Q7.354155,21.980800000000002,7.308658,21.9619Q7.263161,21.9431,7.222215,21.9157Q7.181269,21.8884,7.146447,21.8536Q7.111625,21.8187,7.0842652,21.7778Q7.0569057,21.736800000000002,7.0380602,21.6913Q7.0192147,21.6458,7.00960736,21.5975Q7,21.5492,7,21.5L7,8.5Z"
        fill-rule="evenodd" fill="#E2E2E2" fill-opacity="1" />
    </g>
  </g>
</svg>