<svg xmlns="http://www.w3.org/2000/svg" xmlns:xlink="http://www.w3.org/1999/xlink" fill="none" version="1.1" width="24" height="24" viewBox="0 0 24 24"><g><g><path d="M16.604802343750002,15.352390625L20.39990234375,19.146590625L19.14610234375,20.400390625L15.35190234375,16.605290625000002C13.94010234375,17.736990625,12.18409234375,18.352590624999998,10.37470234375,18.349990625C5.97261234375,18.349990625,2.39990234375,14.777290625,2.39990234375,10.375190625C2.39990234375,5.973100625,5.97261234375,2.400390625,10.37470234375,2.400390625C14.77680234375,2.400390625,18.34950234375,5.973100625,18.34950234375,10.375190625C18.352102343749998,12.184580625,17.73650234375,13.940590625,16.604802343750002,15.352390625ZM14.82730234375,14.694890625C15.95180234375,13.538390625,16.57990234375,11.988250625,16.57730234375,10.375190625C16.57730234375,6.947800625,13.80120234375,4.1725706250000005,10.37470234375,4.1725706250000005C6.94731234375,4.1725706250000005,4.1720823437500005,6.947800625,4.1720823437500005,10.375190625C4.1720823437500005,13.801690625,6.94731234375,16.577790625,10.37470234375,16.577790625C11.98776234375,16.580390625,13.53790234375,15.952290625,14.69440234375,14.827790625L14.82730234375,14.694890625Z" fill="#E2E2E2" fill-opacity="1"/></g></g></svg>