<svg xmlns="http://www.w3.org/2000/svg" xmlns:xlink="http://www.w3.org/1999/xlink" fill="none" version="1.1" width="30" height="30" viewBox="0 0 30 30"><defs><clipPath id="master_svg0_5359_20178"><rect x="0" y="0" width="30" height="30" rx="2"/></clipPath></defs><g clip-path="url(#master_svg0_5359_20178)"><g><path d="M7,8.5Q7,8.450754,7.00960736,8.402455Q7.0192147,8.354155,7.0380602,8.308658Q7.0569057,8.263161,7.0842652,8.222215Q7.111625,8.181269,7.146447,8.146447Q7.181269,8.111625,7.222215,8.0842652Q7.263161,8.0569057,7.308658,8.0380602Q7.354155,8.0192147,7.402455,8.00960736Q7.450754,8,7.5,8L22.5,8Q22.5492,8,22.5975,8.00960736Q22.6458,8.0192147,22.6913,8.0380602Q22.736800000000002,8.0569057,22.7778,8.0842652Q22.8187,8.111625,22.8536,8.146447Q22.8884,8.181269,22.9157,8.222215Q22.9431,8.263161,22.9619,8.308658Q22.980800000000002,8.354155,22.9904,8.402455Q23,8.450754,23,8.5L23,14.5Q23,14.54925,22.9904,14.59754Q22.980800000000002,14.64584,22.9619,14.69134Q22.9431,14.73684,22.9157,14.77778Q22.8884,14.81873,22.8536,14.85355Q22.8187,14.88837,22.7778,14.91573Q22.736800000000002,14.94309,22.6913,14.96194Q22.6458,14.98078,22.5975,14.99039Q22.5492,15,22.5,15Q22.4508,15,22.4025,14.99039Q22.3542,14.98078,22.3087,14.96194Q22.263199999999998,14.94309,22.2222,14.91573Q22.1813,14.88837,22.1464,14.85355Q22.1116,14.81873,22.0843,14.77778Q22.0569,14.73684,22.0381,14.69134Q22.019199999999998,14.64584,22.0096,14.59754Q22,14.54925,22,14.5L22,9L8,9L8,21L16.5,21Q16.549239999999998,21,16.597540000000002,21.0096Q16.64584,21.019199999999998,16.69134,21.0381Q16.73684,21.0569,16.77778,21.0843Q16.818730000000002,21.1116,16.85355,21.1464Q16.888370000000002,21.1813,16.91573,21.2222Q16.943089999999998,21.263199999999998,16.96194,21.3087Q16.98078,21.3542,16.990389999999998,21.4025Q17,21.4508,17,21.5Q17,21.5492,16.990389999999998,21.5975Q16.98078,21.6458,16.96194,21.6913Q16.943089999999998,21.736800000000002,16.91573,21.7778Q16.888370000000002,21.8187,16.85355,21.8536Q16.818730000000002,21.8884,16.77778,21.9157Q16.73684,21.9431,16.69134,21.9619Q16.64584,21.980800000000002,16.597540000000002,21.9904Q16.549239999999998,22,16.5,22L7.5,22Q7.450754,22,7.402455,21.9904Q7.354155,21.980800000000002,7.308658,21.9619Q7.263161,21.9431,7.222215,21.9157Q7.181269,21.8884,7.146447,21.8536Q7.111625,21.8187,7.0842652,21.7778Q7.0569057,21.736800000000002,7.0380602,21.6913Q7.0192147,21.6458,7.00960736,21.5975Q7,21.5492,7,21.5L7,8.5Z" fill-rule="evenodd" fill="#E2E2E2" fill-opacity="1"/></g><g><ellipse cx="11" cy="12" rx="1" ry="1" fill="#E2E2E2" fill-opacity="1"/></g><g><path d="M22.723599999999998,12.947213Q22.785899999999998,12.916069,22.8373,12.869088Q22.8887,12.822106,22.9253,12.762865Q22.9619,12.703624,22.981,12.636633Q23,12.5696419,23,12.5Q23,12.4507543,22.9904,12.4024549Q22.980800000000002,12.354155,22.9619,12.308658Q22.9431,12.263161,22.9157,12.222215Q22.8884,12.181269,22.8536,12.146447Q22.8187,12.111625,22.7778,12.084265Q22.736800000000002,12.056906,22.6913,12.03806Q22.6458,12.019214999999999,22.5975,12.009607Q22.5492,12,22.5,12Q22.381999999999998,12,22.276400000000002,12.052786L19.776400000000002,13.302786Q19.714100000000002,13.333931,19.6627,13.380912Q19.6113,13.427893,19.5747,13.487135Q19.5381,13.54638,19.519,13.61337Q19.5,13.68036,19.5,13.75Q19.5,13.79925,19.5096,13.84755Q19.519199999999998,13.89584,19.5381,13.94134Q19.5569,13.98684,19.5843,14.02778Q19.6116,14.06873,19.6464,14.10355Q19.6813,14.13838,19.7222,14.16573Q19.763199999999998,14.19309,19.8087,14.21194Q19.8542,14.23079,19.9025,14.24039Q19.9508,14.25,20,14.25Q20.118000000000002,14.25,20.223599999999998,14.19721L22.723599999999998,12.947214L22.723599999999998,12.947213ZM15.72342,16.44731L15.72361,16.44721Q15.7859,16.41607,15.837299999999999,16.36909Q15.88871,16.32211,15.925329999999999,16.26287Q15.96194,16.20362,15.98097,16.13663Q16,16.06964,16,16Q16,15.95075,15.99039,15.90245Q15.98078,15.85415,15.96194,15.80866Q15.94309,15.76316,15.91573,15.72221Q15.88837,15.68127,15.85355,15.64645Q15.81873,15.61162,15.77778,15.58426Q15.73684,15.55691,15.69134,15.53806Q15.64584,15.519210000000001,15.59754,15.50961Q15.54925,15.5,15.5,15.5Q15.381969999999999,15.5,15.27639,15.55279L14.53592,15.923020000000001L11.4902,13.89254L7.70969,16.59291L7.709381,16.593130000000002Q7.610832,16.66353,7.555416,16.77121Q7.5,16.87889,7.5,17Q7.5,17.04925,7.509607,17.09755Q7.519215,17.14584,7.53806,17.19134Q7.556906,17.23684,7.584265,17.27778Q7.611625,17.318730000000002,7.646447,17.35355Q7.681269,17.388370000000002,7.722215,17.41573Q7.763161,17.443089999999998,7.808658,17.46194Q7.854155,17.48078,7.9024549,17.490389999999998Q7.9507543,17.5,8,17.5Q8.160233,17.5,8.290619,17.406869999999998L8.290928,17.40665L11.5098,15.10746L14.46408,17.07698L15.72342,16.44731Z" fill-rule="evenodd" fill="#E2E2E2" fill-opacity="1"/></g><g><path d="M18,15L19.5,22L21,19L24.5,18.5L18,15Z" fill="#FFC800" fill-opacity="1"/><path d="M17.511099,15.104765L19.0111,22.10476Q19.03497,22.21615,19.10473,22.30621Q19.174500000000002,22.39627,19.27639,22.44721Q19.32044,22.46924,19.36794,22.48224Q19.41543,22.49525,19.46456,22.498739999999998Q19.51368,22.50223,19.56254,22.49607Q19.6114,22.489910000000002,19.65811,22.474339999999998Q19.70483,22.45877,19.74762,22.43438Q19.790399999999998,22.40999,19.8276,22.37773Q19.8648,22.34546,19.895,22.30656Q19.92519,22.26765,19.94721,22.22361L21.07582,19.96639L23.09283,22.7902L23.093130000000002,22.79062Q23.16353,22.88917,23.27121,22.944580000000002Q23.37889,23,23.5,23Q23.54924,23,23.597540000000002,22.990389999999998Q23.64584,22.98078,23.69134,22.96194Q23.73684,22.943089999999998,23.77778,22.91573Q23.818730000000002,22.888370000000002,23.85355,22.85355Q23.888370000000002,22.818730000000002,23.91573,22.77778Q23.943089999999998,22.73684,23.96194,22.69134Q23.98078,22.64584,23.990389999999998,22.597540000000002Q24,22.54925,24,22.5Q24,22.33977,23.906869999999998,22.20938L23.906570000000002,22.20896L21.88492,19.37866L24.57071,18.99497Q24.68856,18.97814,24.78618,18.91Q24.8838,18.84187,24.94024,18.73705Q24.96358,18.69369,24.97802,18.64661Q24.99246,18.59953,24.99744,18.550530000000002Q25.00242,18.50154,24.99774,18.45252Q24.99306,18.40349,24.97891,18.35633Q24.96476,18.30916,24.941679999999998,18.26566Q24.918599999999998,18.22215,24.88748,18.18399Q24.85635,18.14583,24.81838,18.11447Q24.78041,18.08311,24.73705,18.05976L18.23705,14.559764Q18.158641,14.517544000000001,18.0704765,14.504992Q17.9823121,14.49244,17.895235,14.511099Q17.847083,14.521417,17.801869,14.540931Q17.756654,14.560446,17.716116,14.588405999999999Q17.675577,14.616366,17.641272999999998,14.651698Q17.606968,14.687029,17.580215,14.728374Q17.553462,14.76972,17.535289,14.81549Q17.517117,14.86126,17.508223,14.9096954Q17.499328,14.9581313,17.500054,15.00737163Q17.50078,15.056612,17.511099,15.104765ZM19.69024,20.50149L20.55279,18.77639Q20.60782,18.66633,20.70764,18.59438Q20.80747,18.52243,20.92929,18.50503L22.92518,18.2199L18.715609,15.953206L19.69024,20.50149Z" fill-rule="evenodd" fill="#FFC800" fill-opacity="1"/></g></g></svg>