<svg xmlns="http://www.w3.org/2000/svg" xmlns:xlink="http://www.w3.org/1999/xlink" fill="none" version="1.1" width="30"
  height="26" viewBox="15 15 30 26">
  <defs>
    <filter id="master_svg0_1_4929" filterUnits="objectBoundingBox" color-interpolation-filters="sRGB" x="-20" y="-20"
      width="76" height="76">
      <feFlood flood-opacity="0" result="BackgroundImageFix" />
      <feColorMatrix in="SourceAlpha" type="matrix" values="0 0 0 0 0 0 0 0 0 0 0 0 0 0 0 0 0 0 127 0" />
      <feOffset dy="0" dx="0" />
      <feGaussianBlur stdDeviation="5" />
      <feColorMatrix type="matrix" values="0 0 0 0 0 0 0 0 0 0 0 0 0 0 0 0 0 0 0.10000000149011612 0" />
      <feBlend mode="normal" in2="BackgroundImageFix" result="effect1_dropShadow" />
      <feBlend mode="normal" in="SourceGraphic" in2="effect1_dropShadow" result="shape" />
    </filter>
    <linearGradient x1="0.5" y1="0.08961928635835648" x2="0.5" y2="0.9078529477119446" id="master_svg1_1_1711">
      <stop offset="0%" stop-color="#FFFFFF" stop-opacity="1" />
      <stop offset="100%" stop-color="#B6B6B6" stop-opacity="1" />
    </linearGradient>
    <linearGradient x1="0.5" y1="0" x2="0.5" y2="1" id="master_svg2_1_1779">
      <stop offset="0%" stop-color="#535353" stop-opacity="1" />
      <stop offset="100%" stop-color="#909090" stop-opacity="1" />
    </linearGradient>
    <linearGradient x1="0" y1="0.5" x2="1" y2="0.5" id="master_svg3_1_1790">
      <stop offset="0%" stop-color="#1C1C1C" stop-opacity="1" />
      <stop offset="98.57142567634583%" stop-color="#3D3D3D" stop-opacity="1" />
    </linearGradient>
    <linearGradient x1="0.5" y1="1" x2="0.5" y2="0" id="master_svg4_1_1782">
      <stop offset="0%" stop-color="#1C1C1C" stop-opacity="1" />
      <stop offset="98.57142567634583%" stop-color="#3D3D3D" stop-opacity="1" />
    </linearGradient>
    <linearGradient x1="0.5" y1="1" x2="0.5" y2="0" id="master_svg5_1_1782">
      <stop offset="0%" stop-color="#1C1C1C" stop-opacity="1" />
      <stop offset="98.57142567634583%" stop-color="#3D3D3D" stop-opacity="1" />
    </linearGradient>
  </defs>
  <g filter="url(#master_svg0_1_4929)">
    <g>
      <path d="" fill="#D8D8D8" fill-opacity="0" />
    </g>
    <g>
      <g>
        <path
          d="M36.73875,29L39.261250000000004,29L39.261250000000004,30.46338C39.70397,30.61847,40.108869999999996,30.85289,40.45857,31.14942L41.73816,30.41724L42.99941,32.582300000000004L41.72058,33.31405C41.76206,33.53644,41.78374,33.76571,41.78374,34C41.78374,34.23418,41.76208,34.46335,41.72064,34.68564L43,35.417699999999996L41.73876,37.58276L40.45881,36.85037C40.10906,37.147,39.70407,37.3815,39.261250000000004,37.53662L39.261250000000004,39L36.73875,39L36.73875,37.53662C36.29579,37.38145,35.89069,37.14685,35.54087,36.8501L34.26125,37.582300000000004L33,35.41724L34.27929,34.68523C34.2379,34.46306,34.21626,34.23403,34.21626,34C34.21626,33.76586,34.23792,33.53673,34.27934,33.31447L33.000591786,32.58276L34.26184,30.4177L35.54111,31.1497C35.89088,30.85304,36.29589,30.61852,36.73875,30.46338L36.73875,29Z"
          fill-rule="evenodd" fill="#2E2E2F" fill-opacity="1" />
        <path
          d="M39.261250000000004,29L39.261250000000004,30.46338C39.70397,30.61847,40.108869999999996,30.85289,40.45857,31.14942L41.73816,30.41724L41.99265,30.8541L42.99941,32.582300000000004L41.72058,33.31405C41.72132,33.31803,41.72206,33.32201,41.72278,33.32599C41.76283,33.54464,41.78374,33.7699,41.78374,34C41.78374,34.22999,41.76285,34.45514,41.72284,34.6737C41.72211,34.67768,41.721379999999996,34.68166,41.72064,34.68564L43,35.417699999999996L41.99325,37.1459L41.73876,37.58276L40.45881,36.85037C40.10906,37.147,39.70407,37.3815,39.261250000000004,37.53662L39.261250000000004,39L36.73875,39L36.73875,37.53662C36.29579,37.38145,35.89069,37.14685,35.54087,36.8501L34.26125,37.582300000000004L34.00675,37.14544L33,35.41724L34.27929,34.68523C34.27855,34.68125,34.27781,34.677260000000004,34.27708,34.67328C34.23713,34.45485,34.21626,34.22984,34.21626,34C34.21626,33.77005,34.23715,33.54493,34.27714,33.32641C34.27787,33.32243,34.2786,33.31845,34.27934,33.31447L33.000591786,32.58276L34.00735,30.85456L34.26184,30.4177L35.54111,31.1497C35.89088,30.85304,36.29589,30.61852,36.73875,30.46338L36.73875,29L39.261250000000004,29ZM39.16507,32.67483L39.64235,33.07955L39.75448,33.68075Q39.78374,33.83759,39.78374,34Q39.78374,34.16234,39.754509999999996,34.31911L39.64243,34.92031L39.16518,35.32508Q38.912,35.5398,38.60004,35.64908L38,35.85927L37.39996,35.64908Q37.0879,35.53976,36.83467,35.32494L36.35746,34.92013L36.24546,34.31892Q36.21626,34.16224,36.21626,34Q36.21626,33.83769,36.24548,33.68094L36.35754,33.07974L36.83478,32.67496Q37.08797,32.460210000000004,37.39996,32.35092L38,32.14073L38.60004,32.35092Q38.91193,32.46018,39.16507,32.67483Z"
          fill-rule="evenodd" fill="#FFC800" fill-opacity="1" />
      </g>
      <g>
        <ellipse cx="38" cy="34" rx="2" ry="2" fill="#2E2E2F" fill-opacity="1" />
      </g>
    </g>
    <g>
      <g>
        <path
          d="M33,24C33,26.485300000000002,31.882,29.157400000000003,30.5,31C29,33,28.579700000000003,35.8375,27.5029,36.293C26.4262,36.748400000000004,25.2426,37,24,37C22.75736,37,21.57382,36.748400000000004,20.49707,36.293C19.42033,35.8375,19,33,17.77148,31C16.56593,29.037399999999998,15,26.485300000000002,15,24C15,19.02944,19.02944,15,24,15C28.970599999999997,15,33,19.02944,33,24Z"
          fill="url(#master_svg1_1_1711)" fill-opacity="1" />
      </g>
      <g>
        <rect x="19" y="35" width="10" height="5" rx="1" fill="url(#master_svg2_1_1779)" fill-opacity="1" />
      </g>
      <g>
        <rect x="19" y="38" width="10" height="1" rx="0" fill="url(#master_svg3_1_1790)" fill-opacity="1" />
      </g>
      <g>
        <path d="M22,29L20,24L21,24L23,29L23,35L22,35L22,29Z" fill-rule="evenodd" fill="url(#master_svg4_1_1782)"
          fill-opacity="1" />
      </g>
      <g transform="matrix(-1,0,0,1,56,0)">
        <path d="M30,29L28,24L29,24L31,29L31,35L30,35L30,29Z" fill-rule="evenodd" fill="url(#master_svg5_1_1782)"
          fill-opacity="1" />
      </g>
    </g>
  </g>
</svg>