<svg xmlns="http://www.w3.org/2000/svg" xmlns:xlink="http://www.w3.org/1999/xlink" fill="none" version="1.1" width="24" height="24" viewBox="0 0 24 24"><g><g><rect x="0" y="0" width="24" height="24.000009536743164" rx="2" fill="#000000" fill-opacity="0.4000000059604645"/><rect x="0.5" y="0.5" width="23" height="23.000009536743164" rx="1.5" fill-opacity="0" stroke-opacity="1" stroke="#505050" fill="none" stroke-width="1"/></g><g><path d="M13,4L13,10.29297L17.4497,5.84326L18.1568,6.55037L13.70718,11L20,11L20,12L13.70703,12L18.1569,16.4499L17.4498,17.157L13,12.70718L13,19L12,19L12,12.70718L7.55021,17.157L6.84311,16.4499L11.29297,12L5,12L5,11L11.292819999999999,11L6.84319,6.55037L7.55029,5.84326L12,10.29297L12,4L13,4Z" fill-rule="evenodd" fill="#8F8F8F" fill-opacity="1"/></g></g></svg>