<svg xmlns="http://www.w3.org/2000/svg" xmlns:xlink="http://www.w3.org/1999/xlink" fill="none" version="1.1" width="18.99993896484375" height="18.999755859375" viewBox="0 0 18.99993896484375 18.999755859375"><g><path d="M0,7.64279L0,0.5Q0,0.450754,0.00960736,0.402455Q0.0192147,0.354155,0.0380602,0.308658Q0.0569057,0.263161,0.0842652,0.222215Q0.111625,0.181269,0.146447,0.146447Q0.181269,0.111625,0.222215,0.0842652Q0.263161,0.0569057,0.308658,0.0380602Q0.354155,0.0192147,0.402455,0.00960736Q0.450754,0,0.5,0L7.64284,0Q7.69209,0,7.74038,0.00960736Q7.78868,0.0192147,7.83418,0.0380602Q7.87968,0.0569057,7.92062,0.0842652Q7.96157,0.111625,7.99639,0.146447Q8.03121,0.181269,8.05857,0.222215Q8.08593,0.263161,8.10478,0.308658Q8.12362,0.354155,8.13323,0.402455Q8.14284,0.450754,8.14284,0.5L8.14284,7.64279Q8.14284,7.69204,8.13323,7.74034Q8.12362,7.78864,8.10478,7.83413Q8.08593,7.87963,8.05857,7.92058Q8.03121,7.96152,7.99639,7.99634Q7.96157,8.03117,7.92062,8.05853Q7.87968,8.08588,7.83418,8.10473Q7.78868,8.12358,7.74039,8.13318Q7.69209,8.14279,7.64284,8.14279L0.5,8.14279Q0.450754,8.14279,0.402455,8.13318Q0.354155,8.12358,0.308658,8.10473Q0.263161,8.08588,0.222215,8.05853Q0.181269,8.03117,0.146447,7.99634Q0.111625,7.96152,0.0842652,7.92058Q0.0569057,7.87963,0.0380602,7.83413Q0.0192147,7.78864,0.00960736,7.74034Q0,7.69204,0,7.64279ZM0,18.4997L0,11.3569Q0,11.3077,0.00960736,11.2594Q0.0192147,11.2111,0.0380602,11.1656Q0.0569057,11.1201,0.0842652,11.0791Q0.111625,11.0382,0.146447,11.0034Q0.181269,10.9686,0.222215,10.9412Q0.263161,10.9138,0.308658,10.895Q0.354155,10.8761,0.402455,10.8665Q0.450754,10.8569,0.5,10.8569L7.64284,10.8569Q7.69209,10.8569,7.74038,10.8665Q7.78868,10.8761,7.83418,10.895Q7.87968,10.9138,7.92062,10.9412Q7.96157,10.9686,7.99639,11.0034Q8.03121,11.0382,8.05857,11.0791Q8.08593,11.1201,8.10478,11.1656Q8.12362,11.2111,8.13323,11.2594Q8.14284,11.3077,8.14284,11.3569L8.14284,18.4997Q8.14284,18.549,8.13323,18.5973Q8.12362,18.6456,8.10478,18.6911Q8.08593,18.7366,8.05857,18.7775Q8.03121,18.8185,7.99639,18.8533Q7.96157,18.8881,7.92062,18.9155Q7.87968,18.9428,7.83418,18.9617Q7.78868,18.9805,7.74039,18.9901Q7.69209,18.9997,7.64284,18.9997L0.5,18.9997Q0.450754,18.9997,0.402455,18.9901Q0.354155,18.9805,0.308658,18.9617Q0.263161,18.9428,0.222215,18.9155Q0.181269,18.8881,0.146447,18.8533Q0.111625,18.8185,0.0842652,18.7775Q0.0569057,18.7366,0.0380602,18.6911Q0.0192147,18.6456,0.00960736,18.5973Q0,18.549,0,18.4997ZM10.8571,7.64279L10.8571,0.5Q10.8571,0.450754,10.8667,0.402455Q10.8763,0.354155,10.8952,0.308658Q10.914,0.263161,10.9414,0.222215Q10.9687,0.181269,11.0036,0.146447Q11.0384,0.111625,11.0793,0.0842652Q11.1203,0.0569057,11.1658,0.0380602Q11.2113,0.0192147,11.2596,0.00960736Q11.3079,0,11.3571,0L18.5,0Q18.5492,0,18.5975,0.00960736Q18.6458,0.0192147,18.6913,0.0380602Q18.7368,0.0569057,18.7777,0.0842652Q18.8187,0.111625,18.8535,0.146447Q18.8883,0.181269,18.9157,0.222215Q18.9431,0.263161,18.9619,0.308658Q18.9807,0.354155,18.9904,0.402455Q19,0.450754,19,0.5L19,7.64279Q19,7.69204,18.9903,7.74034Q18.9807,7.78864,18.9619,7.83413Q18.9431,7.87963,18.9157,7.92058Q18.8883,7.96152,18.8535,7.99634Q18.8187,8.03117,18.7777,8.05853Q18.7368,8.08588,18.6913,8.10473Q18.6458,8.12358,18.5975,8.13318Q18.5492,8.14279,18.5,8.14279L11.3571,8.14279Q11.3079,8.14279,11.2596,8.13318Q11.2113,8.12358,11.1658,8.10473Q11.1203,8.08588,11.0793,8.05853Q11.0384,8.03117,11.0036,7.99634Q10.9687,7.96152,10.9414,7.92058Q10.914,7.87963,10.8952,7.83413Q10.8763,7.78864,10.8667,7.74034Q10.8571,7.69204,10.8571,7.64279ZM10.8571,18.4997L10.8571,11.3569Q10.8571,11.3077,10.8667,11.2594Q10.8763,11.2111,10.8952,11.1656Q10.914,11.1201,10.9414,11.0791Q10.9687,11.0382,11.0036,11.0034Q11.0384,10.9686,11.0793,10.9412Q11.1203,10.9138,11.1658,10.895Q11.2113,10.8761,11.2596,10.8665Q11.3079,10.8569,11.3571,10.8569L18.5,10.8569Q18.5492,10.8569,18.5975,10.8665Q18.6458,10.8761,18.6913,10.895Q18.7368,10.9138,18.7777,10.9412Q18.8187,10.9686,18.8535,11.0034Q18.8883,11.0382,18.9157,11.0791Q18.9431,11.1201,18.9619,11.1656Q18.9807,11.2111,18.9904,11.2594Q19,11.3077,19,11.3569L19,18.4997Q19,18.549,18.9903,18.5973Q18.9807,18.6456,18.9619,18.6911Q18.9431,18.7366,18.9157,18.7775Q18.8883,18.8185,18.8535,18.8533Q18.8187,18.8881,18.7777,18.9155Q18.7368,18.9428,18.6913,18.9617Q18.6458,18.9805,18.5975,18.9901Q18.5492,18.9997,18.5,18.9997L11.3571,18.9997Q11.3079,18.9997,11.2596,18.9901Q11.2113,18.9805,11.1658,18.9617Q11.1203,18.9428,11.0793,18.9155Q11.0384,18.8881,11.0036,18.8533Q10.9687,18.8185,10.9414,18.7775Q10.914,18.7366,10.8952,18.6911Q10.8763,18.6456,10.8667,18.5973Q10.8571,18.549,10.8571,18.4997Z" fill="#E2E2E2" fill-opacity="1"/></g></svg>