<svg xmlns="http://www.w3.org/2000/svg" xmlns:xlink="http://www.w3.org/1999/xlink" fill="none" version="1.1" width="12" height="12" viewBox="0 0 12 12"><g><g><path d="M8.3332959765625,3.666663492279053Q8.3332959765625,3.781293492279053,8.322055976562499,3.895373492279053Q8.3108259765625,4.009453492279053,8.2884559765625,4.121873492279052Q8.2660959765625,4.234303492279053,8.232815976562499,4.343993492279052Q8.1995459765625,4.4536934922790525,8.155675976562499,4.559593492279053Q8.1118159765625,4.665493492279053,8.0577759765625,4.766593492279053Q8.0037359765625,4.867683492279053,7.9400559765625,4.962993492279052Q7.8763659765625,5.058303492279053,7.8036459765625,5.146913492279053Q7.7309259765625,5.235523492279053,7.6498759765625,5.316583492279053Q7.5688159765625,5.397633492279053,7.4802059765625,5.470353492279052Q7.3915959765625,5.543073492279053,7.296285976562499,5.606763492279053Q7.2009759765625,5.670443492279053,7.099885976562501,5.724483492279052Q6.9987959765625,5.778523492279053,6.8928859765625,5.8223834922790525Q6.7869859765625,5.866253492279053,6.6772859765625,5.8995234922790525Q6.5675959765625,5.932803492279053,6.455165976562499,5.955163492279053Q6.3427459765625,5.977533492279052,6.2286659765625,5.988763492279053Q6.1145859765625,6.000003492279053,5.9999559765625,6.000003492279053Q5.8853259765625,6.000003492279053,5.7712559765625,5.988763492279053Q5.6571759765625,5.977533492279052,5.5447459765625,5.955163492279053Q5.4323259765625,5.932803492279053,5.3226259765625,5.8995234922790525Q5.2129359765625,5.866253492279053,5.1070359765625,5.8223834922790525Q5.0011259765625,5.778523492279053,4.9000359765625,5.724483492279052Q4.7989359765625,5.670443492279053,4.7036259765625,5.606763492279053Q4.6083179765625,5.543073492279053,4.5197079765625,5.470353492279052Q4.4310989765625,5.397633492279053,4.3500429765625,5.316583492279053Q4.2689879765625,5.235523492279053,4.1962679765625,5.146913492279053Q4.1235479765625,5.058303492279053,4.0598639765625,4.962993492279052Q3.9961789765624998,4.867683492279053,3.9421429765625,4.766593492279053Q3.8881069765625,4.665503492279052,3.8442399765625,4.559593492279053Q3.8003739765625,4.4536934922790525,3.7670989765625,4.343993492279052Q3.7338233765625,4.234303492279053,3.7114602765625,4.121873492279052Q3.6890972765625,4.009453492279053,3.6778615765625,3.895373492279053Q3.6666259765625,3.781293492279053,3.6666259765625,3.666663492279053Q3.6666259765625,3.552033492279053,3.6778615765625,3.4379634922790525Q3.6890972765625,3.3238834922790526,3.7114602765625,3.2114534922790527Q3.7338233765625,3.0990334922790526,3.7670989765625,2.9893334922790524Q3.8003739765625,2.879643492279053,3.8442399765625,2.7737434922790527Q3.8881069765625,2.667833492279053,3.9421429765625,2.566743492279053Q3.9961789765624998,2.4656434922790527,4.0598639765625,2.3703334922790527Q4.1235479765625,2.2750254922790525,4.1962679765625,2.186415492279053Q4.2689879765625,2.0978064922790525,4.3500429765625,2.0167504922790527Q4.4310989765625,1.9356954922790526,4.5197079765625,1.8629754922790527Q4.6083179765625,1.7902554922790528,4.7036259765625,1.7265714922790527Q4.7989359765625,1.6628864922790527,4.9000359765625,1.6088504922790527Q5.0011259765625,1.5548144922790528,5.1070359765625,1.5109474922790527Q5.2129359765625,1.4670814922790527,5.3226259765625,1.4338064922790528Q5.4323259765625,1.4005308922790527,5.5447459765625,1.3781677922790527Q5.6571759765625,1.3558047922790528,5.7712559765625,1.3445690922790527Q5.8853259765625,1.3333334922790527,5.9999559765625,1.3333334922790527Q6.1145859765625,1.3333334922790527,6.2286659765625,1.3445690922790527Q6.3427459765625,1.3558047922790528,6.455165976562499,1.3781677922790527Q6.5675959765625,1.4005308922790527,6.6772859765625,1.4338064922790528Q6.7869859765625,1.4670814922790527,6.8928859765625,1.5109474922790527Q6.9987859765625,1.5548144922790528,7.099885976562501,1.6088504922790527Q7.2009759765625,1.6628864922790527,7.296285976562499,1.7265714922790527Q7.3915959765625,1.7902554922790528,7.4802059765625,1.8629754922790527Q7.5688159765625,1.9356954922790526,7.6498759765625,2.0167504922790527Q7.7309259765625,2.0978064922790525,7.8036459765625,2.186415492279053Q7.8763659765625,2.2750254922790525,7.9400559765625,2.3703334922790527Q8.0037359765625,2.4656434922790527,8.0577759765625,2.566743492279053Q8.1118159765625,2.667833492279053,8.155675976562499,2.7737434922790527Q8.1995459765625,2.879643492279053,8.232815976562499,2.9893334922790524Q8.2660959765625,3.0990334922790526,8.2884559765625,3.2114534922790527Q8.3108259765625,3.3238834922790526,8.322055976562499,3.4379634922790525Q8.3332959765625,3.552033492279053,8.3332959765625,3.666663492279053Z" fill="#E2E2E2" fill-opacity="1"/></g><g><path d="M1.3333740234375,10.666666984558105L10.6667040234375,10.666666984558105C10.6667040234375,8.754016984558106,9.260304023437499,7.132418984558106,7.3668740234375,6.861928984558105L6.0000440234375,6.6666669845581055L4.6332040234375,6.861928984558105C2.7397740234375,7.132418984558106,1.3333740234375,8.754016984558106,1.3333740234375,10.666666984558105Z" fill="#E2E2E2" fill-opacity="1"/></g></g></svg>