<svg xmlns="http://www.w3.org/2000/svg" xmlns:xlink="http://www.w3.org/1999/xlink" fill="none" version="1.1" width="40" height="40" viewBox="0 0 40 40"><g><path d="M20,0C25.6552,0.148571,30.3651,2.10524,34.13,5.87C37.8949,9.63477,39.8514,14.3448,40,20C39.8514,25.6552,37.8949,30.3651,34.13,34.13C30.3651,37.8949,25.6552,39.8514,20,40C14.3448,39.8514,9.63477,37.8949,5.87,34.13C2.10524,30.3651,0.148571,25.6552,0,20C0.148571,14.3448,2.10524,9.63477,5.87,5.87C9.63477,2.10524,14.3448,0.148571,20,0C20,0,20,0,20,0C20,0,20,0,20,0ZM22.9914,12.2771C23.7657,12.2771,24.4057,12.0467,24.9114,11.5857C25.4171,11.1248,25.67,10.5071,25.67,9.73286C25.67,8.95857,25.4171,8.34094,24.9114,7.88C24.4057,7.41906,23.7733,7.18857,23.0143,7.18857C22.2552,7.18857,21.6229,7.41906,21.1171,7.88C20.6114,8.34094,20.3586,8.95857,20.3586,9.73286C20.3586,10.5071,20.6114,11.1248,21.1171,11.5857C21.6229,12.0467,22.2481,12.2771,22.9929,12.2771C22.9929,12.2771,22.9914,12.2771,22.9914,12.2771C22.9914,12.2771,22.9914,12.2771,22.9914,12.2771ZM24.3736,28.5054C24.3736,28.3263,24.3883,28.0882,24.4179,27.7911C24.4474,27.4939,24.4474,27.2111,24.4179,26.9425C24.4179,26.9425,21.2057,29.5086,21.2057,29.5086C20.9676,29.7763,20.7219,29.9849,20.4686,30.1343C20.2152,30.2837,19.9995,30.3286,19.8214,30.2686C19.5538,30.1494,19.4348,29.9409,19.4643,29.6429C19.4643,29.6429,23.3929,17.2771,23.3929,17.2771C23.5414,16.4438,23.4076,15.7295,22.9914,15.1343C22.5752,14.5391,21.9057,14.1819,20.9829,14.0629C19.9409,14.0924,18.6681,14.2857,17.4329,15.1343C16.1976,15.9829,14.9229,17.1719,14,18.4814C14,18.4814,14,19.1514,14,19.1514C13.9705,19.4495,13.9705,19.7324,14,20C14,20,16,18,16,18C16.2381,17.7324,17.1795,16.9367,17.4329,16.7871C17.6862,16.6376,17.8871,16.5929,18.0357,16.6529C18.3338,16.8014,18.4381,17.0395,18.3486,17.3671C18.3486,17.3671,14.4643,29.6886,14.4643,29.6886C14.2557,30.4323,14.36,31.0949,14.7771,31.6757C15.1943,32.2566,15.9233,32.6509,16.9643,32.8586C18.4529,32.8291,18.7143,33.0643,20.5,32C22.2857,30.9357,23.5098,29.8162,24.3736,28.5068C24.3736,28.5068,24.3736,28.5054,24.3736,28.5054C24.3736,28.5054,24.3736,28.5054,24.3736,28.5054Z" fill="#FFFFFF" fill-opacity="0.4000000059604645"/></g></svg>