<svg xmlns="http://www.w3.org/2000/svg" xmlns:xlink="http://www.w3.org/1999/xlink" fill="none" version="1.1" width="80" height="80" viewBox="0 0 80 80"><g><g><g><path d="M9.302822242797852,57.6724C9.142462242797851,58.8716,10.075293242797851,59.9375,11.285173242797852,59.9375L63.44783324279785,59.9375C64.47203324279785,59.9375,65.33073324279786,59.1638,65.43703324279785,58.1451L68.76953324279785,26.214869999999998C68.89273324279785,25.03459,67.96703324279785,24.00726,66.78033324279785,24.00726L34.91973324279785,24.00726C34.614933242797846,24.00726,34.32693324279785,23.86833,34.13713324279785,23.62988L29.412933242797852,17.692273C29.03353324279785,17.215372,28.45733324279785,16.9375,27.84793324279785,16.9375L16.500293242797852,16.9375C15.49817324279785,16.9375,14.65076324279785,17.679143,14.517943242797852,18.67242L9.302822242797852,57.6724Z" fill="#3E3E3F" fill-opacity="1"/></g><g><path d="M10.889604417572022,60.0625C9.785030417572022,60.0625,8.889600276572022,59.1671,8.889600276572022,58.0625L8.889600276572022,22.0625C8.889600276572022,20.957931,9.785030417572022,20.0625,10.889604417572022,20.0625L21.92234441757202,20.0625C22.53334441757202,20.0625,23.11084441757202,20.341756,23.490144417572022,20.820674L28.18934441757202,26.75318C28.378944417572022,26.99264,28.66774441757202,27.13226,28.973144417572023,27.13226L62.88964441757202,27.13226C63.99414441757202,27.13226,64.88964441757201,28.02769,64.88964441757201,29.132260000000002L64.88964441757201,58.0625C64.88964441757201,59.1671,63.99414441757202,60.0625,62.88964441757202,60.0625L10.889604417572022,60.0625ZM17.336864417572023,48.0625Q17.18948441757202,48.0625,17.04281441757202,48.076899999999995Q16.89614441757202,48.0914,16.751594417572022,48.1201Q16.60704441757202,48.1489,16.466014417572023,48.1917Q16.324974417572022,48.2345,16.188814417572022,48.2909Q16.052654417572022,48.347300000000004,15.922674417572022,48.4167Q15.792694417572022,48.4862,15.670154417572022,48.5681Q15.54761441757202,48.65,15.433684417572021,48.7435Q15.319754417572021,48.837,15.215544417572023,48.941199999999995Q15.11133441757202,49.0454,15.017834417572022,49.1593Q14.924334417572021,49.2732,14.842454417572021,49.3958Q14.760574417572021,49.518299999999996,14.69110441757202,49.6483Q14.621624417572022,49.7783,14.565224417572022,49.9144Q14.508824417572022,50.0506,14.466044417572022,50.1916Q14.423264417572021,50.3327,14.394504417572023,50.477199999999996Q14.36575441757202,50.6218,14.351314417572022,50.7684Q14.336864417572022,50.915099999999995,14.336864417572022,51.0625Q14.336864417572022,51.209900000000005,14.351314417572022,51.3566Q14.36575441757202,51.5032,14.394504417572023,51.647800000000004Q14.423264417572021,51.7923,14.466044417572022,51.9334Q14.508824417572022,52.0744,14.565224417572022,52.2105Q14.621624417572022,52.3467,14.69110441757202,52.4767Q14.760574417572021,52.6067,14.842454417572021,52.7292Q14.924334417572021,52.8517,15.017834417572022,52.9657Q15.11133441757202,53.0796,15.215544417572023,53.1838Q15.319754417572021,53.288,15.433684417572021,53.3815Q15.54761441757202,53.475,15.670154417572022,53.5569Q15.792694417572022,53.6388,15.922674417572022,53.7083Q16.052654417572022,53.7777,16.188814417572022,53.8341Q16.324974417572022,53.8905,16.466014417572023,53.9333Q16.60704441757202,53.9761,16.751594417572022,54.0049Q16.89614441757202,54.0336,17.04281441757202,54.048Q17.18948441757202,54.0625,17.336864417572023,54.0625L26.450544417572022,54.0625Q26.597944417572023,54.0625,26.744544417572023,54.048Q26.89124441757202,54.0336,27.035844417572022,54.0049Q27.180344417572023,53.9761,27.32134441757202,53.9333Q27.462444417572023,53.8905,27.598544417572022,53.8341Q27.73474441757202,53.7777,27.864744417572023,53.7083Q27.994644417572022,53.6388,28.11724441757202,53.5569Q28.239744417572023,53.475,28.35374441757202,53.3815Q28.46764441757202,53.288,28.57184441757202,53.1838Q28.676044417572022,53.0796,28.76954441757202,52.9657Q28.86304441757202,52.8517,28.94494441757202,52.7292Q29.026844417572022,52.6067,29.09624441757202,52.4767Q29.16574441757202,52.3467,29.22214441757202,52.2105Q29.27854441757202,52.0744,29.32134441757202,51.9334Q29.36414441757202,51.7923,29.39284441757202,51.647800000000004Q29.421644417572022,51.5032,29.43604441757202,51.3566Q29.450544417572022,51.209900000000005,29.450544417572022,51.0625Q29.450544417572022,50.915099999999995,29.43604441757202,50.7684Q29.421644417572022,50.6218,29.39284441757202,50.477199999999996Q29.36414441757202,50.3327,29.32134441757202,50.1916Q29.27854441757202,50.0506,29.22214441757202,49.9144Q29.16574441757202,49.7783,29.09624441757202,49.6483Q29.026844417572022,49.518299999999996,28.94494441757202,49.3958Q28.86304441757202,49.2732,28.76954441757202,49.1593Q28.676044417572022,49.0454,28.57184441757202,48.941199999999995Q28.46764441757202,48.837,28.35374441757202,48.7435Q28.239744417572023,48.65,28.11724441757202,48.5681Q27.994644417572022,48.4862,27.864744417572023,48.4167Q27.73474441757202,48.347300000000004,27.598544417572022,48.2909Q27.462444417572023,48.2345,27.32134441757202,48.1917Q27.180344417572023,48.1489,27.035744417572023,48.1201Q26.89124441757202,48.0914,26.744544417572023,48.076899999999995Q26.597944417572023,48.0625,26.450544417572022,48.0625L17.336864417572023,48.0625Z" fill-rule="evenodd" fill="#505050" fill-opacity="1"/></g><g><g><ellipse cx="59.11041450500488" cy="51.0625" rx="12" ry="12" fill="#505050" fill-opacity="1"/></g><g><path d="M71.11041450500488,51.0625C71.11041450500488,57.6899,65.73781450500488,63.0625,59.11041450500488,63.0625C52.48299450500488,63.0625,47.11041450500488,57.6899,47.11041450500488,51.0625C47.11041450500488,44.43508,52.48299450500488,39.0625,59.11041450500488,39.0625C65.73781450500488,39.0625,71.11041450500488,44.43508,71.11041450500488,51.0625ZM65.11041450500488,46.395830000000004C65.11041450500488,46.74946,64.96991450500488,47.088589999999996,64.71991450500488,47.33864L60.99601450500488,51.0625L64.71991450500488,54.7864C64.96991450500488,55.0364,65.11041450500488,55.3755,65.11041450500488,55.7292C65.11041450500488,56.4655,64.51341450500487,57.0625,63.77711450500488,57.0625C63.423414505004885,57.0625,63.08431450500488,56.922,62.83431450500488,56.672L59.11041450500488,52.9481L55.38655450500488,56.672C55.13650450500488,56.922,54.79737450500488,57.0625,54.44374450500489,57.0625C53.70736450500488,57.0625,53.11041450500488,56.4655,53.11041450500488,55.7292C53.11041450500488,55.3755,53.25089450500488,55.0364,53.50094450500488,54.7864L57.224814505004886,51.0625L53.50094450500488,47.33864C53.25089450500488,47.088589999999996,53.11041450500488,46.74946,53.11041450500488,46.395830000000004C53.11041450500488,45.65945,53.70736450500488,45.0625,54.44374450500489,45.0625C54.79737450500488,45.0625,55.13650450500488,45.20298,55.38655450500488,45.45303L59.11041450500488,49.1769L62.83431450500488,45.45303C63.08431450500488,45.20298,63.423414505004885,45.0625,63.77711450500488,45.0625C64.51341450500487,45.0625,65.11041450500488,45.65945,65.11041450500488,46.395830000000004Z" fill-rule="evenodd" fill="#2E2E2F" fill-opacity="1"/></g><g><ellipse cx="59.11041450500488" cy="51.0625" rx="13" ry="13" fill-opacity="0" stroke-opacity="1" stroke="#505050" fill="none" stroke-width="2"/></g></g></g></g></svg>