<svg xmlns="http://www.w3.org/2000/svg" xmlns:xlink="http://www.w3.org/1999/xlink" fill="none" version="1.1" width="40" height="40.000003814697266" viewBox="0 0 40 40.000003814697266"><g><path d="M20,40C31.0457,40,40,31.0457,40,20C40,8.9543,31.0457,0,20,0C8.9543,0,0,8.9543,0,20C0,31.0457,8.9543,40,20,40ZM16.9435,9.98849C16.7945,8.2003,18.2056,6.66667,20,6.66667C21.7944,6.66667,23.2055,8.2003,23.0565,9.98849L21.8051,23.8947C21.7268,24.8335,20.9421,25.5556,20,25.5556C19.0579,25.5556,18.2732,24.8335,18.1949,23.8947L16.9435,9.98849ZM20,27.7778C18.4659,27.7778,17.2222,29.0214,17.2222,30.5556C17.2222,32.0897,18.4659,33.3333,20,33.3333C21.5341,33.3333,22.7778,32.0897,22.7778,30.5556C22.7778,29.0214,21.5341,27.7778,20,27.7778Z" fill-rule="evenodd" fill="#FFC800" fill-opacity="1"/></g></svg>